<svg width="205" height="48" xmlns="http://www.w3.org/2000/svg"><path d="M0 46.304h204.736v1.408H0zm63.2-12.032h.096l8.48-23.168h7.712v.768c-.672 0-1.248.064-1.664.192a2.087 2.087 0 00-1.024.64c-.256.288-.416.736-.512 1.28-.096.544-.128 1.216-.128 2.048v21.504c0 .864.064 1.568.16 2.112s.288.992.544 1.28c.256.32.576.512 1.024.608.448.096.992.16 1.632.16v.768H67.84v-.768c.768 0 1.408-.032 1.92-.128s.928-.288 1.216-.576c.288-.288.512-.704.64-1.28.128-.544.192-1.28.192-2.208v-21.12h-.096l-9.504 26.112h-.544L52.192 16.96h-.096v20.576c0 .928.064 1.664.16 2.208.096.544.32.96.608 1.28.288.288.704.48 1.184.576.512.096 1.12.128 1.92.128v.768h-9.344v-.768c.736 0 1.344-.064 1.824-.16s.864-.32 1.152-.608c.288-.288.48-.704.576-1.28.096-.544.16-1.28.16-2.176V16c0-.832-.032-1.504-.128-2.048s-.288-.96-.544-1.28c-.256-.32-.672-.512-1.152-.64-.48-.128-1.12-.192-1.888-.192v-.768h8.096l8.48 23.2zm32.256 5.664c0 .608.224 1.088.672 1.376.448.32 1.28.448 2.528.416v.768h-8.928v-.768a5.6 5.6 0 001.536-.192 2.51 2.51 0 001.12-.672c.32-.32.608-.768.864-1.344.256-.576.512-1.28.768-2.144l8.448-26.976h.768l9.088 26.976c.352 1.056.672 1.856.928 2.432.288.576.576 1.024.896 1.28.32.288.672.448 1.056.512s.864.096 1.44.096v.768h-11.264v-.768c1.024 0 1.76-.128 2.176-.416.416-.288.64-.736.64-1.376 0-.256-.032-.512-.096-.768a24.9 24.9 0 00-.384-1.312l-1.824-5.376h-8.32l-1.888 6.08c-.128.704-.224 1.152-.224 1.408zm6.048-20.384l-3.392 11.2h7.2l-3.712-11.2h-.096zm34.24 20.192c.128.544.352.96.64 1.28.32.288.736.48 1.312.576.576.096 1.28.128 2.144.128v.768h-13.12v-.768c.864 0 1.6-.032 2.144-.128.576-.064.992-.256 1.312-.544.32-.288.512-.736.64-1.28.128-.576.192-1.312.192-2.24V12.864h-3.424c-.992 0-1.856.096-2.528.288-.704.192-1.248.48-1.696.928-.448.416-.768.992-.96 1.664-.224.672-.32 1.504-.352 2.528h-.768v-7.136h24.064v7.104h-.768c-.064-1.952-.512-3.36-1.344-4.16-.832-.8-2.208-1.216-4.192-1.216h-3.488v24.672c0 .928.064 1.664.192 2.208zm32.128-27.84c-.8 0-1.472.032-2.016.128s-.96.288-1.248.608c-.288.32-.512.736-.64 1.28s-.16 1.248-.16 2.144v21.504c0 .96.064 1.696.224 2.24.16.544.384.96.672 1.28.32.288.704.48 1.248.544.512.064 1.152.128 1.92.128v.768H155.2v-.768c.832 0 1.536-.064 2.048-.16.544-.096.928-.32 1.248-.64.288-.32.48-.736.608-1.28s.16-1.248.16-2.08V16.096c0-.896-.064-1.6-.16-2.144-.128-.544-.32-.96-.64-1.28-.32-.32-.736-.512-1.248-.608-.544-.096-1.216-.128-2.016-.128v-.768h12.672v.736zm33.952 8.896c-.224-2.688-1.088-4.864-2.56-6.432-1.472-1.6-3.392-2.4-5.696-2.4-3.04 0-5.28 1.344-6.72 4-1.44 2.656-2.176 6.624-2.176 11.84 0 2.432.224 4.512.64 6.272.448 1.76 1.056 3.168 1.888 4.32.832 1.12 1.824 1.952 3.008 2.464s2.496.768 3.936.768c1.92 0 3.552-.48 4.896-1.472 1.312-.992 2.56-2.528 3.68-4.64l.768.384c-2.272 4.896-5.856 7.36-10.688 7.36-1.696 0-3.36-.32-4.992-.992a12.978 12.978 0 01-4.32-2.944c-1.28-1.312-2.304-2.912-3.072-4.864-.768-1.92-1.152-4.16-1.152-6.72 0-2.496.352-4.768 1.024-6.88.704-2.112 1.664-3.936 2.912-5.472 1.248-1.536 2.72-2.752 4.384-3.616 1.696-.864 3.552-1.28 5.536-1.28.96 0 1.824.096 2.592.288.768.192 1.408.416 1.952.672.544.256 1.024.48 1.44.672.416.192.768.288 1.056.288.32 0 .576-.16.736-.448.16-.288.288-.8.384-1.504h.832l.576 10.368h-.864V20.8zM10.016 39.36c0 .8.32 1.408.96 1.824.64.416 1.792.576 3.52.544v1.024H1.952v-1.024c.8 0 1.536-.096 2.144-.256a3.464 3.464 0 001.6-.896c.448-.416.864-1.024 1.216-1.76S7.648 37.12 8 35.968L19.84.256h1.088L33.6 36.032c.512 1.376.928 2.464 1.312 3.232.384.768.8 1.344 1.248 1.696.448.352.96.576 1.504.672.544.096 1.216.128 2.016.128v1.024H23.936V41.76c1.44 0 2.464-.192 3.04-.544.576-.352.864-.96.864-1.824 0-.32-.032-.672-.128-.992a21.607 21.607 0 00-.544-1.728l-2.56-7.136H12.992l-2.624 8.032c-.256.864-.352 1.472-.352 1.792zm8.448-27.008l-4.736 14.816h10.08l-5.216-14.816h-.128z" fill="#FFF"/></svg>
