<svg width="193" height="48" xmlns="http://www.w3.org/2000/svg"><g fill="none" fill-rule="evenodd"><path d="M102.403 4.16v22.403h8.15v3.373h-8.083v5.055h18.532V4.161h-18.599zm5.286 17.107h2.805V9.317h-2.805v11.95zm-35.917 5.131h2.994V9.288h-2.994v17.11zM85.086.548v31.068H66.61V4.058h8.038l.51-3.51h9.93zM10.264 26.344h3.082V9.25h-3.082v17.094zM0 .516h9.93l.297 3.316h8.221v27.8H0V.515zm165.633 25.888h2.893V18.11h-2.893v8.294zm13.272-22.298V31.68H160.45V12.716h8.095l.159-3.44h-8.247v-5.17h18.45zM32.416 17.704h3.19V9.361h-3.19v8.343zm-10.244 13.9V4.143h18.481v18.846h-8.188v3.439h8.163v5.176H22.172zm130.621-5.225l4.007.31v4.867h-14.378V9.349l-4.188-.343V4.06l3.986-.25.244-3.26h9.946l.323 3.244 4.059.27V9.03l-4 .228v17.12zM58.87 9.274V26.36l3.93.308v4.937H48.548v-22.3l-4.07-.253V4.069l3.835-.249.273-3.247h9.92l.477 3.248 3.898.258v4.938l-4.01.257m123.633 22.364h10.028V.59h-10.028zm-93.716-.03h9.949V9.365h-9.95zm35.812-.01h9.97V9.323h-9.97zm.043-26.208h9.935V.542h-9.935zm-35.85.063h9.968V.57h-9.968z" fill="#FEFEFE"/><path d="M59.876 44.802c.868 0 1.569-.298 2.102-.894.533-.596.799-1.312.799-2.15 0-.78-.205-1.416-.616-1.906-.41-.49-.906-.734-1.486-.734a1.93 1.93 0 00-1.255.444c-.206.17-.36.35-.462.539v-3.606a.224.224 0 00-.012-.071c-.028 0-.221.063-.58.19-.36.126-.764.24-1.214.343v.201l.266-.03c.23 0 .375.049.439.146.063.096.094.26.094.488v6.259c0 .173.212.347.634.52.422.174.852.261 1.29.261zm.236-.402a2.35 2.35 0 01-.716-.134c-.272-.088-.426-.235-.462-.44v-3.02c0-.265.134-.483.403-.655a1.51 1.51 0 01.823-.257c.556 0 .96.25 1.208.749.248.5.373 1.043.373 1.631 0 .588-.133 1.09-.4 1.504-.266.414-.676.622-1.229.622zm5.625.432c.644 0 1.188-.213 1.632-.64.444-.426.747-.89.909-1.391l-.208-.071c-.24.399-.503.707-.787.924-.284.217-.634.325-1.048.325-.513 0-.957-.209-1.332-.627-.375-.419-.583-1.086-.622-2.002h3.76c0-.706-.21-1.252-.628-1.637a2.093 2.093 0 00-1.462-.577c-.754 0-1.366.288-1.836.864-.47.577-.704 1.262-.704 2.055 0 .73.202 1.376.606 1.936.405.56.978.84 1.72.84zm1.066-3.86h-2.498c.055-.324.146-.593.272-.806.237-.399.58-.598 1.03-.598.454 0 .778.174.971.521.107.194.182.488.225.882zm3.69 3.83c.212 0 .433-.057.662-.171.23-.115.446-.31.652-.587l.13-.177-.154-.13a1.942 1.942 0 01-.358.32.67.67 0 01-.37.1c-.277 0-.462-.136-.557-.409-.051-.154-.077-.38-.077-.68l.012-3.411h1.208v-.426h-1.196v-1.457c0-.051-.005-.08-.015-.089-.01-.008-.04-.012-.092-.012-.446.6-.73.97-.85 1.11-.12.14-.316.323-.589.548-.094.08-.15.13-.168.151a.141.141 0 00-.027.092c0 .02.005.036.015.047a.17.17 0 00.044.036h.646v3.588c0 .399.045.71.136.936.166.414.481.621.947.621zm3.368 0c.213 0 .434-.057.663-.171.23-.115.446-.31.652-.587l.13-.177-.154-.13a1.942 1.942 0 01-.358.32.67.67 0 01-.37.1c-.277 0-.462-.136-.557-.409-.051-.154-.077-.38-.077-.68l.012-3.411h1.208v-.426h-1.196v-1.457c0-.051-.005-.08-.015-.089-.01-.008-.04-.012-.092-.012-.446.6-.729.97-.85 1.11-.12.14-.316.323-.589.548-.094.08-.15.13-.168.151a.141.141 0 00-.027.092c0 .02.005.036.015.047.01.012.025.024.044.036h.646v3.588c0 .399.045.71.136.936.166.414.481.621.947.621zm3.044-7.14c.17 0 .314-.06.435-.181.12-.12.18-.266.18-.435a.6.6 0 00-.18-.441.593.593 0 00-.435-.181.586.586 0 00-.439.184.608.608 0 00-.177.438c0 .17.059.315.177.435a.59.59 0 00.439.18zm1.504 7.028v-.166c-.383-.032-.63-.105-.738-.22-.108-.114-.162-.396-.162-.846v-4.251a.322.322 0 00-.012-.089.771.771 0 00-.213.071c-.273.115-.754.284-1.445.51l-.255.082v.184a7.89 7.89 0 01.358-.095.679.679 0 01.128-.012c.19 0 .314.081.373.243.035.099.053.276.053.533v2.824c0 .462-.055.745-.166.85-.11.105-.377.177-.8.216v.166h2.879zm3.02.112c.868 0 1.568-.298 2.101-.894.533-.596.8-1.312.8-2.15 0-.78-.206-1.416-.616-1.906-.41-.49-.906-.734-1.486-.734a1.93 1.93 0 00-1.256.444c-.205.17-.359.35-.461.539v-3.606a.224.224 0 00-.012-.071c-.028 0-.221.063-.58.19-.36.126-.764.24-1.214.343v.201l.266-.03c.229 0 .375.049.438.146.063.096.095.26.095.488v6.259c0 .173.211.347.633.52.423.174.853.261 1.291.261zm.236-.402a2.35 2.35 0 01-.716-.134c-.273-.088-.427-.235-.462-.44v-3.02c0-.265.134-.483.402-.655a1.51 1.51 0 01.824-.257c.556 0 .959.25 1.207.749.25.5.373 1.043.373 1.631 0 .588-.133 1.09-.4 1.504-.266.414-.675.622-1.228.622zm5.489 2.93c.71 0 1.414-.185 2.11-.556.698-.371 1.046-.868 1.046-1.492 0-.612-.298-1.01-.894-1.196-.363-.115-1.052-.172-2.067-.172-.22 0-.422-.02-.604-.06-.276-.058-.414-.151-.414-.277 0-.123.094-.28.281-.474.188-.193.339-.29.453-.29.257.035.434.053.533.053.632 0 1.134-.188 1.507-.565.373-.377.56-.79.56-1.24 0-.206-.034-.423-.101-.652a5.093 5.093 0 00-.166-.432h1.024v-.48h-.136c-.073.002-.173.004-.299.009-.168.006-.293.009-.376.009-.32 0-.653-.068-1-.204a2.635 2.635 0 00-.954-.205c-.67 0-1.19.207-1.557.622-.367.414-.55.853-.55 1.314 0 .38.099.72.298 1.025.2.304.479.515.838.633-.446.395-.737.68-.873.856-.136.176-.204.336-.204.482 0 .158.079.299.236.42.091.068.227.137.409.208l-.071.071-.39.35c-.297.268-.495.47-.596.606a.696.696 0 00-.15.418c0 .288.189.563.567.826.38.262.893.394 1.54.394zm.657-4.748c-.37 0-.673-.192-.906-.574a2.446 2.446 0 01-.35-1.297c0-.284.038-.523.113-.717.146-.367.413-.55.8-.55.446 0 .765.235.956.704.191.47.287.892.287 1.267 0 .47-.118.8-.355.99a.837.837 0 01-.545.177zm-.053 4.08a3.99 3.99 0 01-1.282-.19c-.373-.126-.56-.355-.56-.687 0-.213.095-.446.285-.698.185-.25.302-.374.349-.374a7.56 7.56 0 00.852.119 48.491 48.491 0 00.906.036c.573.007.962.037 1.167.088.332.087.497.263.497.527 0 .332-.205.611-.615.838-.41.227-.944.34-1.6.34zm12.114-1.789c.79 0 1.433-.29 1.93-.87.498-.58.747-1.263.747-2.049 0-.852-.257-1.535-.77-2.048-.513-.514-1.16-.77-1.942-.77-.786 0-1.428.271-1.927.814-.5.543-.75 1.207-.75 1.992 0 .841.263 1.54.788 2.096a2.544 2.544 0 001.924.835zm.196-.337c-.565 0-1.006-.304-1.324-.912a4.18 4.18 0 01-.476-1.966c0-.88.197-1.5.592-1.859.229-.205.5-.308.811-.308.576 0 1.016.302 1.32.906.304.604.456 1.247.456 1.93 0 .66-.119 1.192-.358 1.599-.239.407-.58.61-1.021.61zm5.654.154v-.166c-.272-.008-.471-.06-.598-.157-.126-.097-.19-.287-.19-.571V40.48c.214-.21.388-.36.522-.45.24-.158.478-.237.71-.237.34 0 .573.112.7.335.125.223.189.504.189.843V43.5c0 .402-.058.664-.172.784-.115.12-.316.2-.604.24v.166h2.528v-.166c-.268-.004-.46-.07-.574-.195-.115-.127-.172-.332-.172-.616v-2.765c0-.77-.213-1.305-.64-1.605a1.256 1.256 0 00-.734-.23c-.331 0-.65.096-.959.29-.205.126-.49.359-.852.698v-.87a.302.302 0 00-.01-.083c-.005-.02-.022-.03-.05-.03l-.556.184c-.604.197-.987.32-1.149.367v.207a3.9 3.9 0 01.14-.018 1.01 1.01 0 01.109-.006c.233 0 .387.075.462.225.047.103.07.28.07.533v3.002c0 .363-.055.597-.168.702-.112.104-.309.174-.59.21v.166h2.588zm11.02.089c.323 0 .665-.107 1.024-.32.213-.126.47-.32.77-.58.011.24.077.448.198.621.12.174.315.26.583.26.23 0 .454-.074.675-.224.146-.099.282-.225.409-.38v-.307a2.3 2.3 0 01-.308.201.533.533 0 01-.225.042.31.31 0 01-.32-.231c-.032-.087-.047-.245-.047-.474v-2.374c0-.521-.073-.918-.22-1.19-.272-.498-.79-.746-1.557-.746-.659 0-1.16.15-1.5.453-.342.302-.513.59-.513.867a.6.6 0 00.142.388.499.499 0 00.409.175.551.551 0 00.296-.077c.146-.087.219-.241.219-.462 0-.032-.01-.104-.03-.216a1.606 1.606 0 01-.03-.24c0-.186.092-.332.273-.438a1.15 1.15 0 01.574-.154c.423 0 .701.132.835.396.08.158.119.439.119.841v.503c-1.086.407-1.81.729-2.173.966-.573.383-.859.86-.859 1.433 0 .367.125.67.373.908.249.24.543.359.882.359zm.669-.717a.863.863 0 01-.516-.166c-.236-.17-.355-.434-.355-.793 0-.446.284-.845.853-1.196a5.421 5.421 0 011.125-.497v1.877c0 .225-.12.41-.358.556-.24.146-.489.22-.75.22zm13.239.74l.93-.349.858-.296v-.195a.975.975 0 01-.13.014 2.868 2.868 0 01-.13.003c-.273 0-.44-.051-.504-.154-.063-.102-.094-.282-.094-.538l.011-4.838c0-.233.002-.469.006-.708l.012-.695.012-.622-.035-.012a9.756 9.756 0 01-.782.261c-.178.051-.355.1-.533.148l-.485.124v.195l.236-.023c.036-.004.077-.006.125-.006.201 0 .328.045.382.136.053.09.08.257.08.497v1.883a1.682 1.682 0 00-1.25-.533c-.722 0-1.333.307-1.832.921-.5.614-.75 1.35-.75 2.206a2.8 2.8 0 00.625 1.803c.417.519.96.778 1.632.778a1.87 1.87 0 001-.266 3.09 3.09 0 00.575-.515v.728l.041.053zm-1.072-.64c-.584 0-1.023-.248-1.317-.745-.294-.498-.441-1.064-.441-1.7 0-.643.138-1.185.414-1.625.277-.44.663-.66 1.16-.66.261 0 .529.106.803.317.274.21.412.573.412 1.086v2.54c0 .162-.095.334-.285.515-.19.182-.438.273-.746.273zm4.583-6.5a.59.59 0 00.435-.181.595.595 0 00.181-.435.6.6 0 00-.18-.441.593.593 0 00-.436-.181.586.586 0 00-.438.184.608.608 0 00-.178.438c0 .17.06.315.178.435a.59.59 0 00.438.18zm1.504 7.028v-.166c-.383-.032-.628-.105-.737-.22-.109-.114-.163-.396-.163-.846v-4.251a.322.322 0 00-.012-.089.771.771 0 00-.213.071c-.272.115-.754.284-1.445.51l-.254.082v.184c.197-.055.317-.087.358-.095a.679.679 0 01.127-.012c.19 0 .314.081.373.243.036.099.054.276.054.533v2.824c0 .462-.056.745-.166.85-.11.105-.377.177-.8.216v.166h2.878zm2.682 2.64c.71 0 1.415-.185 2.111-.556.697-.371 1.045-.868 1.045-1.492 0-.612-.298-1.01-.894-1.196-.363-.115-1.052-.172-2.066-.172a2.81 2.81 0 01-.604-.06c-.276-.058-.415-.151-.415-.277 0-.123.094-.28.282-.474.187-.193.338-.29.453-.29.256.035.434.053.532.053.632 0 1.134-.188 1.507-.565.373-.377.56-.79.56-1.24 0-.206-.034-.423-.1-.652a5.093 5.093 0 00-.167-.432h1.025v-.48h-.136c-.074.002-.174.004-.3.009-.167.006-.293.009-.375.009a2.74 2.74 0 01-1.001-.204 2.635 2.635 0 00-.953-.205c-.671 0-1.19.207-1.558.622-.367.414-.55.853-.55 1.314 0 .38.1.72.299 1.025.2.304.478.515.838.633-.446.395-.738.68-.874.856-.136.176-.204.336-.204.482 0 .158.079.299.237.42.09.068.227.137.408.208l-.07.071-.391.35c-.297.268-.495.47-.596.606a.696.696 0 00-.15.418c0 .288.189.563.568.826.379.262.892.394 1.54.394zm.658-4.748c-.371 0-.673-.192-.906-.574a2.446 2.446 0 01-.35-1.297c0-.284.038-.523.113-.717.146-.367.412-.55.8-.55.445 0 .764.235.955.704.192.47.288.892.288 1.267 0 .47-.119.8-.356.99a.837.837 0 01-.544.177zm-.054 4.08a3.99 3.99 0 01-1.282-.19c-.373-.126-.56-.355-.56-.687 0-.213.096-.446.285-.698.186-.25.302-.374.35-.374.094.02.238.044.432.072.193.027.333.043.42.047a48.49 48.49 0 00.906.036c.572.007.961.037 1.166.088.332.087.498.263.498.527 0 .332-.205.611-.616.838-.41.227-.943.34-1.599.34zm4.642-9c.17 0 .315-.06.436-.181.12-.12.18-.266.18-.435a.6.6 0 00-.18-.441.593.593 0 00-.436-.181.586.586 0 00-.438.184.608.608 0 00-.177.438c0 .17.059.315.177.435a.59.59 0 00.438.18zm1.504 7.028v-.166c-.383-.032-.628-.105-.737-.22-.108-.114-.163-.396-.163-.846v-4.251a.322.322 0 00-.011-.089.771.771 0 00-.214.071 21.63 21.63 0 01-1.444.51l-.255.082v.184c.197-.055.317-.087.358-.095a.679.679 0 01.128-.012c.189 0 .313.081.373.243.035.099.053.276.053.533v2.824c0 .462-.055.745-.166.85-.11.105-.377.177-.8.216v.166h2.878zm2.191.112c.213 0 .434-.057.663-.171.23-.115.446-.31.652-.587l.13-.177-.154-.13a1.942 1.942 0 01-.358.32.67.67 0 01-.37.1c-.277 0-.462-.136-.557-.409-.051-.154-.077-.38-.077-.68l.012-3.411h1.208v-.426h-1.196v-1.457c0-.051-.005-.08-.015-.089-.01-.008-.04-.012-.092-.012-.446.6-.73.97-.85 1.11-.12.14-.316.323-.589.548-.094.08-.15.13-.168.151a.141.141 0 00-.027.092c0 .02.005.036.015.047a.17.17 0 00.044.036h.646v3.588c0 .399.045.71.136.936.166.414.481.621.947.621zm3.132-.023c.324 0 .666-.107 1.025-.32.213-.126.47-.32.77-.58.011.24.077.448.198.621.12.174.315.26.583.26.229 0 .454-.074.675-.224.146-.099.282-.225.409-.38v-.307a2.3 2.3 0 01-.308.201.533.533 0 01-.225.042.31.31 0 01-.32-.231c-.032-.087-.047-.245-.047-.474v-2.374c0-.521-.073-.918-.22-1.19-.272-.498-.79-.746-1.557-.746-.659 0-1.16.15-1.5.453-.342.302-.513.59-.513.867a.6.6 0 00.142.388.499.499 0 00.409.175.551.551 0 00.296-.077c.146-.087.219-.241.219-.462 0-.032-.01-.104-.03-.216a1.606 1.606 0 01-.03-.24c0-.186.092-.332.273-.438a1.15 1.15 0 01.574-.154c.423 0 .701.132.835.396.08.158.119.439.119.841v.503c-1.086.407-1.81.729-2.173.966-.573.383-.859.86-.859 1.433 0 .367.124.67.373.908.249.24.543.359.882.359zm.67-.717a.863.863 0 01-.516-.166c-.237-.17-.355-.434-.355-.793 0-.446.284-.845.853-1.196a5.421 5.421 0 011.125-.497v1.877c0 .225-.12.41-.359.556-.238.146-.488.22-.749.22zm6.128.628v-.166c-.371-.028-.616-.092-.734-.192-.119-.101-.178-.323-.178-.667v-7.099a.811.811 0 00-.009-.154c-.006-.024-.023-.035-.05-.035-.75.236-1.392.426-1.925.568v.195c.1-.023.181-.041.246-.053a.997.997 0 01.18-.018c.241 0 .401.083.48.25.044.098.065.277.065.538v5.785c0 .327-.065.547-.195.66-.13.112-.379.186-.746.222v.166h2.866zm9.71 0v-.166c-.509-.036-.824-.115-.944-.24-.12-.124-.18-.41-.18-.855v-3.802h1.474v-.396h-1.487v-1.404c0-.256.03-.464.09-.621.106-.296.31-.444.61-.444.133 0 .238.028.313.085a.89.89 0 01.195.21l.101.155c.114.173.213.295.296.364a.449.449 0 00.296.103.45.45 0 00.344-.154.501.501 0 00.142-.349c0-.233-.138-.418-.412-.557a2.045 2.045 0 00-.932-.207c-.865 0-1.459.413-1.783 1.238-.17.43-.254.957-.254 1.58h-1.013v.397h1.013v3.802c0 .438-.066.725-.199.861-.132.136-.407.214-.826.234v.166h3.156zm2.943.112c.375 0 .73-.118 1.066-.355.22-.154.466-.39.734-.71v.953a.29.29 0 00.006.062c.004.018.016.027.036.027.347-.135.572-.22.674-.255.241-.079.413-.133.516-.163.102-.03.262-.074.48-.133v-.166c-.313.012-.517-.032-.614-.133-.096-.1-.145-.285-.145-.554v-4.168h-1.912v.195c.355.02.592.077.71.172.119.095.178.294.178.598v3.245a2.31 2.31 0 01-.444.408 1.37 1.37 0 01-.788.267c-.39 0-.659-.15-.805-.45-.075-.162-.112-.377-.112-.646v-3.79h-1.77v.167c.283.027.469.075.556.142.134.106.201.318.201.633v3.073c0 .569.154.973.462 1.214.304.245.628.367.971.367zm5.702 0c.213 0 .434-.057.663-.171.23-.115.446-.31.651-.587l.13-.177-.153-.13a1.942 1.942 0 01-.358.32.67.67 0 01-.37.1c-.277 0-.462-.136-.557-.409-.051-.154-.077-.38-.077-.68l.012-3.411h1.208v-.426h-1.196v-1.457c0-.051-.005-.08-.015-.089-.01-.008-.04-.012-.092-.012-.446.6-.73.97-.85 1.11-.12.14-.316.323-.589.548-.094.08-.15.13-.168.151a.141.141 0 00-.027.092c0 .02.005.036.015.047a.17.17 0 00.044.036h.645v3.588c0 .399.046.71.137.936.165.414.481.621.947.621zm3.73 0c.375 0 .73-.118 1.066-.355.221-.154.466-.39.734-.71v.953a.29.29 0 00.006.062c.004.018.016.027.036.027.347-.135.572-.22.675-.255.24-.079.412-.133.515-.163.102-.03.262-.074.48-.133v-.166c-.312.012-.517-.032-.613-.133-.097-.1-.145-.285-.145-.554v-4.168h-1.913v.195c.355.02.592.077.71.172.119.095.178.294.178.598v3.245a2.31 2.31 0 01-.444.408 1.37 1.37 0 01-.787.267c-.391 0-.66-.15-.806-.45-.075-.162-.112-.377-.112-.646v-3.79h-1.77v.167c.284.027.47.075.556.142.134.106.201.318.201.633v3.073c0 .569.154.973.462 1.214.304.245.628.367.971.367zm6.738-.112v-.196c-.367.008-.63-.054-.787-.186-.158-.132-.237-.368-.237-.708v-2.67c0-.237.1-.467.302-.69.201-.223.371-.334.51-.334.086 0 .206.069.358.207.151.138.302.207.452.207a.464.464 0 00.365-.166.598.598 0 00.145-.408.6.6 0 00-.19-.453.683.683 0 00-.491-.18c-.253 0-.497.098-.731.295a4.524 4.524 0 00-.732.823v-.97a.54.54 0 00-.009-.125c-.006-.02-.022-.03-.05-.03-.21.095-.412.18-.61.255-.09.035-.254.095-.491.177l-.693.243v.196c.071-.016.14-.029.204-.039a1.1 1.1 0 01.157-.015c.194 0 .327.084.4.252.073.168.11.447.11.838v2.67c0 .316-.06.522-.178.619-.119.097-.36.16-.723.192v.196h2.92zm3.63.142c.643 0 1.187-.213 1.631-.64.444-.426.747-.89.91-1.391l-.208-.071c-.24.399-.503.707-.788.924-.284.217-.633.325-1.048.325-.513 0-.957-.209-1.332-.627-.375-.419-.582-1.086-.622-2.002h3.76c0-.706-.209-1.252-.627-1.637a2.093 2.093 0 00-1.463-.577c-.754 0-1.366.288-1.835.864-.47.577-.705 1.262-.705 2.055 0 .73.202 1.376.607 1.936.405.56.978.84 1.72.84zm1.066-3.86h-2.499c.055-.324.146-.593.273-.806.236-.399.58-.598 1.03-.598.454 0 .777.174.97.521.107.194.182.488.226.882z" fill="#626262" fill-rule="nonzero"/></g></svg>
