<svg width="145" height="48" xmlns="http://www.w3.org/2000/svg"><g fill="none"><path d="M33.386 36.775h7.548v8.959c-1.09.79-2.245 1.379-3.475 1.731a13.48 13.48 0 01-3.848.535c-1.743 0-3.336-.278-4.768-.823-1.433-.545-2.662-1.304-3.678-2.267a10.004 10.004 0 01-2.362-3.431c-.556-1.326-.834-2.769-.834-4.32 0-1.581.267-3.035.79-4.36a9.86 9.86 0 012.246-3.432c.973-.963 2.16-1.71 3.538-2.245 1.38-.535 2.93-.802 4.64-.802.887 0 1.71.075 2.49.214.781.15 1.498.342 2.15.598.652.257 1.25.556 1.796.898a9.912 9.912 0 011.454 1.133l-1.422 2.17c-.225.343-.513.546-.866.631-.353.075-.738-.01-1.144-.267a14.888 14.888 0 00-1.101-.61 6.401 6.401 0 00-1.058-.416 7.596 7.596 0 00-1.134-.235 10.147 10.147 0 00-1.336-.075c-.92 0-1.753.16-2.49.492a5.15 5.15 0 00-1.882 1.379c-.524.588-.92 1.304-1.198 2.138-.278.834-.417 1.753-.417 2.769 0 1.122.16 2.127.47 3.004.31.876.75 1.614 1.316 2.212a5.751 5.751 0 002.042 1.38c.79.31 1.667.47 2.63.47.587 0 1.133-.054 1.614-.171a7.987 7.987 0 001.4-.47v-3.218h-2.095c-.31 0-.556-.086-.727-.246a.838.838 0 01-.267-.631v-2.694h-.022zm29.559 10.99H59.13c-.428 0-.77-.096-1.037-.3a1.86 1.86 0 01-.599-.77l-1.25-3.698H48.17l-1.24 3.71c-.107.267-.3.513-.577.737a1.64 1.64 0 01-1.027.332H41.48l8.21-21.221h5.046l8.21 21.21zm-7.814-8.104l-1.968-5.804a23.33 23.33 0 01-.47-1.305c-.16-.502-.331-1.037-.492-1.625-.15.588-.299 1.144-.47 1.647-.16.502-.32.94-.47 1.315l-1.935 5.772h5.805zm33.343-13.106v21.22h-4.34V35.568c0-.278.01-.588.021-.92.01-.33.043-.662.075-1.004l-5.634 10.904a1.767 1.767 0 01-.706.77c-.299.17-.63.267-1.015.267H76.2c-.374 0-.716-.086-1.015-.267a1.767 1.767 0 01-.706-.77l-5.634-10.936c.032.352.054.695.075 1.026.022.331.032.641.032.92v12.197h-4.34v-21.2h3.752c.214 0 .396 0 .556.01.16.011.3.043.428.086a1 1 0 01.342.225c.107.107.203.246.3.427l5.483 10.766c.193.374.385.748.556 1.154.182.396.353.802.513 1.219.16-.428.343-.845.514-1.25.181-.407.374-.792.577-1.166l5.441-10.723c.096-.181.193-.331.3-.427a.865.865 0 01.342-.225c.128-.053.267-.075.427-.085.16-.011.342-.011.556-.011h3.774zm9.055 3.785v4.95h6.67v3.645h-6.67v5.056h8.712v3.785H92.58V26.555h13.662v3.784H97.53zm23.465.523c-.15.235-.3.406-.46.524-.16.118-.363.171-.62.171-.224 0-.46-.075-.716-.214-.256-.139-.545-.299-.876-.47a7.244 7.244 0 00-1.112-.47 4.535 4.535 0 00-1.433-.214c-.92 0-1.614.192-2.063.588-.449.395-.673.92-.673 1.593 0 .427.139.78.406 1.058s.63.524 1.069.727c.438.203.951.395 1.518.556.566.17 1.144.363 1.742.566.588.214 1.176.45 1.743.738a5.855 5.855 0 011.518 1.08c.438.438.802.973 1.069 1.593.267.63.406 1.379.406 2.266 0 .984-.17 1.903-.513 2.747a6.468 6.468 0 01-1.475 2.235c-.642.63-1.443 1.133-2.384 1.496-.952.364-2.02.546-3.229.546a10.12 10.12 0 01-2.02-.203 12.492 12.492 0 01-1.989-.578 12.282 12.282 0 01-1.806-.876 7.685 7.685 0 01-1.476-1.134l1.454-2.298c.118-.16.268-.3.46-.417.193-.107.396-.171.62-.171.289 0 .588.096.877.278.3.182.63.385 1.005.61.374.224.801.427 1.293.609.481.181 1.059.278 1.721.278.898 0 1.583-.193 2.085-.588.492-.396.738-1.016.738-1.871 0-.492-.14-.898-.407-1.208-.267-.31-.63-.567-1.069-.77a9.14 9.14 0 00-1.507-.534 75.381 75.381 0 01-1.732-.514 13.307 13.307 0 01-1.732-.694 5.437 5.437 0 01-1.507-1.09 5.077 5.077 0 01-1.07-1.69c-.266-.673-.405-1.507-.405-2.502 0-.79.16-1.571.48-2.33a5.96 5.96 0 011.412-2.02 6.927 6.927 0 012.288-1.422c.898-.353 1.935-.535 3.1-.535.652 0 1.283.054 1.903.15.62.096 1.197.256 1.753.449a9.802 9.802 0 011.55.716c.481.278.909.588 1.294.94l-1.23 2.3z" fill="#FFF"/><g fill="#EC1C24"><path d="M7.815.224c1.464 0 2.715.14 3.741.407 1.027.267 1.871.652 2.523 1.154.652.503 1.123 1.101 1.422 1.807.3.706.45 1.497.45 2.373 0 .481-.065.93-.204 1.38a4.155 4.155 0 01-.641 1.24 4.86 4.86 0 01-1.123 1.058c-.46.32-1.005.598-1.646.834 1.4.342 2.426.887 3.1 1.646.673.759 1.005 1.742 1.005 2.94a6.06 6.06 0 01-.524 2.523 5.794 5.794 0 01-1.54 2.03c-.673.578-1.507 1.027-2.5 1.359-.995.32-2.118.491-3.39.491H.011V.224h7.804zM4.928 3.913V9.15h2.566a8.78 8.78 0 001.475-.118 2.973 2.973 0 001.112-.406c.31-.192.535-.46.695-.802.16-.342.235-.77.235-1.282 0-.503-.064-.92-.192-1.262a1.884 1.884 0 00-.578-.812 2.494 2.494 0 00-.994-.439 6.979 6.979 0 00-1.432-.128H4.928v.01zm3.464 13.822c.652 0 1.187-.085 1.593-.245.417-.16.737-.375.973-.642.235-.267.395-.556.48-.887a3.97 3.97 0 00.129-1.005c0-.385-.053-.738-.15-1.048a1.807 1.807 0 00-.523-.79c-.246-.215-.578-.375-.984-.493-.406-.117-.92-.17-1.54-.17H4.929v5.28h3.464zM90.794.224v21.221h-4.34V9.247c0-.278.01-.588.02-.92.012-.33.044-.662.076-1.004l-5.634 10.904a1.767 1.767 0 01-.706.77c-.3.17-.63.267-1.015.267h-.674c-.374 0-.716-.085-1.015-.267a1.767 1.767 0 01-.706-.77L71.166 7.291c.032.353.054.695.075 1.026.021.332.032.642.032.92v12.197h-4.34V.224h3.752c.214 0 .396 0 .556.011.16.01.3.043.428.086.128.053.235.128.342.224.107.107.203.246.299.428l5.463 10.765c.192.374.385.748.556 1.155.181.395.353.801.513 1.218.16-.427.342-.844.513-1.25.182-.407.374-.792.577-1.166L85.374.973c.096-.182.192-.332.3-.428a.865.865 0 01.341-.224c.128-.054.267-.075.428-.086.16-.01.342-.01.556-.01h3.795zm9.066 21.221h-4.95V.225h4.95zM122.48.224v21.221h-2.566c-.374 0-.694-.064-.951-.182-.257-.117-.513-.331-.77-.63L108.187 7.975c.043.374.064.748.075 1.101.01.353.021.684.021.994v11.375h-4.34V.225h2.587c.214 0 .396.01.535.032.15.021.278.053.395.106.118.054.225.129.332.225.106.096.224.224.363.396l10.092 12.743a15.762 15.762 0 01-.107-1.187 19.636 19.636 0 01-.032-1.08V.235h4.372v-.01zm14.304 10.231h7.547v8.959c-1.09.79-2.245 1.379-3.474 1.732-1.23.363-2.512.534-3.849.534-1.742 0-3.335-.278-4.767-.823-1.433-.545-2.662-1.304-3.678-2.266a10.004 10.004 0 01-2.363-3.432c-.555-1.326-.833-2.769-.833-4.319 0-1.582.267-3.036.79-4.362a9.86 9.86 0 012.246-3.431c.973-.962 2.16-1.71 3.538-2.245 1.38-.535 2.93-.802 4.64-.802.887 0 1.71.075 2.49.214.781.15 1.497.342 2.15.598.652.257 1.25.556 1.795.898a9.912 9.912 0 011.454 1.134l-1.421 2.18c-.225.343-.514.546-.866.631-.353.075-.738-.01-1.144-.267a14.888 14.888 0 00-1.101-.61 6.4 6.4 0 00-1.059-.416 7.596 7.596 0 00-1.133-.235 10.147 10.147 0 00-1.336-.075c-.92 0-1.753.16-2.491.491a5.15 5.15 0 00-1.882 1.38c-.523.587-.919 1.304-1.197 2.138-.278.833-.417 1.753-.417 2.768 0 1.123.16 2.128.47 3.004.31.877.749 1.615 1.315 2.213a5.751 5.751 0 002.042 1.38c.791.31 1.668.47 2.63.47.588 0 1.133-.054 1.614-.171a7.987 7.987 0 001.4-.47v-3.218H137.8c-.31 0-.556-.086-.727-.246a.838.838 0 01-.268-.631v-2.705h-.021zm-77.046 1.433a6.82 6.82 0 01-6.714 5.58h-.15c-.48-.01-.993 0-2.276-.545-1.272-.545-1.55-.866-2.48-1.593-.535-.417-1.305-1.219-2.064-1.892-.748.812-2.448 2.694-2.597 2.844.652.705 2.245 2.095 2.886 2.587l-.096-.086a10.504 10.504 0 006.617 2.448c.535 0 .973-.021 1.443-.075 4.223-.513 7.762-3.517 8.916-7.633l-3.485-1.635z"/><path d="M47.872 6.158a6.782 6.782 0 015.142-2.352c1.603 0 3.11.556 4.308 1.529L55.697 6.5l7.494 3.442-.77-8.21L60.486 3.1A10.51 10.51 0 0053.024.032a10.556 10.556 0 00-8.156 3.849v.01c-.075.097-5.944 7.27-8.36 9.643a6.564 6.564 0 01-.406.364c-.022.02-.054.042-.075.064a18.676 18.676 0 01-.62.524l-.47.374c-.043.032-.086.064-.118.096-.107.085-.214.16-.31.235-.043.032-.086.064-.118.096a.892.892 0 01-.128.086c-.14.096-.278.192-.406.288a.72.72 0 01-.118.075l-.385.257a.94.94 0 01-.107.064c-.117.075-.224.139-.331.203-.043.022-.086.054-.128.075a9.663 9.663 0 01-.3.171c-.705.385-1.293.63-1.785.78-.492.15-.877.225-1.657.225-3.785-.182-6.778-3.453-6.49-7.334.247-3.357 2.994-6.072 6.35-6.296 2.15-.14 4.042.78 5.453 2.16.235.224 2.149 2.287 2.555 2.79.727-.781 2.47-2.834 2.534-2.909-.342-.449-1.786-1.967-1.882-2.073C35.514 1.55 32.552.053 29.228.096 23.7.171 19.082 4.586 18.783 10.102c-.32 5.88 4.17 10.798 9.878 11.183.203.01 1.112.042 1.593-.011.492-.054.93-.16 1.304-.246.599-.139 1.208-.46 1.219-.46.032-.01.064-.032.096-.042.118-.054.246-.107.374-.171.054-.022.118-.054.171-.086.129-.064.268-.128.406-.203.054-.021.097-.054.15-.075.374-.203.78-.428 1.187-.684.053-.032.117-.075.17-.107.15-.096.3-.192.46-.3.065-.042.14-.096.214-.138.15-.107.31-.214.47-.332.065-.053.129-.096.204-.15.16-.117.32-.245.48-.363.044-.032.086-.064.119-.096.032-.021.053-.043.085-.064.235-.182.47-.385.716-.588a2.14 2.14 0 00.171-.15c.182-.16.374-.32.567-.492.085-.074.16-.15.246-.213.032-.032.075-.065.107-.097l.427-.395c.086-.075 2.224-2.17 3.667-3.924 1.443-1.753 3.004-3.848 4.608-5.74z"/></g></g></svg>
