<svg width="200" height="48" xmlns="http://www.w3.org/2000/svg"><g fill="#34F8B4"><path d="M18.286.046c11.611-.64 22.583 8.64 24.183 20.023 1.005 6.491-.503 13.485-4.709 18.605-4.389 5.669-11.337 9.463-18.606 9.28-6.765.366-13.485-2.56-18.011-7.543C.046 39.27.594 37.03 2.194 36.617c1.463-.64 2.423.823 3.337 1.692 4.16 4.022 10.195 5.805 15.863 4.937 5.44-.549 10.332-3.932 13.44-8.32 2.926-4.115 3.932-9.463 3.017-14.4-.731-4.617-3.428-8.777-7.04-11.657-7.04-5.989-18.605-5.623-25.28.822-.914.686-1.554 2.058-2.834 1.875C.87 11.657-.274 9.189.914 7.817 5.303 2.971 11.75 0 18.286.046zm35.337 10.057c-.046-1.554 1.508-2.789 3.017-2.56 1.234.183 2.286 1.234 2.286 2.514a84.94 84.94 0 01-.046 7.634c1.6-1.6 3.703-2.834 6.034-2.834 2.789-.183 5.532 1.28 7.177 3.52 2.606 3.2 3.018 7.772 1.692 11.566-1.28 3.474-4.526 6.628-8.457 6.537-2.469.137-4.755-1.097-6.4-2.834.228 1.6-1.097 3.2-2.743 3.063-1.509.045-2.697-1.418-2.56-2.926v-23.68m9.097 9.188c-4.709 2.058-4.891 9.738-.686 12.435 1.372.777 3.2.548 4.297-.595 2.423-2.24 2.743-6.125 1.418-9.005-.823-1.92-2.88-3.657-5.029-2.835z"/><path d="M12.069 11.109c.457-2.24 4.16-2.012 4.388.228.137 2.697.046 5.349 0 8.046 1.829-.732 3.886-1.189 5.852-.777 4.434.777 7.862 5.165 7.588 9.645.137 4.983-4.388 9.509-9.371 9.463-2.103 0-4.252-.045-6.355-.091-1.508.046-2.788-1.829-2.057-3.2.32-.823 1.189-1.28 2.012-1.326 2.423-.183 4.891-.091 7.314-.274 3.52-.96 4.663-6.034 1.966-8.457-2.697-2.789-6.949-.777-10.24-1.646-1.189-.549-1.372-1.966-1.326-3.109.183-2.788 0-5.668.229-8.502zM83.84 15.45c1.234-.365 2.56-.685 3.794-.365 1.509.457 2.149 2.56 1.052 3.748-.96 1.326-2.835.503-4.023 1.463-3.657 2.514-3.612 8.594 0 11.154 1.234.96 3.291.183 4.16 1.738 1.097 1.462-.229 3.794-2.057 3.611-5.623.091-10.286-5.257-10.195-10.697-.091-4.663 2.88-9.189 7.269-10.652zm16.457-.137c6.446-2.103 13.623 3.612 13.44 10.24.366 5.897-4.937 11.52-10.88 11.155-5.943.091-10.834-5.76-10.286-11.566.229-4.434 3.383-8.594 7.726-9.829m1.372 4.206c-4.892 2.24-4.8 10.743.274 12.709 4.023 1.051 6.72-3.703 6.171-7.178-.091-3.154-3.017-6.811-6.445-5.531zm16.777-4.389c4.068-.822 8 1.966 9.92 5.44 2.148 4.069 1.6 9.555-1.692 12.892-1.965 2.194-4.891 3.611-7.863 3.246-1.782-.275-2.377-2.789-1.142-3.978 1.005-1.051 2.697-.457 3.794-1.28 3.566-2.468 3.703-8.457.228-11.062-1.005-.869-2.468-.549-3.611-1.052-1.554-.868-1.371-3.611.366-4.206zm14.765 2.286c0-1.92 2.469-2.971 3.978-1.966.777.412 1.051 1.235 1.417 1.966 1.508-1.554 3.565-2.651 5.805-2.514 3.84-.137 7.498 3.2 7.543 7.086.046 3.931 0 7.908 0 11.84.183 1.6-1.371 3.108-2.925 2.88-1.235-.046-2.378-1.189-2.378-2.423-.045-3.657 0-7.315 0-11.017.138-2.378-2.194-4.48-4.525-4.16-1.829.182-3.566 1.828-3.566 3.748-.091 3.84.046 7.68-.046 11.52-.137 1.966-2.743 3.109-4.297 1.92-.96-.594-1.051-1.828-1.051-2.88.045-5.394-.046-10.697.045-16zm26.012-.777c3.246-2.651 8.457-2.149 11.246 1.006.091-2.149 2.788-3.383 4.388-1.966 1.006.686 1.052 1.966 1.006 3.063-.046 5.668 0 11.291 0 16.96 0 3.383-2.332 6.308-5.166 7.908-4.754 2.698-11.566 1.28-14.446-3.474-.914-1.737.915-3.886 2.789-3.337 1.463.777 2.103 2.56 3.703 3.246 2.423 1.234 5.577.365 7.131-1.829 1.052-1.234.549-2.926.686-4.388-1.783 1.874-4.343 3.017-6.949 2.742-3.52-.182-6.4-2.971-7.68-6.08-1.965-4.708-.777-10.697 3.292-13.851m5.074 2.88c-4.251 2.331-4.434 9.509-.457 12.206 1.371.914 3.291.594 4.434-.549 2.926-2.788 2.88-8 .046-10.834-.96-1.052-2.651-1.463-4.023-.823zm21.897-4.206c2.56-.731 5.486-.548 7.863.732 3.52 1.92 5.989 5.851 5.714 9.965.183 5.623-4.891 10.88-10.56 10.698-5.668.182-10.697-5.075-10.605-10.698-.183-4.708 3.017-9.325 7.588-10.697m1.829 4.115c-4.8 1.874-5.12 9.645-.914 12.342 1.417.869 3.428.732 4.662-.411 3.2-2.651 3.246-8.091.275-10.926-1.006-1.005-2.606-1.463-4.023-1.005z"/><path d="M14.354 26.194c1.417-1.097 3.749-.091 3.795 1.737.228 1.875-2.332 3.383-3.795 2.058-1.28-.869-1.28-2.926 0-3.795z"/></g></svg>
