<svg width="98" height="47" xmlns="http://www.w3.org/2000/svg" xmlns:xlink="http://www.w3.org/1999/xlink"><defs><path id="a" d="M0 .154h97.153v46.6H0z"/></defs><g fill="none" fill-rule="evenodd"><g transform="translate(0 .113)"><mask id="b" fill="#fff"><use xlink:href="#a"/></mask><path d="M57.146 1.55l-.184-.049c-1.4-.532-2.864-.858-4.277-1.347h1.189c.039.222.222.196.378.22 4.666.719 9.3 1.61 13.877 2.768C73.925 4.608 79.604 6.42 84.974 9.09c3.11 1.547 6.062 3.338 8.538 5.821 1.28 1.284 2.365 2.7 3.026 4.41 1.126 2.914.654 5.629-1.003 8.198-.67 1.041-1.525 1.915-2.405 2.787-2.85 2.823-6.316 4.66-9.893 6.33-3.837 1.79-7.841 3.13-11.908 4.285-3.795 1.076-7.64 1.94-11.517 2.67-3.667.69-7.354 1.248-11.056 1.698-3.442.419-6.894.73-10.353.967-6.547.45-13.1.585-19.658.442A217.987 217.987 0 011.94 45.657c-.71-.07-1.424-.114-1.94-.26 3.75.065 7.687.167 11.625.066 5.02-.13 10.03-.39 15.03-.874 3.78-.366 7.546-.83 11.294-1.439 6.735-1.093 13.384-2.564 19.867-4.716 4.724-1.568 9.316-3.441 13.553-6.091 2.758-1.725 5.3-3.707 7.173-6.423 1.442-2.09 2.217-4.374 1.894-6.95-.251-2.002-1.117-3.74-2.325-5.326a19.646 19.646 0 00-3.468-3.512c-2.686-2.123-5.635-3.816-8.748-5.227-1.11-.504-2.24-.966-3.358-1.45-.168-.072-.33-.156-.52-.145v.003c-1.53-.714-3.128-1.242-4.748-1.705l.002.01c-.02-.063-.065-.082-.126-.069" fill="#FF3721" mask="url(#b)"/></g><path d="M63.603 14.558c.659-.566 1.267-1.187 2.022-1.64 4.882-2.925 11.154-.38 12.589 5.115 1.302 4.985-2.246 10.016-7.401 10.497-3.837.357-7.468-1.9-8.729-5.517-1.011-2.901-.564-5.617 1.288-8.087.087-.117.215-.21.234-.37l-.003.002zm-30.151-3.191l1.786.002c.145.03.289.065.435.09 2.066.35 3.803 1.239 5.033 3.004.225.323.23.476-.128.666-.683.365-1.36.744-2.012 1.161-.357.229-.537.171-.786-.16-.551-.73-1.22-1.334-2.143-1.573l-.043-.026-.049.006c-1.792-.709-4.727.058-6.06 1.584l.002-.003c-.335.196-.571.487-.784.803l-.002.002c-.272.207-.46.48-.6.786-.67.867-1.03 1.862-1.197 2.934-.128.822-.181 1.64.209 2.42v.001c.256.878.79 1.537 1.576 1.997l-.004-.005c.468.375.996.585 1.6.595l.022.016.022-.017c.175.122.38.096.574.1 2.09.052 3.767-.807 5.126-2.345.172-.195.41-.368.452-.71h-.827c-1.238 0-2.477-.006-3.715.006-.324.003-.454-.062-.34-.42.211-.676.41-1.358.568-2.048.088-.38.266-.48.645-.478 2.427.017 4.854.007 7.281.007.563 0 .578.032.442.602-.187.787-.499 1.531-.742 2.299l.002-.002c-.062.096-.134.187-.184.289-1.797 3.682-5.507 6.142-10.092 5.673-1.536-.157-2.906-.688-4.013-1.812-.721-.732-1.18-1.616-1.57-2.546l-.003-.009c0-.049.01-.1-.002-.147-.606-2.275-.202-4.426.797-6.504.562-1.17 1.405-2.129 2.275-3.069l.01-.004c.061.001.093-.028.093-.09l.005-.011a3.8 3.8 0 00.79-.686l.003-.002c.298-.15.55-.363.79-.594l.002-.002c1.463-.92 3.035-1.55 4.756-1.78m-20.632 7.93l.03-.171c.06-.152.133-.3.179-.456.628-2.134 1.254-4.27 1.876-6.405.082-.282.157-.494.544-.491 2.708.017 5.415.007 8.122.01.15.001.348-.065.396.178l-.026.199c-.282.67-.44 1.378-.632 2.075-.098.357-.242.533-.67.524-1.617-.033-3.236-.002-4.853-.023-.371-.005-.517.124-.608.471a33.014 33.014 0 01-.7 2.37c-.16.472-.01.55.432.544 1.568-.022 3.137-.002 4.705-.016.374-.003.56.043.41.49-.217.64-.396 1.293-.554 1.948-.088.362-.247.505-.636.5-1.617-.02-3.235.002-4.852-.019-.357-.005-.522.079-.62.445a66.98 66.98 0 01-1 3.415c-.14.434-.016.493.378.49 1.618-.017 3.236 0 4.853-.016.37-.004.47.118.362.46a86.773 86.773 0 00-.65 2.127c-.069.236-.193.304-.427.303-2.873-.009-5.745-.01-8.617-.013l-.01-.018c.37-1.299.737-2.597 1.111-3.895.483-1.676.97-3.35 1.456-5.026m31.406-7.327l.138-.193 9.112.007c.873 0 .87 0 .641.826-.03.11-.033.227-.048.341l.001-.002c-.217.377-.298.806-.372 1.218-.086.48-.305.611-.767.59-.774-.036-1.552.014-2.326-.019-.419-.017-.61.107-.712.533-.195.816-.463 1.614-.698 2.42l-1.444 4.977-.028.179c-.058.135-.13.267-.171.407-.46 1.549-.925 3.096-1.366 4.65-.07.252-.158.352-.423.347a76.002 76.002 0 00-2.328 0c-.306.005-.4-.067-.301-.401.533-1.785 1.042-3.577 1.559-5.366.479-1.661.956-3.323 1.434-4.984l.014-.158c.358-.746.462-1.572.744-2.342.097-.267-.106-.253-.272-.253h-2.57c-.595 0-.586.002-.418-.595.204-.726.469-1.436.601-2.182" fill="#FF3721"/></g></svg>
