<svg width="122" height="48" xmlns="http://www.w3.org/2000/svg" xmlns:xlink="http://www.w3.org/1999/xlink"><defs><path id="a" d="M0 47.725h121.612V0H0z"/><path id="c" d="M0 47.725h121.612V0H0z"/><path id="e" d="M0 47.725h121.612V0H0z"/></defs><g fill="none" fill-rule="evenodd"><path d="M38.823 3.876v6.7H14.126s-.74-.046-1.19.452c-.424.47-.388 1.117-.388 1.117l-.002.92h26.23v6.555h-26.24l.007.899s.023.662.419 1.012c.547.485 1.05.433 1.05.433h24.811v6.7H10.471s-2.986.222-4.87-1.77c-1.827-1.932-1.773-4.37-1.773-4.37l.005-12.237s-.184-2.702 1.763-4.815c1.565-1.698 4.41-1.606 4.41-1.606l28.817.01zM6.403 47.725c2.326 0 3.18-1.293 3.18-2.533 0-3.218-5.105-2.106-5.105-4.045 0-.813.75-1.369 1.77-1.369.944 0 1.848.31 2.494 1.033l.646-.787c-.723-.763-1.744-1.215-3.049-1.215-1.705 0-2.972.982-2.972 2.403 0 3.076 5.104 1.835 5.104 4.057 0 .672-.49 1.5-2.028 1.5a3.555 3.555 0 01-2.701-1.24l-.646.826c.71.8 1.822 1.37 3.308 1.37m18.244-.156v-7.661h2.738v-.957H20.85v.957h2.726v7.661h1.073zm18.011.156c2.339 0 3.527-1.37 3.527-3.515v-5.258h-1.085v5.245c0 1.577-.853 2.571-2.443 2.571-1.588 0-2.429-.994-2.429-2.57V38.95h-1.085v5.272c0 2.12 1.189 3.502 3.514 3.502m18.826-1.112H59.61v-6.706h1.873c2.132 0 3.308 1.5 3.308 3.36 0 1.848-1.215 3.346-3.308 3.346zm0 .956c2.687 0 4.419-1.847 4.419-4.302 0-2.442-1.731-4.316-4.42-4.316h-2.945v8.618h2.946z" fill="#FFF" fill-rule="nonzero"/><mask id="b" fill="#fff"><use xlink:href="#a"/></mask><path d="M77.919 47.57h1.072v-8.618H77.92v8.617zm17.352-.802c-1.938 0-3.165-1.499-3.165-3.502 0-2.014 1.227-3.501 3.165-3.501 1.926 0 3.179 1.486 3.179 3.502 0 2.002-1.253 3.502-3.179 3.502m0 .955c2.546 0 4.29-1.912 4.29-4.457s-1.744-4.458-4.29-4.458c-2.545 0-4.277 1.913-4.277 4.458s1.732 4.457 4.277 4.457m19.084 0c2.326 0 3.179-1.292 3.179-2.532 0-3.218-5.104-2.106-5.104-4.045 0-.813.75-1.369 1.77-1.369.943 0 1.848.31 2.493 1.033l.647-.787c-.724-.763-1.745-1.215-3.05-1.215-1.705 0-2.971.982-2.971 2.403 0 3.076 5.104 1.835 5.104 4.057 0 .672-.492 1.5-2.029 1.5a3.555 3.555 0 01-2.7-1.24l-.647.826c.711.8 1.822 1.37 3.308 1.37M40.85 3.826h8.662v18.089h26.607v6.748H40.85V3.826zm59.674.144h10.337L96.218 16.077l14.882 12.49h-10.862l-14-11.724-.023 11.724h-8.47V3.97h8.47l-.049 10.289" fill="#FFF" fill-rule="nonzero" mask="url(#b)"/><mask id="d" fill="#fff"><use xlink:href="#c"/></mask><path d="M88.144 20.934l-.019 9.546H78.032l-37.296.097H10.523a6.056 6.056 0 01-.324.008c-1.124 0-3.959-.231-5.988-2.376-2.248-2.376-2.302-5.26-2.297-5.7l.006-12.172c-.028-.617-.038-3.658 2.27-6.162 1.9-2.063 4.871-2.223 5.737-2.223l41.499-.04v18.09h24.407V2.057h12.306l-.04 8.464L99.91 2.057h16.268l-16.97 14.031 17.149 14.393H99.543l-11.399-9.546zm14.052-4.834L121.494.144H99.295l-9.266 6.64.032-6.64H73.919v17.945h-20.58V0L9.925.04C8.864.04 5.21.243 2.78 2.878.068 5.826-.036 9.305.007 10.377L0 22.497c-.006.701.106 4.159 2.82 7.027C5.361 32.208 8.827 32.5 10.2 32.5l32.45-.008v-.001l37.296-.096h10.09l.014-7.368 8.797 7.368h22.766L102.196 16.1z" fill="#FFF" fill-rule="nonzero" mask="url(#d)"/><mask id="f" fill="#fff"><use xlink:href="#e"/></mask><path d="M38.823 3.876v6.7H14.126s-.74-.046-1.19.452c-.424.47-.388 1.117-.388 1.117l-.002.92h26.23v6.555h-26.24l.007.899s.023.662.419 1.012c.547.485 1.05.433 1.05.433h24.811v6.7H10.471s-2.986.222-4.87-1.77c-1.827-1.932-1.773-4.37-1.773-4.37l.005-12.237s-.184-2.702 1.763-4.815c1.565-1.698 4.41-1.606 4.41-1.606l28.817.01zm2.027-.05h8.662v18.089h26.607v6.748H40.85V3.826zm59.674.144h10.337L96.218 16.077l14.882 12.49h-10.862l-14-11.724-.023 11.724h-8.47V3.97h8.47l-.049 10.289" fill="#FFF" fill-rule="nonzero" mask="url(#f)"/></g></svg>
