<svg width="99" height="47" xmlns="http://www.w3.org/2000/svg"><defs><linearGradient x1="49.997%" y1="86.332%" x2="49.997%" y2="1.017%" id="a"><stop stop-color="#2D2E83" offset="0%"/><stop stop-color="#203C8C" offset="3.043%"/><stop stop-color="#00549F" offset="8.742%"/><stop stop-color="#0068B0" offset="15.01%"/><stop stop-color="#0078BF" offset="21.72%"/><stop stop-color="#0085CB" offset="28.98%"/><stop stop-color="#008FD5" offset="36.98%"/><stop stop-color="#0096DB" offset="46.03%"/><stop stop-color="#009BE0" offset="56.73%"/><stop stop-color="#009EE3" offset="70.68%"/><stop stop-color="#009FE3" offset="100%"/></linearGradient><linearGradient x1="49.997%" y1="86.332%" x2="49.997%" y2="1.017%" id="b"><stop stop-color="#211F5D" offset="0%"/><stop stop-color="#192A67" stop-opacity=".93" offset="6.978%"/><stop stop-color="#004C89" stop-opacity=".735" offset="26.48%"/><stop stop-color="#0069A8" stop-opacity=".549" offset="45.05%"/><stop stop-color="#0080C1" stop-opacity=".378" offset="62.2%"/><stop stop-color="#0091D4" stop-opacity=".224" offset="77.6%"/><stop stop-color="#009BE0" stop-opacity=".093" offset="90.72%"/><stop stop-color="#009FE3" stop-opacity="0" offset="100%"/></linearGradient><linearGradient x1="50.004%" y1="6.285%" x2="50.004%" y2="97.115%" id="c"><stop stop-color="#935B00" offset="0%"/><stop stop-color="#A36600" offset="5.57%"/><stop stop-color="#BD7900" offset="16.85%"/><stop stop-color="#D28900" offset="29.01%"/><stop stop-color="#E29500" offset="42.14%"/><stop stop-color="#EE9E00" offset="56.71%"/><stop stop-color="#F5A300" offset="73.86%"/><stop stop-color="#F7A400" offset="100%"/></linearGradient><linearGradient x1="50.004%" y1="6.285%" x2="50.004%" y2="97.115%" id="d"><stop stop-color="#3C0E00" offset="0%"/><stop stop-color="#6E2F00" stop-opacity=".815" offset="18.55%"/><stop stop-color="#9F5400" stop-opacity=".602" offset="39.77%"/><stop stop-color="#C47400" stop-opacity=".407" offset="59.29%"/><stop stop-color="#E08E00" stop-opacity=".235" offset="76.46%"/><stop stop-color="#F19E00" stop-opacity=".094" offset="90.61%"/><stop stop-color="#F7A400" stop-opacity="0" offset="100%"/></linearGradient><linearGradient x1=".014%" y1="49.973%" x2="99.992%" y2="49.973%" id="e"><stop stop-color="#5A0F09" offset="0%"/><stop stop-color="#68110C" offset="3.34%"/><stop stop-color="#831411" offset="11.05%"/><stop stop-color="#9C1413" offset="19.54%"/><stop stop-color="#B11213" offset="28.87%"/><stop stop-color="#C21013" offset="39.38%"/><stop stop-color="#CE0C12" offset="51.72%"/><stop stop-color="#D50A12" offset="67.66%"/><stop stop-color="#D70911" offset="100%"/></linearGradient></defs><g fill="none"><path d="M7.652 14.467l11.02 5.133c-.26-.172-5.5-3.701-7.115-6.494-1.66-2.859-1.539-4.976-.137-7.023 1.407-2.046 4.875-3.336 10.156-2.996 5.28.34 11.09 1.94 15.446 5.865 0 0-3.717-6.606-13.177-8.454C14.385-1.351 7.104 2.376 2.91 6.2 1.798 7.216 1.224 8.18 1.036 9.104c.081 2.819 6.616 5.363 6.616 5.363z" fill="url(#a)" transform="translate(0 .914)"/><path d="M7.652 14.467l11.02 5.133c-.26-.172-5.5-3.701-7.115-6.494-1.66-2.859-1.539-4.976-.137-7.023 1.407-2.046 4.875-3.336 10.156-2.996 5.28.34 11.09 1.94 15.446 5.865 0 0-3.717-6.606-13.177-8.454C14.385-1.351 7.104 2.376 2.91 6.2 1.798 7.216 1.224 8.18 1.036 9.104c.081 2.819 6.616 5.363 6.616 5.363z" fill="url(#b)" transform="translate(0 .914)"/><path d="M11.42 40.028c-1.407-2.046-1.523-4.164.137-7.022 1.66-2.86 7.124-6.5 7.124-6.5L7.652 31.645s-6.54 2.549-6.621 5.362c.188.924.761 1.889 1.874 2.904 4.199 3.824 11.475 7.551 20.935 5.703 9.465-1.843 13.182-8.455 13.182-8.455-4.357 3.92-10.166 5.525-15.446 5.865-5.281.335-8.75-.95-10.156-2.996z" fill="url(#c)" transform="translate(0 .914)"/><path d="M11.42 40.028c-1.407-2.046-1.523-4.164.137-7.022 1.66-2.86 7.124-6.5 7.124-6.5L7.652 31.645s-6.54 2.549-6.621 5.362c.188.924.761 1.889 1.874 2.904 4.199 3.824 11.475 7.551 20.935 5.703 9.465-1.843 13.182-8.455 13.182-8.455-4.357 3.92-10.166 5.525-15.446 5.865-5.281.335-8.75-.95-10.156-2.996z" fill="url(#d)" transform="translate(0 .914)"/><path d="M7.652 31.645l11.03-5.139s3.132-1.676 3.132-3.336c0-.036 0-.076-.005-.112 0-.035.005-.076.005-.111 0-1.66-3.133-3.337-3.133-3.337s-.005-.005-.01-.005L7.652 14.472s-6.535-2.544-6.621-5.357c-.523 2.559 1.899 4.768 3.905 6.657C7.612 18.3 8.8 20.809 8.78 23.063c.02 2.255-1.168 4.763-3.844 7.292-2.001 1.889-4.428 4.103-3.905 6.657.086-2.823 6.621-5.367 6.621-5.367z" fill="url(#e)" transform="translate(0 .914)"/><path d="M31.248 27.451c.297 0 .615-.025.954-.076.34-.05.645-.148.916-.292.356-.187.535-.471.535-.853 0-.17-.047-.33-.14-.483a1.065 1.065 0 00-.344-.356 3.134 3.134 0 01-.757.311 3.55 3.55 0 01-.986.134c-.373 0-.703-.07-.992-.21a1.056 1.056 0 01-.572-.63l3.142-.47c.288-.043.513-.14.674-.293.161-.153.242-.373.242-.661 0-.39-.074-.751-.223-1.082a2.491 2.491 0 00-.623-.852 2.953 2.953 0 00-.954-.56 3.534 3.534 0 00-1.228-.203 3.79 3.79 0 00-1.17.184 2.87 2.87 0 00-1.018.573 2.851 2.851 0 00-.719.992c-.182.403-.273.884-.273 1.444 0 .568.091 1.064.273 1.488.183.424.433.776.75 1.056.319.28.692.49 1.12.63.429.14.893.21 1.393.21zm-1.539-3.88a1.47 1.47 0 01.083-.4 1.054 1.054 0 01.572-.617 1.26 1.26 0 01.528-.102c.314 0 .551.085.713.255.16.17.254.339.28.508l-2.176.357zm10.857 3.779a4.093 4.093 0 00.967-.115v-3.981c0-.747-.258-1.33-.776-1.75-.517-.42-1.255-.63-2.213-.63a5.2 5.2 0 00-1.457.191c-.436.128-.799.293-1.087.497-.17.118-.304.25-.401.394-.098.144-.146.33-.146.56v3.816c0 .212.027.384.082.515a.734.734 0 00.236.312.856.856 0 00.375.153c.148.025.316.038.502.038a4.093 4.093 0 00.967-.115v-4.414a1.26 1.26 0 01.426-.19c.166-.043.333-.064.503-.064.254 0 .456.061.604.184.149.123.223.316.223.579v3.002c0 .212.027.384.082.515a.734.734 0 00.236.312.856.856 0 00.375.153c.148.025.316.038.502.038zm6.037.101c.508 0 .958-.061 1.348-.184.39-.123.708-.265.954-.426.373-.238.56-.556.56-.954v-6.03a1.47 1.47 0 00-.076-.515.69.69 0 00-.23-.312.856.856 0 00-.375-.153 2.992 2.992 0 00-.502-.038c-.195 0-.386.015-.573.045-.186.03-.322.057-.407.083v2.06a1.979 1.979 0 00-.394-.108 2.733 2.733 0 00-.496-.044 4.18 4.18 0 00-1.304.197 2.9 2.9 0 00-1.056.604 2.782 2.782 0 00-.706 1.024c-.17.411-.254.897-.254 1.457 0 .509.078.964.235 1.367.157.403.386.749.687 1.037.301.288.67.509 1.107.661.436.153.93.23 1.482.23zm.012-1.704c-.432 0-.763-.134-.992-.4-.229-.268-.343-.665-.343-1.19 0-.535.123-.933.369-1.196.246-.263.597-.394 1.055-.394.238 0 .441.05.611.152v2.799a.942.942 0 01-.286.159c-.123.047-.261.07-.414.07zm7.754 1.704c.5 0 .954-.072 1.361-.216a2.894 2.894 0 001.05-.636 2.85 2.85 0 00.68-1.037c.161-.41.242-.88.242-1.405 0-.492-.08-.942-.242-1.349a2.923 2.923 0 00-.68-1.036 3.072 3.072 0 00-1.05-.662 3.758 3.758 0 00-1.361-.235c-.5 0-.954.076-1.361.229a2.995 2.995 0 00-1.05.655c-.292.284-.52.63-.68 1.037a3.67 3.67 0 00-.242 1.36c0 .51.08.967.242 1.375.16.407.388.752.68 1.036.293.284.643.503 1.05.655.407.153.86.23 1.36.23zm.013-1.691c-.357 0-.634-.138-.834-.414-.199-.276-.299-.672-.299-1.19 0-.508.098-.9.293-1.176.195-.276.47-.413.827-.413.356 0 .632.137.827.413.195.276.292.668.292 1.177s-.095.903-.286 1.183c-.19.28-.464.42-.82.42zm6.061 1.59a4.093 4.093 0 00.967-.115v-4.338c.11-.05.244-.095.4-.133.158-.038.325-.074.503-.108a5.626 5.626 0 011.094-.102c.051-.093.093-.197.127-.312.034-.114.051-.23.051-.35 0-.356-.118-.612-.356-.77-.237-.156-.56-.235-.967-.235-.246 0-.492.02-.738.058a5.442 5.442 0 00-1.354.394c-.2.089-.367.189-.503.299a1.18 1.18 0 00-.311.375c-.073.14-.109.308-.109.503v3.816c0 .212.028.384.083.515a.734.734 0 00.235.312.856.856 0 00.376.153c.148.025.316.038.502.038zm5.578 2.162c.195 0 .386-.015.573-.044.186-.03.322-.058.407-.083v-2.112c.314.11.653.166 1.018.166.483 0 .922-.068 1.316-.204a2.645 2.645 0 001.012-.617 2.77 2.77 0 00.648-1.024c.153-.407.23-.882.23-1.425 0-.568-.09-1.058-.268-1.469a2.802 2.802 0 00-.738-1.024 3.031 3.031 0 00-1.126-.604 4.9 4.9 0 00-1.418-.197c-.483 0-.92.05-1.31.152s-.717.238-.98.407c-.17.12-.303.25-.4.395-.098.144-.147.33-.147.56v6.106c0 .212.026.383.077.515a.69.69 0 00.229.311.856.856 0 00.375.153c.148.026.316.038.502.038zm1.68-3.778c-.136 0-.263-.017-.382-.05a1.913 1.913 0 01-.33-.128v-2.799a1.73 1.73 0 01.33-.133c.127-.038.271-.057.432-.057.407 0 .72.131.935.394.217.263.325.666.325 1.208 0 1.044-.437 1.565-1.31 1.565zm10.208 1.616a4.093 4.093 0 00.967-.115v-3.854c0-.831-.235-1.457-.706-1.877-.47-.42-1.126-.63-1.965-.63-.272 0-.52.028-.745.083a4.495 4.495 0 00-.502.147v-1.247a1.35 1.35 0 00-.083-.515.734.734 0 00-.235-.312.856.856 0 00-.375-.153 3.438 3.438 0 00-1.056.006l-.414.07v7.379c0 .212.028.384.083.515a.734.734 0 00.235.312.856.856 0 00.376.153c.148.025.316.038.502.038a4.093 4.093 0 00.967-.115v-4.452c.093-.06.216-.11.369-.153.152-.042.314-.063.483-.063.255 0 .469.07.643.21.173.14.26.383.26.73v2.825c0 .212.028.384.083.515a.734.734 0 00.235.312.856.856 0 00.376.153c.148.025.316.038.502.038zm3.925-6.857c.356 0 .642-.11.858-.33.217-.221.325-.493.325-.815 0-.322-.108-.593-.325-.814-.216-.22-.502-.33-.858-.33-.357 0-.643.11-.859.33-.216.22-.324.492-.324.814 0 .322.108.594.324.814.216.22.502.331.859.331zm.114 6.857c.187 0 .371-.015.554-.045.182-.03.32-.053.413-.07v-5.177a1.35 1.35 0 00-.083-.515.734.734 0 00-.235-.312.856.856 0 00-.375-.153 3.438 3.438 0 00-1.056.006l-.414.07v5.178c0 .212.028.384.083.515a.734.734 0 00.235.312.856.856 0 00.376.153c.148.025.316.038.502.038zm7.944 0a4.093 4.093 0 00.967-.115v-3.981c0-.747-.258-1.33-.776-1.75-.517-.42-1.255-.63-2.213-.63a5.2 5.2 0 00-1.457.191c-.437.128-.799.293-1.087.497-.17.118-.304.25-.401.394-.098.144-.146.33-.146.56v3.816c0 .212.027.384.082.515a.734.734 0 00.236.312.856.856 0 00.375.153c.148.025.316.038.502.038a4.093 4.093 0 00.967-.115v-4.414a1.26 1.26 0 01.426-.19c.166-.043.333-.064.503-.064.254 0 .456.061.604.184.148.123.223.316.223.579v3.002c0 .212.027.384.082.515a.734.734 0 00.236.312.856.856 0 00.375.153c.148.025.316.038.502.038zm5.439.101c1 0 1.776-.165 2.328-.496a1.81 1.81 0 00.439-.362.789.789 0 00.184-.54v-2.85c0-.399-.072-.745-.216-1.037a1.923 1.923 0 00-.617-.725 2.803 2.803 0 00-.967-.426 5.223 5.223 0 00-1.253-.14c-.297 0-.613.02-.948.063-.335.043-.625.11-.871.204-.22.093-.384.205-.49.337-.106.131-.159.307-.159.528 0 .17.038.333.115.49.076.156.17.273.28.35.245-.102.521-.187.826-.255a4.33 4.33 0 01.942-.102c.407 0 .718.053.935.16a.545.545 0 01.324.527v.09l-1.666.177c-.73.077-1.268.272-1.616.585-.348.314-.522.764-.522 1.349 0 .348.07.653.21.916.14.263.34.479.598.649.259.17.568.296.929.381.36.085.765.127 1.215.127zm0-1.577c-.314 0-.537-.053-.668-.159a.506.506 0 01-.197-.413.41.41 0 01.229-.382 1.4 1.4 0 01.585-.153l.916-.076v1.018c-.085.05-.214.09-.388.12-.174.03-.333.045-.477.045z" fill="#FFF"/></g></svg>
