<svg width="146" height="47" xmlns="http://www.w3.org/2000/svg" xmlns:xlink="http://www.w3.org/1999/xlink"><defs><path id="a" d="M.16.058h31.088v19.83H.16z"/><path d="M30.749 20.142C6.909 21.977 4.039 11.462.047 2.66 12.9-4.063 29.5 3.027 30.749 20.142z" id="c"/><path d="M.047 17.708C12.9 24.431 29.5 17.341 30.749.223 6.909-1.61 4.039 8.905.047 17.708" id="f"/><path d="M23.04 21.74c-3.814 5.632-10.256 9.016-17.155 9.011-.528 0-1.05-.019-1.563-.057 3.11-4.667 8.095-8.448 18.718-8.953zM.013 2.677C9.187-2.126 20.263.122 26.306 8.022c.107.85.158 1.706.154 2.563a19.76 19.76 0 01-2.572 9.767C6.251 19.822 3.572 10.568 0 2.683l.013.03v-.037z" id="i"/><linearGradient x1="10.463%" y1="47.701%" x2="8.688%" y2="52.943%" id="d"><stop stop-color="#E1E2DF" offset="0%"/><stop stop-color="#A1A19D" offset="100%"/></linearGradient><linearGradient x1="56.14%" y1="10.766%" x2="47.748%" y2="61.258%" id="g"><stop stop-color="#E1E2DF" offset="0%"/><stop stop-color="#A1A19D" offset="100%"/></linearGradient></defs><g fill="none" fill-rule="evenodd"><path d="M36.933.65h15.809l.39 5.23h-.935c-.37-2.149-.417-2.593-1.221-3.45-.804-.858-2.391-.757-3.681-.757h-4.041a.98.98 0 00-.74.26 1.102 1.102 0 00-.25.792v6.673h1.767a2.93 2.93 0 002.301-.998c.596-.665.913-1.685.954-3.062h.962v9.36h-.956c-.046-1.548-.368-2.656-.966-3.326-.599-.669-1.413-1.003-2.443-1.003H42.27v7.505a.794.794 0 00.3.67c.197.155.529.233.995.231h3.192c3.463 0 5.461-1.108 5.99-5.445h1.005l-.348 6.471h-16.47v-1.023h.869c.549 0 .933-.094 1.158-.28a1 1 0 00.335-.814V2.727a.998.998 0 00-.292-.792 1.36 1.36 0 00-.92-.26h-1.15V.65" fill="#E1E2DE"/><path d="M52.418 6.998h7.144v.934c-.855.018-1.402.09-1.638.219a.62.62 0 00-.357.566c.001.208.05.414.14.602l3.465 7.556 3.155-7.327a1.12 1.12 0 00.069-.382c0-.664-.67-1.078-2.01-1.243v-.929h5.412v.938c-.47.027-.923.178-1.312.438a2.295 2.295 0 00-.753.955L60.944 20.18h-.754L55.055 9.026a1.85 1.85 0 00-.67-.84c-.266-.16-1.386-.243-1.951-.254l-.016-.934m20.415.593c-1.042 0-1.898.462-2.568 1.387-.67.924-1.004 2.382-1.002 4.374 0 2.03.333 3.515.998 4.455.665.938 1.523 1.408 2.574 1.408 1.088 0 1.97-.47 2.643-1.408.675-.94 1.012-2.474 1.012-4.604 0-1.977-.332-3.407-.996-4.291a3.165 3.165 0 00-2.661-1.325v.004zm0-.971a5.899 5.899 0 014.43 1.866c1.19 1.243 1.785 2.88 1.785 4.912 0 1.402-.267 2.598-.801 3.586a5.92 5.92 0 01-2.289 2.342 6.27 6.27 0 01-3.194.853 5.672 5.672 0 01-4.305-1.885c-1.176-1.257-1.764-2.887-1.766-4.892-.001-2.005.59-3.64 1.773-4.906a5.751 5.751 0 014.367-1.876z" fill="#E1E2DE"/><path d="M83.402.418v17.496a.734.734 0 00.236.588c.243.185.544.282.85.273h.84V19.8h-6.322v-1.024h.772c.346.027.689-.082.954-.301.22-.227.334-.534.314-.847V3.121a1.226 1.226 0 00-.375-.997 1.897 1.897 0 00-1.27-.438h-1.165V.65l5.166-.232m6.624 6.349v8.485c0 1.04.266 1.842.799 2.406.53.564 1.285.873 2.067.846a3.41 3.41 0 002.653-1.238 4.505 4.505 0 001.094-3.094V9.376a1.204 1.204 0 00-.483-1.02c-.321-.24-.937-.374-1.848-.402v-.958l4.59-.232v10.498c-.028.413.125.818.42 1.115.322.275.743.415 1.17.39h.823v.914l-4.393.096-.28-2.515a9.439 9.439 0 01-2.355 2.043 4.745 4.745 0 01-2.395.682 4.097 4.097 0 01-2.967-1.161c-.809-.766-1.213-2.064-1.213-3.895V9.376a1.249 1.249 0 00-.6-1.122c-.28-.182-.85-.282-1.717-.3v-.958l4.635-.23m13.934-4.988h.932v5.22h7.948v1.258h-7.948v8.206c0 .71.173 1.254.518 1.633.329.371.81.58 1.311.567a1.992 1.992 0 001.619-.862c.446-.573.706-1.52.781-2.843h.935c-.056 1.703-.451 2.967-1.185 3.792a3.656 3.656 0 01-2.86 1.236c-1.08 0-1.923-.292-2.532-.875a2.994 2.994 0 01-.909-2.26V8.257h-2.279v-.958c1.042-.173 1.83-.597 2.364-1.27.804-1.013 1.238-2.43 1.304-4.25" fill="#E1E2DE"/><path d="M113.664.947c.417 0 .816.167 1.103.464.304.285.475.68.473 1.093.004.403-.162.79-.46 1.067a1.586 1.586 0 01-2.21-.022 1.509 1.509 0 01.023-2.165 1.58 1.58 0 011.071-.437zm-3.626 6.051l5.202-.15V17.86a.81.81 0 00.223.643c.226.187.515.284.81.274h.941V19.8h-6.359v-1.023h.842c.326.026.65-.08.893-.294.206-.237.308-.544.286-.855V9.811a1.447 1.447 0 00-.447-1.155c-.297-.26-.74-.39-1.326-.39h-1.074l.01-1.268zm13.742.593c-1.042 0-1.897.462-2.565 1.387-.669.924-1.004 2.382-1.005 4.374 0 2.03.333 3.515.998 4.455.665.938 1.522 1.408 2.572 1.408 1.088 0 1.969-.47 2.643-1.408.674-.94 1.011-2.474 1.011-4.604 0-1.977-.332-3.407-.995-4.291a3.164 3.164 0 00-2.66-1.325v.004zm0-.971a5.897 5.897 0 014.43 1.866c1.19 1.243 1.785 2.88 1.785 4.912 0 1.402-.267 2.598-.801 3.586a5.922 5.922 0 01-2.289 2.338 6.269 6.269 0 01-3.197.857 5.67 5.67 0 01-4.302-1.885c-1.177-1.257-1.766-2.887-1.766-4.892 0-2.005.591-3.64 1.773-4.906a5.751 5.751 0 014.367-1.876z" fill="#E1E2DE"/><path d="M129.727 6.998l4.338-.26c.195.929.326 1.869.39 2.815a6.138 6.138 0 012.073-2.091 5.245 5.245 0 012.699-.698 4.354 4.354 0 012.177.499 3.522 3.522 0 011.408 1.579c.362.757.543 1.584.53 2.419v6.23c0 .466.107.796.32.991.215.196.574.293 1.077.293h.38V19.8h-5.805v-1.024h.116c.615 0 1.043-.095 1.284-.286a1.03 1.03 0 00.364-.862V12.15c0-1.193-.186-2.076-.559-2.65-.52-.82-1.31-1.23-2.37-1.23a3.303 3.303 0 00-2.63 1.242c-.703.828-1.054 1.908-1.054 3.24v4.74c0 .466.11.796.328.991.219.196.58.293 1.08.293h.369V19.8h-5.847v-1.024h.366c.367.025.733-.071 1.038-.273a.83.83 0 00.357-.682V9.553a1.618 1.618 0 00-.446-1.245 1.844 1.844 0 00-1.304-.424h-.67l-.009-.886M59.31 24.013l1.141-2.02h.935l.516 8.06h-.906c-.697-2.318-1.52-3.994-2.467-5.03-1.207-1.312-2.592-1.968-4.153-1.968a5.465 5.465 0 00-3.217.997c-.948.665-1.675 1.662-2.181 2.99-.507 1.328-.76 2.67-.76 5.083 0 2.34.255 3.639.76 4.96.504 1.32 1.205 2.292 2.096 2.915a5.337 5.337 0 003.126.934c1.625 0 2.881-.447 3.768-1.34.888-.894 1.334-2.047 1.34-3.458v-1.899a.795.795 0 00-.355-.697c-.238-.165-.627-.247-1.165-.245h-1.744v-.958h8.109v.958h-.632c-.521 0-.893.089-1.117.267a.93.93 0 00-.334.772v7.715h-.922a79.412 79.412 0 00-1.045-3.457 7.287 7.287 0 01-2.49 2.521c-.99.565-2.12.854-3.266.836a9.359 9.359 0 01-4.833-1.312A9.363 9.363 0 0146 36.94c-.862-1.59-1.29-2.857-1.29-4.862 0-2.006.43-3.28 1.296-4.882a10.04 10.04 0 013.55-3.798c1.502-.94 3.02-1.408 4.555-1.407a7.306 7.306 0 012.502.438 10.56 10.56 0 012.697 1.583m13.844 10.75c-2.363.32-4.037.84-5.02 1.56-.736.545-1.103 1.319-1.101 2.322 0 .701.19 1.25.571 1.647.387.399.93.616 1.491.595a3.87 3.87 0 002.851-1.223 4.192 4.192 0 001.208-3.061v-1.84zm4.858 5.787l.224.376c0 .724-.893.643-1.717.643-.632 0-1.898-.033-2.338-.358-.475-.35-.614-.696-.94-1.542-.884.911-1.66 1.519-2.33 1.824a5.784 5.784 0 01-2.412.457c-1.34 0-2.358-.283-3.056-.847a2.675 2.675 0 01-1.045-2.173c0-1.33.798-2.435 2.393-3.314 1.596-.879 3.718-1.462 6.368-1.75v-1.94a2.272 2.272 0 00-.85-1.775 3.183 3.183 0 00-2.162-.74 4.228 4.228 0 00-2.092.493c-.417.247-.627.487-.627.724.049.24.165.462.335.642.234.276.375.615.404.972.014.375-.133.739-.404 1.004a1.462 1.462 0 01-1.06.389 1.58 1.58 0 01-1.166-.464 1.602 1.602 0 01-.467-1.19c0-.902.521-1.727 1.563-2.473 1.042-.746 2.402-1.12 4.081-1.12 1.552 0 2.738.328 3.557.984a3.017 3.017 0 011.227 2.42v6.998c-.023.423.085.843.31 1.205.165.257.428.438.73.5.49.053.982.07 1.474.055z" fill="#E1E2DE"/><path d="M77.566 28.766l3.74-.232c.195.897.33 1.806.403 2.72.709-.997 1.417-1.7 2.124-2.108a4.585 4.585 0 012.333-.612 3.503 3.503 0 012.232.693c.587.464 1.038 1.217 1.356 2.26a6.984 6.984 0 012.076-2.22 4.516 4.516 0 012.493-.735c1.191 0 2.084.346 2.68 1.038.761.912 1.142 2.087 1.142 3.526v6.342c0 .383.098.643.293.779.338.233.747.344 1.159.315h.654v1.023h-6.575v-1.023h.656c.558 0 .947-.09 1.172-.274a.998.998 0 00.335-.822v-6.354c0-.947-.236-1.681-.71-2.202a2.399 2.399 0 00-1.866-.78 2.861 2.861 0 00-1.585.459 3.08 3.08 0 00-1.117 1.312c-.398.812-.598 1.501-.598 2.067v5.509c-.025.307.087.61.308.829.273.199.61.293.95.267h.892v1.023h-6.669v-1.023h.753c.375.027.748-.07 1.06-.274a.849.849 0 00.349-.698v-5.905c0-1.248-.224-2.154-.67-2.72a2.212 2.212 0 00-1.822-.846c-.985 0-1.744.328-2.275.984a5.013 5.013 0 00-1.13 3.252v5.109c0 .392.089.66.266.807.349.217.76.318 1.172.286h.67v1.024h-6.588v-1.024h.989c.31.02.618-.077.857-.273a.899.899 0 00.3-.698v-8.385c.03-.38-.1-.756-.363-1.039-.242-.227-.726-.373-1.45-.437l.004-.94" fill="#E1E2DE"/><path d="M103.617 22.714c.417 0 .815.167 1.101.464.306.285.478.68.476 1.093a1.45 1.45 0 01-.46 1.065 1.586 1.586 0 01-2.21-.022 1.509 1.509 0 01.023-2.165 1.58 1.58 0 011.07-.437v.002zm-3.087 6.052l4.664-.151v11.013a.806.806 0 00.223.643c.226.187.515.284.81.274h1.478v1.023h-7.977v-1.023h1.923c.326.027.649-.08.893-.293.205-.237.308-.543.285-.853v-8.066a1.45 1.45 0 00-.446-1.155c-.298-.259-.74-.389-1.326-.389h-.534l.007-1.023z" fill="#E1E2DE"/><g transform="translate(107.163 27.119)"><mask id="b" fill="#fff"><use xlink:href="#a"/></mask><path d="M.16 1.647l4.339-.26a20.7 20.7 0 01.39 2.814 6.146 6.146 0 012.072-2.09 5.256 5.256 0 012.7-.698 4.345 4.345 0 012.174.498 3.52 3.52 0 011.41 1.58c.362.756.543 1.583.53 2.418v6.231c0 .465.107.795.321.99.224.197.572.294 1.074.294h.38v1.023H9.745v-1.023h.116c.614 0 1.04-.097 1.284-.287a1.03 1.03 0 00.362-.86v-5.48c0-1.192-.186-2.076-.559-2.65-.522-.82-1.313-1.23-2.373-1.23a3.305 3.305 0 00-2.63 1.245C5.243 4.99 4.892 6.07 4.894 7.4v4.741c0 .466.11.796.328.99.219.195.578.294 1.08.294h.367v1.023H.288v-1.023h.906c.368.024.733-.072 1.039-.273a.833.833 0 00.357-.685V4.201a1.616 1.616 0 00-.447-1.242A1.838 1.838 0 00.84 2.535H.17l-.008-.888m21.621.483a2.648 2.648 0 00-2.05.897c-.538.596-.808 1.432-.81 2.506 0 1.148.27 2.038.81 2.672a2.74 2.74 0 004.122.027c.534-.616.801-1.497.801-2.644 0-1.066-.271-1.909-.815-2.528a2.628 2.628 0 00-2.058-.93zm.824 12.326c-1.712 0-2.932.233-3.662.698-.729.465-1.094 1.025-1.096 1.681a1.657 1.657 0 00.824 1.461c.725.474 1.757.711 3.097.711 1.6 0 2.804-.26 3.612-.778.808-.52 1.213-1.098 1.214-1.737a1.67 1.67 0 00-.377-1.045 2.329 2.329 0 00-1.199-.737 8.705 8.705 0 00-2.413-.254zm2.846-12.094c.93-.92 3.526-2.268 4.358-2.3.563-.023 1.023.071 1.34.362.317.29-.246.947-.246 1.37.011.308-.1.61-.312.84a.973.973 0 01-.733.334c-.53 0-.887-.319-1.073-.956-.074-.273-.2-.409-.378-.409-.317 0-1.92.897-2.293 1.312.338.43.615.9.824 1.402.151.41.227.842.224 1.277a3.798 3.798 0 01-.585 2.098c-.392.605-1.04 1.14-1.947 1.605a5.712 5.712 0 01-2.601.698h-1.52c-1.08 0-1.795.109-2.148.328-.347.215-.55.595-.532.997a.928.928 0 00.434.82c.287.19.83.285 1.632.287l3.444-.068c1.74 0 2.994.285 3.76.855a2.758 2.758 0 011.15 2.342 3.49 3.49 0 01-1.31 2.76c-1.218 1.057-3.036 1.586-5.455 1.586-1.999 0-3.482-.36-4.45-1.08-.762-.565-1.142-1.198-1.142-1.899.016-.572.283-1.11.732-1.476.488-.446 1.307-.779 2.456-.998-.921-.218-1.614-.54-2.079-.964a2.05 2.05 0 01-.696-1.577 2.245 2.245 0 01.564-1.53c.377-.438 1.03-.81 1.96-1.116a4.825 4.825 0 01-1.785-1.55 3.7 3.7 0 01-.599-2.085A3.917 3.917 0 0117.94 2.51c.994-.836 2.287-1.255 3.878-1.255a6.47 6.47 0 011.882.274 6.704 6.704 0 011.754.833z" fill="#E1E2DE" mask="url(#b)"/></g><path d="M137.463 27.263c.417-.001.815.167 1.1.464.307.284.48.68.476 1.093.004.402-.163.788-.46 1.065a1.586 1.586 0 01-2.21-.022 1.51 1.51 0 01.023-2.165 1.58 1.58 0 011.071-.437v.002" fill="#E1E2DE"/><path d="M28.403 37.002c-1.48 0-2.68 1.175-2.68 2.624 0 1.45 1.2 2.624 2.68 2.624 1.48 0 2.679-1.175 2.679-2.624 0-1.45-1.2-2.624-2.68-2.624m0 4.717c-1.178 0-2.134-.936-2.134-2.09 0-1.155.956-2.091 2.135-2.091 1.178 0 2.134.936 2.134 2.09 0 1.155-.956 2.091-2.134 2.091m1.102-2.633a.81.81 0 00-.308-.667c-.24-.193-.486-.193-.855-.195h-.882v2.708h.516v-1.006h.46l.55 1.006h.58l-.616-1.094a.743.743 0 00.547-.743m-1.005.41h-.52v-.843h.236c.185-.02.371-.001.547.057a.38.38 0 01.224.36.424.424 0 01-.485.418" fill="#9A9B97"/><mask id="e" fill="#fff"><use xlink:href="#c"/></mask><path fill="url(#d)" mask="url(#e)" d="M.013 47.007H145.12V.147H.013z"/><g transform="translate(0 21.651)"><mask id="h" fill="#fff"><use xlink:href="#f"/></mask><path d="M.047 17.708C12.9 24.431 29.5 17.341 30.749.223 6.909-1.61 4.039 8.905.047 17.708" fill="url(#g)" mask="url(#h)"/></g><mask id="j" fill="#fff"><use xlink:href="#i"/></mask><path mask="url(#j)" d="M.013 47.007H145.12V.147H.013z"/></g></svg>
