<svg xmlns="http://www.w3.org/2000/svg" width="225" height="48"><g fill="#e2b025"><path d="M52.8.2h33.1c-2.6 6-5.2 11.9-7.8 17.9 4.7.4 9.6 2.2 12.8 5.8 2 2.3 3 5.4 3 8.4.1 4.4-1.6 8.9-4.9 11.8-2.9 2.7-7 3.9-11 3.8-3.3.1-6.7-1.2-9.1-3.6-.9-.8-1.7-1.8-2.4-2.7H52.7v-11h3.5v-7.4h12.9c.1 2.5 0 4.9 0 7.4h4.1V11.1h-4.1v8c-4.3.1-8.6 0-12.9 0v-8h-3.6c.2-3.5.2-7.2.2-10.9z"/><path d="M104.6.3c7.2-.1 14.4 0 21.6-.1v11.1h-13.1c-2.9 0-5.7 1.5-7.5 3.8-1.7 1.9-1.9 4.7-1.7 7.2.3 3.2 2.5 6.1 5.4 7.5 1.5.6 3.1.8 4.7.8 4.1 0 8.2 0 12.3.1v11c-7.1.1-14.3 0-21.4 0-3 0-5.9.1-8.9-.1 2.6-2.9 3.6-6.8 3.9-10.5.3-4.5-.5-9.3-3.4-12.8-2.8-3.6-7.3-5.6-11.7-6.1.9-2.2 1.8-4.4 2.6-6.6h14.4c1-1.8 1.9-3.5 2.8-5.3zM.2 12.1h3.3v7.6h13.2v-7.6H20l-.1 18.5h-3.2V23H3.5v7.6H.2zM23.6 12.1h3.2v18.5h-3.2zM32.7 14.5c1.8-1.7 4.4-2.4 6.9-2.3h10.3l-.1 3.3H39.5c-1.7-.1-3.6.6-4.7 1.9-1.6 1.7-1.9 4.2-1.2 6.4.8 2.2 3 3.6 5.3 3.7h8.9v-4H39v-3h12.1v10.2H39.2c-2.3 0-4.7-.8-6.4-2.5-3.6-3.6-3.8-10.2-.1-13.7zM140.1 12.3c1.2-.1 2.1.8 2.7 1.8 3.3 5.5 6.5 11.1 9.8 16.6h-4.1c-1.1-1.7-2.1-3.4-3.1-5.1h-8.8c.7-1.1 1.3-2.2 2-3.2h4.8c-1.1-1.7-2.1-3.4-3.1-5.1-.3.2-.4.6-.7.8-2.6 4.2-5.1 8.4-7.7 12.6h-4.1c3.2-5.3 6.4-10.7 9.6-16 .6-1.2 1.5-2.3 2.7-2.4zM158.4 14.1c.2-1 .9-2.1 2-2.1s1.7 1.1 2.2 1.9c2 4 4.1 7.9 6 11.8 1.7-3.1 3.2-6.3 4.9-9.5.7-1.3 1.2-2.7 2.1-3.8.6-.8 1.8-.6 2.5 0 .7.7.7 1.7 1 2.5 1.3 5.2 2.5 10.4 3.8 15.6h-3.7c-.9-4.3-1.8-8.5-2.7-12.8-1.8 3.5-6.3 12.1-6.3 12.1-.8 1.2-2.7 1.3-3.3 0-2.2-4-4.3-8-6.3-12.1-.8 3.7-2.6 12.5-2.7 12.8h-3.7c1.6-5.4 2.9-10.9 4.2-16.4zM185.3 12.3h16v3.2h-12.7v11.9h12.7v3.2h-16zM207.1 12.6c1.1-.3 2.2-.2 3.3-.2H223v3.2h-13.8c-.7 0-2.2.6-2.2 1.7-.2 1.1 1 2 2 2h9c1.9 0 3.9.7 5.1 2.2 1.5 2.2 1.4 5.6-.6 7.6-1.2 1.2-2.9 1.6-4.5 1.6h-14.2v-3.2s9-.1 13.6 0c1.4 0 3-.3 3.7-1.7.4-.7.2-1.5-.2-2.1-.6-.9-1.8-1.2-2.8-1.1H209c-1.8 0-3.7-.9-4.7-2.4-.8-1.2-.9-2.7-.6-4 .3-1.9 1.8-3.2 3.4-3.6z"/><path d="M108.8 17.9c1.2-1.8 3.4-2.3 5.4-2.3h12v3.9h-13.1v4.1h10.2v3.1h-8.9c-2.3 0-4.7-1-5.9-3-.8-2-.7-4.2.3-5.8zM189.9 19.7h10.5v3.2h-10.5v-3.2z"/></g></svg>
