<svg xmlns="http://www.w3.org/2000/svg" width="99" height="48"><g fill="#CCC" fill-rule="evenodd"><path d="M0 21.216C2.528 9.328 23.552 0 48.976 0 76.08 0 98.208 10.624 98.208 23.632a12.096 12.096 0 01-.896 4.48c.166-.79.252-1.593.256-2.4C97.6 12.688 75.44 2.08 48.336 2.08 24.416 2.08 4.384 10.336 0 21.232v-.016z"/><path d="M98.816 26.112C96.288 38 75.2 47.344 49.84 47.344 22.736 47.344.608 36.8.608 23.712c0-1.548.304-3.082.896-4.512-.165.795-.25 1.604-.256 2.416 0 13.024 22.128 23.632 49.232 23.632 24 0 43.952-8.256 48.336-19.2v.064z"/><path fill-rule="nonzero" d="M6.944 30.56v-.464h.608c.466.05.933-.076 1.312-.352.347-.471.572-1.02.656-1.6l2.624-11.856c0-.224.08-.416.112-.608s0-.368 0-.528a.912.912 0 00-.112-.752 1.248 1.248 0 00-.784-.192h-.8l.08-.464h8.928l-.096.464h-.56c-.464-.052-.93.08-1.296.368a3.408 3.408 0 00-.64 1.6L14.4 28.128c0 .224-.096.432-.128.624s0 .352 0 .48a.864.864 0 00.24.672c.238.15.52.218.8.192H16l-.08.464H6.944zM30.032 19.424L27.52 29.84c-.231 1-.514 1.989-.848 2.96a6.192 6.192 0 01-.816 1.6 4.96 4.96 0 01-1.792 1.504 5.472 5.472 0 01-2.384.528 3.824 3.824 0 01-2.48-.736 2.56 2.56 0 01-.88-2.08c-.027-.483.12-.96.416-1.344a1.376 1.376 0 012.128 0c.269.371.404.822.384 1.28.021.433-.103.861-.352 1.216a1.008 1.008 0 01-.88.48h-.48c.102.261.295.477.544.608.276.147.583.224.896.224 1.104 0 2.064-1.808 2.896-5.456.144-.656.272-1.168.352-1.6l.336-1.424a8.624 8.624 0 01-1.6 2.512 2.544 2.544 0 01-1.808.784 2.192 2.192 0 01-1.952-1.184 5.312 5.312 0 01-.736-2.96 9.488 9.488 0 01.544-3.2c.346-.98.89-1.88 1.6-2.64a5.504 5.504 0 011.6-1.248 3.712 3.712 0 011.6-.448 1.6 1.6 0 011.44.688c.378.59.562 1.284.528 1.984l.608-2.416 3.648-.048zm-6.4 2.32l-1.6 6.688c-.053.156-.09.317-.112.48a1.2 1.2 0 000 .32.592.592 0 00.128.416.368.368 0 00.32.16c.192 0 .416-.144.688-.432.32-.377.593-.79.816-1.232.537-1.015.956-2.09 1.248-3.2.288-.962.45-1.957.48-2.96a3.808 3.808 0 00-.224-1.408c-.144-.368-.336-.544-.56-.544a.72.72 0 00-.608.416c-.255.4-.444.837-.56 1.296h-.016zM30.576 30.56l2.176-9.104v-.304a1.744 1.744 0 000-.288.624.624 0 00-.08-.384.256.256 0 00-.24-.128c-.208 0-.48.352-.832 1.056a15.712 15.712 0 00-1.008 2.704L30.4 24a12.672 12.672 0 011.6-3.68 2.384 2.384 0 011.92-1.12 1.6 1.6 0 011.424.688c.362.59.535 1.277.496 1.968v.976c0 .4-.08.912-.144 1.52a20.416 20.416 0 011.696-4.224 1.888 1.888 0 011.6-.928c.472-.012.915.225 1.168.624.31.503.456 1.09.416 1.68A3.2 3.2 0 0140 23.216a1.264 1.264 0 01-1.104.656 1.2 1.2 0 01-1.04-.576 3.2 3.2 0 01-.272-2.368c.068-.268.182-.522.336-.752-.352 0-.912.992-1.6 2.992a52.304 52.304 0 00-2.016 7.392h-3.728zM46.4 19.2a4.432 4.432 0 013.424 1.488A5.328 5.328 0 0151.2 24.4a6.528 6.528 0 01-1.728 4.512 5.36 5.36 0 01-4.144 1.936 4.352 4.352 0 01-3.392-1.472 5.504 5.504 0 01-1.328-3.776 6.528 6.528 0 011.68-4.528A5.376 5.376 0 0146.4 19.2zm1.312 2.64c0-.336.112-.56.128-.704a1.504 1.504 0 000-.352 1.216 1.216 0 00-.256-.816.88.88 0 00-.672-.304.928.928 0 00-.784.416c-.26.4-.438.845-.528 1.312L44 28.256a1.6 1.6 0 000 .192 4.144 4.144 0 00-.144.848c-.008.293.082.58.256.816.171.2.426.306.688.288a.976.976 0 00.8-.416c.266-.396.446-.843.528-1.312l1.584-6.832zM53.184 29.168c.224.394.582.694 1.008.848.567.258 1.185.39 1.808.384.5.038.994-.123 1.376-.448.327-.343.495-.807.464-1.28 0-.72-.544-1.376-1.6-2.016l-.88-.512a5.872 5.872 0 01-1.776-1.472 2.8 2.8 0 01-.48-1.6 3.504 3.504 0 011.248-2.768A4.8 4.8 0 0157.6 19.2a4.528 4.528 0 012.816.848 2.496 2.496 0 011.088 2.08c.027.374-.087.745-.32 1.04a1.152 1.152 0 01-.912.368 1.6 1.6 0 01-1.168-.448 1.6 1.6 0 01-.448-1.152c-.025-.362.083-.72.304-1.008a.944.944 0 01.8-.384h.544a1.968 1.968 0 00-.912-.672 3.616 3.616 0 00-1.408-.272 1.84 1.84 0 00-1.328.464 1.6 1.6 0 00-.464 1.248c0 .72.576 1.424 1.712 2.112l.464.272a6.4 6.4 0 011.824 1.6c.355.517.534 1.134.512 1.76a3.44 3.44 0 01-1.216 2.736 5.328 5.328 0 01-6.16.176 2.72 2.72 0 01-1.152-2.224 1.776 1.776 0 01.368-1.184c.26-.288.637-.442 1.024-.416a1.488 1.488 0 011.6 1.6 1.92 1.92 0 01-.32 1.168 1.088 1.088 0 01-.912.416c-.201-.012-.4-.05-.592-.112l-.16-.048zM68.064 19.2a4.432 4.432 0 013.424 1.488 5.328 5.328 0 011.344 3.744 6.528 6.528 0 01-1.728 4.512 5.36 5.36 0 01-4.144 1.936 4.336 4.336 0 01-3.392-1.472 5.504 5.504 0 01-1.312-3.808A6.4 6.4 0 0164 21.04a5.328 5.328 0 014.064-1.84zm1.312 2.64c0-.336.112-.56.128-.704.016-.144 0-.256 0-.352a1.216 1.216 0 00-.256-.816.88.88 0 00-.672-.304.928.928 0 00-.784.416c-.26.4-.438.845-.528 1.312l-1.6 6.864a1.6 1.6 0 000 .192 4.144 4.144 0 00-.144.848c-.016.294.075.584.256.816.164.2.413.313.672.304a.976.976 0 00.8-.416c.26-.4.438-.845.528-1.312l1.6-6.848zM79.12 20.112c-.56 3.376-1.12 6.4-1.6 9.008-.48 2.608-1.088 5.072-1.6 7.312h-4.704l.128-.464a.864.864 0 00.72-.48c.35-.746.614-1.53.784-2.336l3.392-13.04h-1.968l.144-.688H76.4a11.888 11.888 0 012.08-4.192 3.633 3.633 0 012.752-1.424 2.177 2.177 0 011.6.672c.41.431.64 1.004.64 1.6a2 2 0 01-.368 1.264 1.104 1.104 0 01-.928.496 1.216 1.216 0 01-.976-.464 1.888 1.888 0 01-.368-1.2 2.144 2.144 0 01.336-1.232.976.976 0 01.832-.48 1.76 1.76 0 00-.304-.064 1.104 1.104 0 00-.4 0c-.432 0-.8.288-1.072.864a21.76 21.76 0 00-.992 4.288h2.192l-.176.688-2.128-.128z"/><path fill-rule="nonzero" d="M83.504 20.112h-1.728l.16-.688h1.712l1.296-5.44h3.488l-1.296 5.44h1.792l-.16.688h-1.776l-1.92 8.08c0 .235-.032.41-.096.528a1.76 1.76 0 000 .288c-.005.18.04.356.128.512.07.12.198.193.336.192.288 0 .624-.352 1.008-1.024a17.6 17.6 0 001.184-2.896l.256.144a11.008 11.008 0 01-1.6 3.76 2.768 2.768 0 01-2.256 1.152 2.016 2.016 0 01-1.6-.656 2.704 2.704 0 01-.576-1.84c.005-.365.037-.728.096-1.088 0-.416.192-.96.368-1.6l1.184-5.552zM93.312.544c.762.006 1.51.204 2.176.576a4.128 4.128 0 011.6 1.6c.384.679.587 1.444.592 2.224a4.56 4.56 0 01-.592 2.192 3.952 3.952 0 01-1.6 1.6 4.416 4.416 0 01-4.416 0 4.08 4.08 0 01-1.6-1.6 4.384 4.384 0 01-.592-2.192c.003-.782.213-1.55.608-2.224a4.08 4.08 0 011.6-1.6 4.576 4.576 0 012.224-.576zm0 .736a3.792 3.792 0 00-1.824.48 3.36 3.36 0 00-1.376 1.376 3.68 3.68 0 00-.512 1.856c.005.64.176 1.269.496 1.824a3.552 3.552 0 001.376 1.376 3.824 3.824 0 001.84.496 3.76 3.76 0 001.824-.496 3.456 3.456 0 001.376-1.376c.32-.555.49-1.183.496-1.824a3.84 3.84 0 00-.496-1.792 3.488 3.488 0 00-1.392-1.376 3.776 3.776 0 00-1.808-.544zM91.36 7.44v-4.8h1.6a3.76 3.76 0 011.232.144c.49.17.818.633.816 1.152.002.34-.13.668-.368.912-.266.262-.62.416-.992.432.15.054.287.142.4.256.28.282.522.6.72.944l.576.944H94.4l-.416-.768c-.2-.416-.477-.79-.816-1.104a.992.992 0 00-.624-.176h-.448V7.44h-.736zm.768-2.64h.928a1.6 1.6 0 00.928-.192.64.64 0 00.24-.528.64.64 0 00-.112-.384.656.656 0 00-.336-.24 2.048 2.048 0 00-.768-.096h-.88V4.8z"/></g></svg>
