<svg width="256" height="48" xmlns="http://www.w3.org/2000/svg"><defs><linearGradient x1="50.113%" y1="95.442%" x2="50.113%" y2="-44.093%" id="a"><stop stop-opacity="0" offset="0%"/><stop stop-opacity=".5" offset="100%"/></linearGradient><linearGradient x1="49.183%" y1="51.157%" x2="6.873%" y2="6.103%" id="b"><stop stop-opacity="0" offset="0%"/><stop stop-opacity=".5" offset="100%"/></linearGradient><linearGradient x1="39.801%" y1="57.598%" x2="62.002%" y2="11.584%" id="c"><stop stop-opacity="0" offset="0%"/><stop stop-opacity=".5" offset="100%"/></linearGradient><linearGradient x1="50.11%" y1="47.386%" x2="-21.756%" y2="84.693%" id="d"><stop stop-opacity="0" offset="0%"/><stop stop-opacity=".5" offset="100%"/></linearGradient><linearGradient x1="53.024%" y1="47.927%" x2="91.218%" y2="21.497%" id="e"><stop stop-opacity="0" offset="0%"/><stop stop-opacity=".5" offset="100%"/></linearGradient><linearGradient x1="24.62%" y1="49.976%" x2="-20.981%" y2="49.976%" id="f"><stop stop-opacity="0" offset="0%"/><stop stop-opacity=".5" offset="100%"/></linearGradient><linearGradient x1="36.665%" y1="71.815%" x2="115.348%" y2="13.749%" id="g"><stop stop-opacity="0" offset="0%"/><stop stop-opacity=".5" offset="100%"/></linearGradient></defs><g fill="none"><path d="M248.235 43.6a2.012 2.012 0 00-.659.518c-.14.164-.305.494-.305.988 0 .87.54 1.459 1.34 1.459.33 0 .542-.094.754-.33.259-.259.4-.588.54-.917l.377-.847c.212-.518.447-.989.824-1.342.447-.447.965-.635 1.576-.635 1.6 0 2.683 1.2 2.683 2.753 0 .565-.118 1.294-.706 1.882-.424.424-1.012.683-1.553.8l-.259-.94a2.213 2.213 0 001.106-.518c.376-.377.494-.8.494-1.247 0-1.2-.847-1.742-1.718-1.742-.4 0-.729.118-1.011.424-.236.259-.4.588-.612 1.035l-.377.777c-.164.33-.329.776-.729 1.153-.376.376-.776.611-1.412.611-1.34 0-2.235-1.035-2.235-2.447 0-.54.094-.964.4-1.388.235-.353.588-.659.965-.847l.517.8zm-.8-5.906h7.789v.965h-7.789v2.117h-.917v-5.2h.917v2.118zm4.424-5.812c.73 0 1.53 0 2.117-.682.306-.353.495-.965.495-1.435 0-.47-.189-1.083-.495-1.436-.588-.682-1.388-.682-2.117-.682h-5.341v-.965h5.6c.73 0 1.435.07 2.094.542.73.517 1.176 1.435 1.176 2.54 0 1.107-.447 2.024-1.176 2.542-.66.47-1.365.541-2.094.541h-5.6v-.965h5.34zm-5.341-8.917V21.2c0-.87.094-2.118 1.011-3.224.66-.8 1.765-1.482 3.342-1.482 1.835 0 2.8.894 3.34 1.53.683.8 1.013 1.623 1.013 3.176v1.765h-8.706zm7.788-.965v-.847c0-.682-.07-1.647-.777-2.494-.54-.659-1.411-1.177-2.658-1.177-2.095 0-3.46 1.46-3.46 3.67V22h6.895zm-7.788-9.694h8.706v.965h-8.706v-.965zm4.376-3.2c-2.588 0-4.494-2.024-4.494-4.541 0-2.518 1.906-4.541 4.494-4.541s4.494 2 4.494 4.54c0 2.542-1.93 4.542-4.494 4.542zm0-.988c2 0 3.6-1.577 3.6-3.53 0-1.953-1.6-3.53-3.6-3.53s-3.6 1.577-3.6 3.53c0 1.953 1.6 3.53 3.6 3.53z" fill="#FFF"/><path d="M23.976 1.435v45.13H13.553V1.435h10.423zm-13.552-.07v45.2H0v-45.2h10.424zm98.352-.024v27.27S91.506 9.2 89.13 7.012C84.494 2.73 78.682.448 71.647.448c-8.988 0-14.612 3.577-17.67 6.635-4.048 4.047-6.965 10.612-6.965 17.106 0 6.636 2.706 12.706 7.035 16.777 3.388 3.247 9.13 6.635 17.577 6.635 7.576 0 13.247-2.565 17.435-6.635a22.908 22.908 0 006.353-11.177l14.659 16.777h8.847V1.34h-10.142zm-27.27 32.777c-2.165 2.164-5.412 3.858-10 3.858-3.506 0-6.753-.94-9.67-3.717-2.777-2.706-4.118-6.024-4.118-10.141 0-5.012 2.023-8.306 4-10.212 2.423-2.424 5.953-3.859 9.882-3.859 4.118 0 7.718 1.694 9.93 3.859 2.023 2.023 3.929 5.482 3.929 10.141-.024 5.2-2.188 8.377-3.953 10.07z" fill="#F5F5F5"/><path fill="url(#a)" d="M13.553 9.365h10.4v8.094h-10.4z"/><path d="M36.518 28.07a14.264 14.264 0 006.282-3.435c2.918-2.847 3.506-6.353 3.506-9.176 0-5.012-2.024-8.306-3.93-10.141-2.164-2.024-5.74-4-11.505-4H13.459v8h14.47c1.365 0 4.047.023 5.742 1.317.87.683 2.094 2.212 2.094 4.777 0 2.235-.941 3.553-1.694 4.282-1.765 1.765-4.33 1.859-6.212 1.859h-2.4v7.294L37.67 46.494h12.705L36.518 28.071z" fill="#F5F5F5"/><path d="M25.765 29.13s4.753.87 10.917-.871l13.812 18.494H37.812c-.024-.024-12.047-17.624-12.047-17.624z" fill="url(#b)"/><path d="M217.93 21.741v8.518h11.2c-.895 3.365-2.942 5.106-3.271 5.388-1.035.894-3.412 2.447-7.93 2.447-3.482 0-6.494-.894-9.223-3.553-3.412-3.317-4.612-7.459-5.153-10.706.541-3.247 1.741-7.364 5.153-10.706 2.73-2.658 5.741-3.553 9.223-3.553 4.518 0 6.895 1.577 7.93 2.471.306.235 2 1.718 2.965 4.447l8.87-4.306c-1.035-2.188-2.353-4.259-4-5.976C228.612.965 222.824 0 217.435 0c-5.459 0-11.34.894-16.682 6.353a24.376 24.376 0 00-2.33 2.8l-.023-.024v.047l-.047.071c-.659-.988-1.365-1.859-2.141-2.612C191.647 2.188 185.718 0 178.588 0c-9.082 0-14.753 3.624-17.835 6.706-.753.753-1.459 1.718-2.094 2.87l-.094-.164a22.312 22.312 0 00-1.906-2.047c-5.6-5.412-11.953-6.26-17.977-6.26h-14.494v45.53h14.847c3.836 0 11.694-.47 17.977-6.847a22.1 22.1 0 001.412-1.553 28.862 28.862 0 002.329 2.73c3.082 3.082 8.753 6.706 17.835 6.706 7.106 0 13.06-2.189 17.647-6.636a15.804 15.804 0 002.141-2.611c.024.023.024.047.048.07v.047l.023-.023c.8 1.13 1.6 2.07 2.33 2.8 5.34 5.458 11.2 6.353 16.682 6.353 5.412 0 11.13-.965 16.188-6.212 5.059-5.27 6.965-13.67 6.965-19.2v-.494l-22.683-.024zm-65.554 5.153c-.423 1.2-1.67 5.435-4.4 7.718-3.411 2.87-8.211 3.035-10.4 3.035h-2.87V9.86h2.87c3.224 0 7.648.517 11.083 3.93 1.788 1.787 3.388 5.035 4.094 9.811l.212 1.412a27.619 27.619 0 01-.589 1.882zm38.377 4.212c-.635 1.176-1.388 2.165-2.188 2.941-2.26 2.188-5.883 3.906-10.047 3.906-3.977 0-7.53-1.435-9.977-3.906-.494-.47-.965-1.035-1.435-1.67h.023s-2.117-3.036-3.482-8.542c1.365-5.506 3.482-8.54 3.482-8.54h-.023c.47-.66.965-1.2 1.435-1.671 2.47-2.471 6.024-3.906 9.977-3.906 4.164 0 7.788 1.717 10.047 3.906.776.776 1.53 1.764 2.188 2.94a20.432 20.432 0 012.376 5.812c.118.495.236.989.33 1.483-.094.494-.212.988-.33 1.482-.658 2.753-1.788 4.777-2.376 5.765z" fill="#F5F5F5"/><path d="M95.435 29.93L82.471 14.964s6.211 8.235.54 17.34l5.036 9.53c0-.023 5.694-4.282 7.388-11.906z" fill="url(#c)"/><path d="M203.294 22.235c.07.494.141 1.036.235 1.577.542-3.247 1.742-7.365 5.153-10.706 2.73-2.659 5.742-3.553 9.224-3.553 4.518 0 6.894 1.576 7.93 2.47.305.236 2 1.718 2.964 4.448l8.87-4.306c-1.035-2.189-2.352-4.26-4-5.977C228.613.965 222.825 0 217.436 0c-5.459 0-11.34.894-16.682 6.353a24.376 24.376 0 00-2.33 2.8l-.023-.024v.047l-.047.071c2.753 4.094 4.494 9.788 4.941 12.988z" fill="url(#d)"/><path d="M194.424 28.518c-.33-1.553-.612-3.13-.942-4.706-.094.494-.211.988-.33 1.482a20.431 20.431 0 01-2.376 5.812c-.635 1.176-1.388 2.165-2.188 2.941-2.259 2.188-5.882 3.906-10.047 3.906-3.976 0-7.53-1.435-9.976-3.906-.494-.47-.965-1.035-1.436-1.67h.024s-2.118-3.036-3.482-8.542c-.447-1.811-.636-4.847-1.295-7.247l-8.894 10.353c1.577 5.365 4.165 10.894 7.294 14.024 3.083 3.082 8.753 6.706 17.836 6.706 7.106 0 13.059-2.189 17.647-6.636.776-.753 1.482-1.623 2.141-2.611-1.67-2.377-3.082-5.695-3.976-9.906z" fill="url(#e)"/><path d="M217.93 21.741v8.518h11.2c-.895 3.365-2.942 5.106-3.271 5.388-1.035.894-3.412 2.447-7.93 2.447-3.482 0-6.494-.894-9.223-3.553-4-3.906-4.965-8.894-5.388-12.282-.565-3.977-3.083-11.765-7.06-15.624C191.649 2.188 185.719 0 178.589 0c-9.082 0-14.753 3.624-17.835 6.706-.777.776-1.435 1.788-2.118 2.823 0 0 1.27 1.906 2.377 4.824 1.294 3.388 2.376 8.447 2.635 9.482 1.365-5.506 3.482-8.54 3.482-8.54h-.023c.47-.66.965-1.2 1.435-1.671 2.47-2.471 6.024-3.906 9.977-3.906 4.164 0 7.788 1.717 10.047 3.906.776.776 1.53 1.764 2.188 2.94a20.432 20.432 0 012.376 5.812c.495 2.071.824 4.118 1.271 6.165.706 4.306 2.353 7.6 4 9.953v.047l.024-.023c.8 1.13 1.6 2.07 2.329 2.8 5.341 5.458 11.2 6.353 16.682 6.353 5.412 0 11.13-.965 16.189-6.212 5.058-5.27 6.964-13.67 6.964-19.2v-.494l-22.659-.024z" fill="url(#f)"/><path d="M16.847 5.247c-.423 1.2-1.67 5.435-4.4 7.718C9.035 15.835 4.235 16 2.047 16h-.259a32.663 32.663 0 00-1.6 8.965h3.318c3.835 0 11.694-.47 17.976-6.847a22.1 22.1 0 001.412-1.553c-2.73-3.694-4.588-8.306-5.435-13.247a34.07 34.07 0 01-.612 1.93z" fill="url(#g)" transform="translate(135.53 21.647)"/><path d="M217.93 21.741v8.518h11.2c-.895 3.365-2.942 5.106-3.271 5.388-1.035.894-3.412 2.447-7.93 2.447-3.482 0-6.494-.894-9.223-3.553-3.412-3.317-4.612-7.459-5.153-10.706-.094.565-.165 1.083-.235 1.577-.447 3.223-2.189 8.894-4.918 12.988.024.024.024.047.047.07v.048l.024-.024c.8 1.13 1.6 2.07 2.329 2.8 5.341 5.459 11.2 6.353 16.682 6.353 5.412 0 11.13-.965 16.189-6.212 5.058-5.247 6.964-13.67 6.964-19.2v-.494H217.93z" fill="#F5F5F5"/></g></svg>
