<svg width="179" height="47" xmlns="http://www.w3.org/2000/svg" xmlns:xlink="http://www.w3.org/1999/xlink"><defs><path id="a" d="M.067.7h9.02v9.586H.067z"/><path id="c" d="M.275.162H48.45v27.693H.275z"/></defs><g fill="none" fill-rule="evenodd"><g transform="translate(31.5 36.735)"><mask id="b" fill="#fff"><use xlink:href="#a"/></mask><path d="M.067 5.527v-.026C.062 2.865 2.154.705 5.019.7c1.703-.003 2.731.445 3.72 1.264l-1.31 1.552c-.73-.595-1.38-.938-2.474-.937-1.514.002-2.715 1.315-2.712 2.89v.028c.002 1.694 1.194 2.937 2.87 2.934.756-.001 1.432-.188 1.959-.559l-.003-1.324-2.094.003-.003-1.76 4.109-.007.006 4.025c-.972.81-2.308 1.473-4.038 1.476C2.102 10.29.071 8.268.067 5.527" fill="#FFFFFE" mask="url(#b)"/></g><path d="M59.642 42.947l-1.261-3.003-1.253 3.007 2.514-.004zm-2.198-5.451l1.918-.003 4.07 9.328-2.175.003-.868-2.077-4.001.006-.862 2.08-2.122.003 4.04-9.34zm19.06.037l2.243-.003 2.493 3.915 2.481-3.923 2.243-.003.015 9.268-2.067.003-.01-6.051-2.657 3.963h-.054l-2.641-3.915.009 6.01-2.04.004-.015-9.268m23.452-.036l2.08-.003.016 9.269-2.082.002-.014-9.268m16.071-.024l1.92-.003 4.442 5.7-.01-5.706 2.055-.003.015 9.267-1.772.003-4.59-5.885.01 5.892-2.055.002-.015-9.267m21.892 4.627v-.026c-.005-2.635 2.087-4.796 4.952-4.8 1.703-.003 2.731.445 3.719 1.265l-1.309 1.551c-.73-.595-1.38-.938-2.475-.937-1.513.003-2.714 1.315-2.711 2.891v.027c.002 1.694 1.194 2.936 2.87 2.934.757-.001 1.432-.187 1.958-.559l-.002-1.324-2.095.003-.002-1.76 4.108-.006.007 4.025c-.972.808-2.309 1.472-4.04 1.475-2.945.004-4.976-2.018-4.98-4.759M.041 27.295L0 1.064l6.96-.01 12.883 16.018-.026-16.038 6.926-.01.041 26.23-6.925.011L6.976 11.247l.026 16.038-6.962.01M46.889 6.768l-8.276.012.008 4.384 7.813-.012.009 5.775-7.813.012.007 4.523 8.275-.013.009 5.776-15.236.023-.042-26.232L46.88.993l.01 5.775" fill="#FFFFFE"/><g transform="translate(79.5)"><mask id="d" fill="#fff"><use xlink:href="#c"/></mask><path fill="#FFFFFE" mask="url(#d)" d="M12.962 6.7l.033 20.457-6.961.01-.032-20.456-5.718.009L.274.945 18.671.917l.01 5.775-5.719.008m21.674 5.743l13.815-.02a36.917 36.917 0 01-.172 3.791 13.241 13.241 0 01-.705 3.167c-.495 1.37-1.168 2.583-2.019 3.64a11.761 11.761 0 01-2.996 2.648 14.267 14.267 0 01-3.78 1.623 16.54 16.54 0 01-4.332.563c-2.084.003-3.985-.33-5.703-1-1.717-.67-3.192-1.612-4.425-2.829-1.233-1.216-2.195-2.675-2.884-4.379-.69-1.704-1.036-3.587-1.039-5.652-.003-2.04.331-3.914 1.004-5.62.672-1.705 1.628-3.162 2.87-4.37 1.24-1.208 2.736-2.15 4.487-2.825C30.51.505 32.461.165 34.617.162 37.41.158 39.86.745 41.97 1.925c2.108 1.18 3.78 3.01 5.016 5.49l-6.602 2.688c-.618-1.437-1.419-2.467-2.402-3.093-.984-.624-2.103-.936-3.358-.933-1.042 0-1.988.194-2.84.578a6.141 6.141 0 00-2.182 1.638c-.602.708-1.075 1.561-1.416 2.56-.342.997-.511 2.11-.51 3.34.002 1.114.152 2.145.45 3.095.297.952.741 1.774 1.335 2.469a5.99 5.99 0 002.204 1.614c.876.382 1.895.57 3.055.57a8.676 8.676 0 001.989-.23 5.302 5.302 0 001.721-.733 4.197 4.197 0 001.259-1.307c.33-.533.554-1.183.672-1.949l-5.718.01-.008-5.29"/></g><path fill="#FFFFFE" d="M146.87 6.618l-8.275.013.007 4.383 7.814-.012.009 5.775-7.814.012.008 4.523 8.275-.012.01 5.775-15.237.023-.041-26.232 15.236-.023.008 5.775m5.04 20.449L151.868.835l6.962-.01 12.881 16.019-.026-16.039 6.926-.01.041 26.231-6.924.01-12.883-16.018.026 16.039-6.96.01"/><path d="M69.403 14.608l9 12.57-8.536.013-4.436-7.055m-6.513-8.873L51.79.84l8.642-.013 2.581 4.815M58.161 27.21l-8.465.012L68.585.815l8.641-.013-19.064 26.407" fill="#DF182B"/></g></svg>
