<svg width="179" height="48" xmlns="http://www.w3.org/2000/svg"><g fill-rule="nonzero" fill="none"><path d="M0 13.845h5.98V28.64H0V13.845zm16.91 0h5.98V28.64h-5.98V13.845zm62.412 9.452v5.344H61.937V13.845h5.98v9.452h11.405zm6.812-9.452h5.98V28.64h-5.98V13.845zm13.187 0h5.98V28.64h-5.98V13.845zm18.455 0h5.98V28.64h-5.98V13.845zm18.454 0h5.98V28.64h-5.98V13.845zm12.079 0h5.98V28.64h-5.98V13.845zm0-13.401h5.98v11.845h-5.98V.444zm-62.175 0h5.98v11.845h-5.98V.444zm-24.197 0h5.98v11.845h-5.98V.444zM179 .444v6.062h-6.099v5.783h-6.02V6.506h-6.098V.444H179zm-12.118 13.4h5.98v14.797h-5.98V13.845zM34.018 12.29c.317-3.47 3.247-6.182 6.732-6.182h2.574c3.525 0 6.416 2.712 6.733 6.182h5.94C55.64 5.51 50.097.125 43.285.125H40.71c-6.812 0-12.356 5.384-12.713 12.164h6.02zm16.157 1.556v2.353c0 3.749-3.049 6.82-6.771 6.82h-2.575c-3.722 0-6.771-3.071-6.771-6.82v-2.353h-5.94v2.353C28.117 23.257 33.82 29 40.828 29h2.575c7.01 0 12.712-5.743 12.712-12.802v-2.353h-5.94zM22.89 12.289h-5.94c0-1.555-.476-2.712-1.505-3.67C13.227 6.587 8.95 6.068 5.98 5.989v6.301H.04V.404l2.693-.28C3.88.006 13.94-.831 19.484 4.194c2.218 2.074 3.406 4.866 3.406 8.096zm119.28 0h-5.94c0-3.47-2.812-6.301-6.257-6.301s-6.257 2.831-6.257 6.301h-5.94c0-3.47-2.812-6.301-6.257-6.301-3.446 0-6.257 2.831-6.257 6.301h-5.94c0-6.78 5.464-12.284 12.197-12.284 3.683 0 6.97 1.635 9.227 4.268 2.257-2.593 5.544-4.268 9.227-4.268 6.732 0 12.197 5.504 12.197 12.284z" fill="#FFFE00"/><path d="M39 43.06v-.12c0-2.916 1.796-4.94 4.272-4.94 1.397 0 2.195.445 2.914 1.134l-.759 1.295c-.638-.567-1.277-.931-2.155-.931-1.517 0-2.635 1.336-2.635 3.441v.122c0 2.105 1.118 3.441 2.635 3.441.918 0 1.517-.364 2.195-.972l.759 1.174c-.799.81-1.677 1.296-3.074 1.296C40.796 48 39 46.016 39 43.06zm33.294-4.939h1.597v9.717h-1.597v-9.717zm30.22 1.498H100v-1.498h6.627v1.498h-2.515v8.22h-1.597v-8.22zm32.695 4.332l-3.233-5.83h1.796l2.236 4.17 2.235-4.17H140l-3.194 5.83v3.887h-1.597v-3.887z" fill="#FFF"/></g></svg>
