<svg width="125" height="47" xmlns="http://www.w3.org/2000/svg"><defs><linearGradient x1="50%" y1="100.011%" x2="50%" y2="-12.862%" id="a"><stop stop-color="#4D4948" offset="0%"/><stop stop-color="#9D9B9D" offset="100%"/></linearGradient><linearGradient x1="49.991%" y1="111.813%" x2="49.991%" y2=".014%" id="b"><stop stop-color="#192C1B" offset="0%"/><stop stop-color="#008D39" offset="100%"/></linearGradient><linearGradient x1="50%" y1="111.847%" x2="50%" y2=".002%" id="c"><stop stop-color="#FFF" stop-opacity="0" offset="0%"/><stop stop-color="#FFF" stop-opacity=".3" offset="100%"/></linearGradient><linearGradient x1="49.991%" y1="111.731%" x2="49.991%" y2="-.068%" id="d"><stop stop-color="#FFF" stop-opacity="0" offset="0%"/><stop stop-color="#FFF" stop-opacity=".3" offset="100%"/></linearGradient><linearGradient x1="11.709%" y1="81.014%" x2="88.291%" y2="19.351%" id="e"><stop stop-color="#192C1B" offset="0%"/><stop stop-color="#008D39" offset="100%"/></linearGradient></defs><g fill="none"><path d="M39.787 5.662c-.053-.052-.141-.121-.318-.277l-.265-.207-6.268 8.89h1.042l-6.816 9.22 7.134 9.946c-1.89 0-4.256 0-4.856-.018l-4.733-6.555-4.89 6.573h-1.29l-6.94 9.98.23.173c2.932 2.11 8.229 3.598 12.855 3.598 13.12 0 23.785-10.448 23.785-23.3 0-6.763-3.16-13.336-8.67-18.023z" fill="url(#a)"/><path d="M37.315 3.95C34.278 1.77 28.592.11 24.089.11 10.97.11.305 10.556.305 23.408c0 6.78 3.16 13.353 8.687 18.04.053.053.141.122.318.278l.265.207 6.268-8.89h-1.041l6.815-9.22-7.133-9.946c1.89 0 4.255 0 4.856.017l4.732 6.556 4.89-6.573h1.272l7.328-9.721-.247-.208z" fill="url(#b)"/><path d="M34.101 13.619h.76l-7.081 9.6a.154.154 0 000 .173L35.16 33.7h-.3c-4.59 0-5.58 0-5.703-.035l-.035-.052-4.326-5.985c-.036-.034-.07-.069-.124-.069-.053 0-.088.017-.123.07l-4.52 6.088h-1.201c-.053 0-.106.017-.124.07l-6.41 9.236c-.053.07-.035.156.036.207 2.93 1.99 7.892 3.339 12.342 3.339 12.855 0 23.326-10.24 23.326-22.85 0-6.642-3.108-13.111-8.529-17.712l-.035-.035c-.035-.017-.07-.034-.106-.034h-.018c-.035 0-.088.034-.106.069l-5.226 7.403a.165.165 0 00-.018.156c.035.017.07.052.141.052m0-.156l5.227-7.403.035.034c5.386 4.584 8.494 11.001 8.494 17.609 0 12.506-10.4 22.694-23.167 22.694-4.397 0-9.376-1.35-12.255-3.304l6.41-9.237h1.272l4.573-6.14 4.326 6.002.07.07c.089.068.089.068 5.792.068h.583l-7.558-10.55 7.258-9.843H34.1zM9.434 41.208h.017c.036 0 .089-.035.106-.07l5.227-7.403a.165.165 0 00.018-.155c-.036-.052-.071-.087-.142-.087h-.759l7.08-9.6a.154.154 0 000-.173l-7.38-10.309h.3c4.591 0 5.58 0 5.703.035l.036.052 4.326 5.984c.035.035.07.07.123.07.053 0 .089-.018.124-.07l4.52-6.088h1.201c.053 0 .088-.018.124-.07l6.78-8.994a.246.246 0 00.036-.121c0-.052-.036-.07-.071-.104C33.8 2.065 28.327.542 24.089.542 11.235.542.764 10.782.764 23.392c0 6.642 3.108 13.11 8.528 17.712l.036.034c.035.052.07.07.106.07m0-.156l-.036-.035C4.013 36.434.923 30.017.923 23.41.923 10.903 11.323.715 24.089.715c4.203 0 9.66 1.54 12.626 3.546l-6.78 8.994h-1.272l-4.574 6.14-4.326-6.001-.07-.07c-.089-.069-.089-.069-5.792-.069h-.583l7.558 10.552-7.257 9.842h1.059l-5.244 7.403z" fill="#1D1D1B" opacity=".2"/><path d="M39.624 5.518c-.053-.052-.142-.121-.318-.277l-.265-.208-6.269 8.891h1.042l-6.816 9.22 7.134 9.946c-1.89 0-4.255 0-4.856-.018l-4.732-6.555-4.891 6.573h-1.29l-6.939 9.98.23.173c2.931 2.11 8.228 3.598 12.855 3.598 13.12 0 23.784-10.448 23.784-23.3 0-6.763-3.16-13.336-8.67-18.023z" fill="url(#c)" transform="translate(.163 .144)"/><path d="M14.638 32.9l6.816-9.22-7.134-9.946c1.89 0 4.256 0 4.856.017l4.732 6.556 4.891-6.573h1.272l7.328-9.721-.247-.173C34.114 1.66 28.429 0 23.926 0 10.806 0 .141 10.448.141 23.3c0 6.78 3.161 13.353 8.688 18.04.053.052.141.121.318.277l.264.208 6.269-8.891-1.042-.035z" fill="url(#d)" transform="translate(.163 .144)"/><path d="M13.089 31.954h-5.21V17.649c0-1.038-.564-1.557-1.712-1.557H5.055v-1.99h4.15c2.577 0 3.884 1.298 3.884 3.91v13.942zm32.437.017H34.56v-4.618c0-.969.583-1.972 1.748-3.01l3.232-2.456c1.236-1.004 1.854-1.782 1.854-2.3v-2.111c0-.744-.477-1.124-1.413-1.124-.812 0-1.218.346-1.218 1.072l-.018 1.591-4.167 2.975-.018-3.494c0-2.854 1.82-4.29 5.439-4.29 3.69 0 5.527 1.108 5.527 3.322v2.629c0 .9-.583 1.85-1.766 2.82l-3.231 2.421c-1.166.986-1.748 1.937-1.748 2.837l.017 1.262 6.71.018.018 2.456z" fill="#000" opacity=".25"/><path d="M12.93 31.798H7.72V17.493c0-1.038-.564-1.557-1.712-1.557H4.896v-1.989h4.15c2.577 0 3.884 1.298 3.884 3.91v13.941zm32.437.017H34.4v-4.618c0-.969.583-1.972 1.749-3.01l3.23-2.456c1.237-1.003 1.855-1.782 1.855-2.3v-2.11c0-.745-.477-1.125-1.413-1.125-.812 0-1.218.346-1.218 1.072l-.018 1.592-4.167 2.975-.018-3.494c0-2.854 1.82-4.29 5.439-4.29 3.69 0 5.527 1.107 5.527 3.321v2.63c0 .899-.583 1.85-1.766 2.819l-3.231 2.421c-1.166.986-1.748 1.938-1.748 2.837l.017 1.263 6.71.017.018 2.456z" fill="#FFF"/><path d="M60.782 16.334c-.724-1.003-1.801-1.505-3.231-1.505-3.214 0-5.545 2.664-5.545 6.314 0 3.425 2.154 5.83 5.21 5.83 1.306 0 2.489-.485 3.195-1.35v.484c0 2.595-1.907 2.975-3.02 2.975-1.394 0-2.683-.45-3.425-.865l-.141-.069-.795 3.01.07.035c1.06.57 2.685.899 4.362.899 2.12 0 3.797-.502 4.944-1.47 1.272-1.09 1.89-2.802 1.89-5.362v-6.521c0-1.73.035-2.716.088-3.512v-.138h-3.46l-.142 1.245zM58.31 24.05c-1.377 0-2.313-1.211-2.313-3.01 0-1.92.936-3.217 2.33-3.217.936 0 1.678.553 1.943 1.522.053.208.123.432.123.64v1.73c0 .398-.088.726-.158.951-.248.813-1.042 1.384-1.925 1.384zm17.092.052V20c0-3.407-1.871-5.206-5.368-5.206-2.56 0-4.255.813-4.714 1.072l-.088.052.741 2.577.124-.086c.706-.432 2.03-.865 3.302-.865 1.713 0 2.119.778 2.119 1.418v.035c-4.591.035-7.081 1.66-7.081 4.601 0 1.799 1.377 3.719 3.955 3.719 1.413 0 2.614-.432 3.408-1.315l.194 1.16h3.603l-.018-.19c-.124-.572-.177-1.592-.177-2.872zm-5.756.415c-.848 0-1.36-.484-1.36-1.28 0-1.124 1.113-1.713 3.232-1.73v1.16c0 .207-.018.414-.053.587-.247.727-1.007 1.263-1.819 1.263zm25.003-4.497v7.126h-3.885v-6.59c0-1.713-.547-2.577-1.642-2.577-1.06 0-1.465.83-1.607 1.193-.07.26-.105.605-.105.9v7.074h-3.885V20.33c0-.882-.212-2.352-1.625-2.352-.865 0-1.395.64-1.606 1.228-.124.294-.124.64-.124.9v7.056h-3.885v-8.199c0-1.418-.053-2.663-.106-3.753l-.017-.138h3.39l.141 1.487c.618-.83 1.713-1.73 3.602-1.73 1.519 0 2.755.727 3.32 1.938.459-.588.953-1.038 1.518-1.35a4.775 4.775 0 012.349-.588c2.596-.017 4.167 1.92 4.167 5.19zm.883-4.982h3.885v12.108h-3.885V15.037zm4.044-3.096c0 1.141-.866 1.937-2.12 1.937-1.182 0-2.048-.813-2.048-1.937 0-1.125.883-1.938 2.102-1.938 1.2 0 2.03.779 2.066 1.938zM111.954 20v7.144h-3.885v-6.711c0-1.609-.618-2.44-1.801-2.44-1.166 0-1.66.9-1.819 1.298-.07.19-.088.467-.088.865v6.988H100.3v-8.199c0-1.418-.018-2.664-.071-3.753l.018-.139h3.46l.16 1.54c.423-.571 1.553-1.747 3.69-1.747 2.754-.018 4.397 1.92 4.397 5.154zm9.146-4.964l-.106 1.28c-.724-1.003-1.8-1.505-3.231-1.505-3.214 0-5.545 2.664-5.545 6.314 0 3.424 2.172 5.829 5.21 5.829 1.306 0 2.49-.485 3.195-1.35v.485c0 2.594-1.907 2.975-3.02 2.975-1.394 0-2.7-.45-3.442-.865l-.142-.069-.794 3.01.07.034c1.06.571 2.684.9 4.362.9 2.119 0 3.796-.502 4.944-1.47 1.271-1.09 1.89-2.803 1.89-5.363v-6.52c0-1.73.017-2.716.07-3.512l-.018-.138H121.1v-.035zm-2.596 9.012c-1.377 0-2.313-1.211-2.313-3.01 0-1.92.936-3.217 2.331-3.217.936 0 1.59.553 1.872 1.522.053.208.035.432.035.64v1.73c0 .398 0 .726-.088.951a1.886 1.886 0 01-1.837 1.384z" fill="#000" opacity=".5"/><path d="M60.57 15.971c-.724-1.003-1.801-1.522-3.231-1.522-3.214 0-5.545 2.646-5.545 6.296 0 3.425 2.172 5.83 5.227 5.83 1.306 0 2.507-.485 3.214-1.35v.484c0 2.595-1.925 2.975-3.038 2.975-1.395 0-2.701-.45-3.443-.864l-.141-.07-.795 3.01.071.035c1.06.57 2.684.9 4.361.9 2.12 0 3.814-.502 4.962-1.471 1.271-1.09 1.907-2.802 1.907-5.362V18.34c0-1.73.018-2.716.053-3.512l-.035-.12h-3.461l-.106 1.262zm-2.49 7.697c-1.377 0-2.313-1.21-2.313-3.01 0-1.92.936-3.217 2.33-3.217.937 0 1.696.554 1.96 1.522.054.208.142.433.142.64v1.73c0 .398-.106.727-.194.952-.212.83-1.042 1.383-1.925 1.383zm17.146.07v-4.1c0-3.408-1.89-5.206-5.403-5.206-2.56 0-4.274.813-4.733 1.072l-.088.052.742 2.577.123-.086c.707-.433 2.066-.865 3.32-.865 1.713 0 2.136.778 2.136 1.418v.035c-4.59.034-7.098 1.66-7.098 4.6 0 1.8 1.36 3.72 3.955 3.72 1.413 0 2.596-.415 3.408-1.298l.195 1.177h3.602l.017-.208c-.14-.588-.176-1.626-.176-2.889zm-5.792.415c-.847 0-1.342-.485-1.342-1.28 0-1.125 1.148-1.713 3.267-1.73v1.159c0 .207-.036.415-.089.588-.247.726-1.024 1.263-1.836 1.263zm25.039-4.498v7.161h-3.885v-6.624c0-1.713-.565-2.578-1.66-2.578-1.06 0-1.483.83-1.624 1.194-.071.26-.071.605-.071.9v7.108h-3.885v-6.85c0-.881-.23-2.352-1.642-2.352-.865 0-1.395.64-1.624 1.228-.124.294-.089.64-.089.9v7.092H76.11V18.6c0-1.418-.089-2.646-.124-3.753l-.035-.121h3.39l.141 1.47c.618-.83 1.713-1.747 3.602-1.747 1.519 0 2.755.726 3.338 1.937.459-.588.97-1.038 1.518-1.349a4.842 4.842 0 012.366-.588c2.578-.017 4.168 1.937 4.168 5.206zm.882-4.964h3.885v12.108h-3.885V14.691zm16.422 4.93v7.178h-3.885v-6.746c0-1.608-.635-2.439-1.8-2.439-1.166 0-1.66.9-1.82 1.298-.07.19-.07.467-.07.864v7.006h-4.061v-8.234c0-1.418-.036-2.646-.089-3.753v-.121h3.461l.16 1.522c.423-.57 1.57-1.764 3.69-1.764 2.754.034 4.414 1.954 4.414 5.189zm9.094-4.93l-.106 1.263c-.724-1.004-1.801-1.522-3.232-1.522-3.213 0-5.544 2.646-5.544 6.296 0 3.425 2.19 5.829 5.244 5.829 1.307 0 2.508-.484 3.214-1.35v.485c0 2.595-1.925 2.975-3.055 2.975-1.395 0-2.702-.45-3.443-.865l-.141-.069-.795 3.01.07.034c1.06.571 2.685.9 4.362.9 2.119 0 3.832-.502 4.962-1.47 1.271-1.09 1.924-2.803 1.924-5.362v-6.522c0-1.73 0-2.715.053-3.51l-.035-.122h-3.478zm-2.578 8.977c-1.378 0-2.314-1.21-2.314-3.01 0-1.92.936-3.217 2.331-3.217.936 0 1.607.554 1.89 1.522.053.208.053.433.053.64v1.73c0 .398-.036.727-.106.952-.23.83-.99 1.383-1.854 1.383z" fill="#FFF"/><ellipse stroke="#333" stroke-width=".5" fill="url(#e)" cx="97.28" cy="11.595" rx="1.96" ry="1.92"/></g></svg>
