<svg width="173" height="48" xmlns="http://www.w3.org/2000/svg"><g fill="none"><path d="M159.843 36.957H7.097c-3.799 0-5.713-1.914-6.479-4.123a7.067 7.067 0 01-.029-4.21l2.827-10.19c.795-2.738 3.15-7.303 8.923-7.303h153.54c5.301 0 7.657 3.652 6.774 7.716-.59 2.944-3.004 10.748-3.004 10.748-.913 4.358-4.564 7.362-9.806 7.362z" fill="#007CBA"/><path d="M138.081 47.706H97.443c-6.125 0-12.015-5.625-11.19-11.691.883-6.479 4.535-16.638 6.567-22.852C95.234 5.743 102.537.294 108.633.294h42.11a11.102 11.102 0 0110.808 14.165c-1.944 6.272-5.065 16.167-6.98 21.91-1.796 5.359-10.394 11.337-16.49 11.337z" fill="#000"/><path d="M151.391 3.858h-9.158a14.547 14.547 0 00-13.87 9.717l-4.682 14.813c-5.212 12.868 1.443 15.048 6.037 15.018h7.656c5.654 0 11.868-4.093 13.517-9.335l6.36-20.26c1.738-4.712-1.06-9.953-5.86-9.953zm-10.277 29.89h-8.893l6.184-19.672h8.893l-6.184 19.671zm-34.1-5.007h4.888l-1.59 4.977h-9.6l1.325-4.182.235-.736 3.151-9.777 1.561-4.917h18.376l.088-.295 2.68-9.364h-17.699c-6.655-.089-12.103 4.976-13.28 9.128l-4.683 14.813c-5.86 13.781 1.855 15.018 6.037 15.018h7.657a13.87 13.87 0 0013.516-9.63l4.27-14.782h-13.84l-3.093 9.747z" fill="#DD2027"/><path d="M78.213 31.097L80.216 24l-3.71-.03-2.062 7.097-4.181.03 2.297-7.391a5.683 5.683 0 015.33-3.74h3.887c2.15 0 3.239 1.796 2.738 3.887l-2.238 7.214-4.064.03zm-5.006-10.63H67.79l1.678-4.712h5.33l-1.59 4.711zm-12.603 2.767h-3.652l2.444-7.862h-4.122l-2.562 8.127c-.472 2.091.589 3.888 2.738 3.888h.03l-1.149 3.71h4.064l1.178-3.71a5.683 5.683 0 005.124-3.71l2.62-8.305h-4.063l-2.68 7.862h.03zm-10.867-7.862H45.91a5.625 5.625 0 00-5.389 3.74l-3.887 12.014h4.123l1.266-3.887 3.652.03-1.09 3.857h3.976l3.975-11.867c.442-2.09-.589-3.887-2.798-3.887zm-2.797 7.862h-3.887l1.354-3.887h3.829l-1.296 3.887zm-18.965-7.862L22.97 31.097h12.015l2.562-7.863h-4.034l-1.237 3.887h-3.71l3.651-11.75h-4.24zm-5.595 0h-7.774L9.541 31.126h4.123l1.296-3.887h3.592a5.595 5.595 0 005.3-3.68c.472-1.208 1.385-4.212 1.385-4.212.677-2.385-.677-3.975-2.857-3.975zm-2.503 7.862H16.05l1.325-3.887h3.828l-1.325 3.887z" fill="#FFF"/></g></svg>
