<svg xmlns="http://www.w3.org/2000/svg" width="36" height="24" viewBox="0 0 36 24"><path data-name="18" d="M11.639 14.532v-1.666H6.6v-5.44H5v5.44H-.074v1.666H5v5.474h1.6v-5.474h5.034zm9.315 9.146V.014H18.8l-3.5 2.652V4.91l3.562-2.686v21.454h2.089zM35.543 4.2a4.545 4.545 0 00-.376-1.887A3.909 3.909 0 0034.161.932 4.455 4.455 0 0032.694.1a5.487 5.487 0 00-3.514 0 4.453 4.453 0 00-1.467.833 3.91 3.91 0 00-1.007 1.377 4.545 4.545 0 00-.375 1.89v3.464a4.467 4.467 0 00.523 2.244 3.712 3.712 0 001.429 1.428 3.965 3.965 0 00-1.43 1.464 4.394 4.394 0 00-.523 2.21v4.556a4.512 4.512 0 00.375 1.9 3.941 3.941 0 001.007 1.36 4.212 4.212 0 001.467.816 5.813 5.813 0 003.515 0 4.214 4.214 0 001.467-.816 3.94 3.94 0 001.007-1.36 4.512 4.512 0 00.376-1.9v-4.558a4.188 4.188 0 00-1.918-3.672A4.34 4.34 0 0035 9.891a4.276 4.276 0 00.538-2.227V4.2zm-2.089 15.53a2.1 2.1 0 01-.7 1.689 2.647 2.647 0 01-1.786.6 2.765 2.765 0 01-1.837-.6 2.078 2.078 0 01-.714-1.689v-5.156a2.247 2.247 0 01.714-1.723 2.588 2.588 0 011.837-.666 2.647 2.647 0 011.786.683 2.222 2.222 0 01.7 1.706v5.151zm0-11.663a2.169 2.169 0 01-.7 1.69 2.559 2.559 0 01-1.786.631 2.671 2.671 0 01-1.837-.631 2.143 2.143 0 01-.714-1.69V4.035a2.131 2.131 0 01.714-1.706 2.717 2.717 0 011.837-.615 2.6 2.6 0 011.786.615 2.157 2.157 0 01.7 1.706v4.028z" fill="#888" fill-rule="evenodd"/></svg>
