<svg width="88" height="47" xmlns="http://www.w3.org/2000/svg"><g fill="none"><path d="M5.258 27.14V15.927c2.567 0 4.337-.138 5.309-.413 1.655-.48 2.966-1.332 3.932-2.556.966-1.224 1.449-2.76 1.449-4.607 0-1.668-.37-3.099-1.107-4.293a6.361 6.361 0 00-3.024-2.591C10.54.933 8.455.666 5.563.666H.218V27.14h5.04zm1.601-16.126H5.258V5.597h1.421c1.56 0 2.628.174 3.204.522.792.468 1.188 1.212 1.188 2.232 0 .588-.141 1.088-.423 1.502a2.34 2.34 0 01-1.161.891c-.492.18-1.368.27-2.628.27zm22.82 16.792c1.464 0 2.748-.231 3.852-.693 1.104-.462 2.079-1.173 2.925-2.133.845-.96 1.418-1.956 1.718-2.988.3-1.031.45-2.88.45-5.543V.666h-5.057v16.503c0 1.776-.123 2.979-.369 3.609-.246.63-.69 1.148-1.332 1.556-.642.408-1.407.612-2.294.612-.84 0-1.557-.183-2.151-.549a3.118 3.118 0 01-1.278-1.466c-.258-.612-.387-1.656-.387-3.132V.666H20.7v15.783c0 3.156.306 5.397.918 6.722.612 1.326 1.629 2.43 3.05 3.312 1.422.882 3.093 1.323 5.013 1.323zm21.021 0c2.412 0 4.368-.708 5.867-2.124 1.5-1.416 2.25-3.21 2.25-5.381 0-1.116-.213-2.145-.639-3.087-.426-.942-1.149-1.928-2.169-2.96-.408-.42-1.571-1.434-3.491-3.042-2.052-1.74-3.282-2.873-3.69-3.401-.3-.396-.45-.816-.45-1.26 0-.444.21-.843.63-1.197.42-.354.96-.53 1.62-.53 1.356 0 2.688.911 3.996 2.735l3.725-3.294c-1.392-1.62-2.685-2.735-3.878-3.347A8.157 8.157 0 0050.7 0c-2.052 0-3.777.657-5.175 1.97-1.398 1.314-2.097 2.89-2.097 4.725 0 1.272.42 2.547 1.26 3.824.84 1.278 2.7 3.093 5.58 5.444 1.511 1.236 2.489 2.154 2.933 2.754.444.6.666 1.2.666 1.8 0 .66-.294 1.242-.882 1.745-.588.504-1.314.756-2.178.756-1.656 0-3.12-1.17-4.391-3.51l-4.23 2.556c.996 1.98 2.193 3.432 3.591 4.356 1.398.924 3.039 1.386 4.922 1.386zm18.033-.666V15.532h8.855V27.14h5.093V.666h-5.093v9.988h-8.855V.666h-5.11V27.14h5.11z" fill="#8E8485"/><path d="M7.378 46.912c1.321 0 2.472-.28 3.454-.843.98-.561 1.78-1.376 2.397-2.444a6.667 6.667 0 00.926-3.388l-.018-.574H7.286v2.435h3.944c-.377.802-.872 1.392-1.486 1.768-.614.377-1.369.565-2.264.565-1.376 0-2.533-.457-3.471-1.37-.938-.914-1.408-2.028-1.408-3.342 0-1.272.453-2.352 1.357-3.24.904-.89 2.026-1.334 3.365-1.334 1.537 0 2.882.611 4.036 1.833l1.824-1.805c-.833-.901-1.685-1.537-2.555-1.907a8.405 8.405 0 00-3.324-.657c-2.265 0-4.104.793-5.517 2.379C.596 36.32 0 37.888 0 39.69c0 1.314.322 2.54.967 3.675a6.744 6.744 0 002.63 2.625c1.108.614 2.368.92 3.781.92zm10.749-.343l1.11-2.805h5.555l1.065 2.805h2.694l-5.24-13.618h-2.63L15.434 46.57h2.694zm5.693-5.332H20.2l1.815-4.675 1.805 4.675zm8.23 5.332l1.491-8.6 2.86 8.6h2.287l2.898-8.6 1.463 8.6h2.5l-2.297-13.618h-2.5L37.56 42.45l-3.15-9.5h-2.536l-2.351 13.62h2.527zm17.96 0V32.951h-2.573V46.57h2.574zm5.518 0v-8.933l5.833 8.933h2.49V32.951h-2.592v8.962l-5.842-8.962h-2.481V46.57h2.592zm18.192.343c1.32 0 2.472-.28 3.453-.843.981-.561 1.78-1.376 2.398-2.444a6.667 6.667 0 00.925-3.388l-.018-.574h-6.85v2.435h3.943c-.376.802-.872 1.392-1.486 1.768-.614.377-1.368.565-2.263.565-1.377 0-2.534-.457-3.472-1.37-.938-.914-1.407-2.028-1.407-3.342 0-1.272.452-2.352 1.356-3.24.904-.89 2.026-1.334 3.365-1.334 1.537 0 2.882.611 4.037 1.833l1.823-1.805c-.833-.901-1.684-1.537-2.555-1.907a8.405 8.405 0 00-3.323-.657c-2.265 0-4.105.793-5.518 2.379-1.191 1.333-1.787 2.9-1.787 4.703 0 1.314.323 2.54.968 3.675a6.742 6.742 0 002.629 2.625c1.108.614 2.368.92 3.782.92z" fill="#EC2B24"/><path d="M82.812 35.65v-2.512h.563v-.58h-1.709v.58h.549v2.512h.597zm1.306 0l.338-1.953.65 1.953h.519l.658-1.953.332 1.953h.568l-.522-3.092h-.567l-.725 2.157-.715-2.157h-.576l-.534 3.092h.574z" fill="#8E8485"/></g></svg>
