<svg width="185" height="47" xmlns="http://www.w3.org/2000/svg" xmlns:xlink="http://www.w3.org/1999/xlink"><defs><path id="a" d="M.019.055H124.67v46.368H.02z"/><path id="c" d="M.019.055H124.67v46.368H.02z"/><path id="e" d="M.019.055H124.67v46.368H.02z"/><path id="g" d="M.019.055H43.71v27.33H.02z"/><path id="i" d="M.019.055H43.71v27.33H.02z"/></defs><g fill="none" fill-rule="evenodd"><path d="M102.298.802a2.692 2.692 0 00-1.609-.537c-.88 0-1.749.437-2.292 1.25L83.303 23.998c-.891 1.324-.586 3.154.683 4.084a2.7 2.7 0 001.608.534c.881 0 1.748-.433 2.294-1.245L102.98 4.887c.89-1.323.586-3.154-.68-4.085m81.795 36.375L167.975 2.05c-.482-1.053-1.483-1.668-2.528-1.668-.406 0-.817.093-1.21.29-1.395.7-1.984 2.45-1.314 3.911l16.118 35.13c.48 1.053 1.483 1.667 2.53 1.667.405 0 .817-.095 1.21-.29 1.395-.701 1.984-2.452 1.314-3.913m-35.201-22.499c.022-.151.046-.305.046-.465v-3.31c0-.11-.022-.213-.031-.32 0-.02.004-.039.004-.06 0-5.592-4.343-10.141-9.681-10.141-.014 0-.03.006-.043.006-.018 0-.03-.006-.047-.006h-6.968c-1.548 0-2.8 1.314-2.8 2.934 0 1.621 1.252 2.933 2.8 2.933h6.977l.04-.002.04.002c2.25 0 4.08 1.919 4.08 4.274 0 .108.02.21.031.316 0 .021-.006.043-.006.063v3.104c-.01.085-.026.167-.026.254 0 2.353-1.829 4.271-4.078 4.271-.014 0-.027.003-.04.003-.015 0-.03-.003-.041-.003h-6.977c-1.548 0-2.801 1.312-2.801 2.932 0 1.62 1.253 2.935 2.801 2.935h6.968c.014 0 .029-.008.043-.008.017 0 .03.008.047.008 5.203 0 9.45-4.324 9.662-9.72M114.987.382c-5.338 0-9.682 4.55-9.682 10.14 0 1.62 1.256 2.932 2.802 2.932 1.548 0 2.803-1.312 2.803-2.931 0-2.355 1.829-4.274 4.077-4.274 2.25 0 4.08 1.919 4.08 4.274 0 1.62 1.254 2.931 2.802 2.931 1.547 0 2.801-1.312 2.801-2.931 0-5.592-4.344-10.141-9.683-10.141" fill="#E46F2A" fill-rule="nonzero"/><g transform="translate(0 .327)"><mask id="b" fill="#fff"><use xlink:href="#a"/></mask><path d="M121.869 27.992c-1.549 0-2.803 1.316-2.803 2.936 0 2.354-1.83 4.27-4.079 4.27-2.248 0-4.077-1.916-4.077-4.27 0-1.62-1.255-2.936-2.803-2.936-1.546 0-2.802 1.316-2.802 2.936 0 5.587 4.344 10.136 9.682 10.136 5.34 0 9.683-4.549 9.683-10.136 0-1.62-1.254-2.936-2.801-2.936" fill="#E46F2A" fill-rule="nonzero" mask="url(#b)"/></g><g transform="translate(0 .327)"><mask id="d" fill="#fff"><use xlink:href="#c"/></mask><path d="M9.683.055C4.346.055 0 4.605 0 10.195c0 1.62 1.253 2.932 2.803 2.932 1.546 0 2.801-1.312 2.801-2.931 0-2.355 1.83-4.274 4.08-4.274 2.247 0 4.077 1.919 4.077 4.274 0 1.62 1.255 2.931 2.803 2.931s2.801-1.312 2.801-2.931c0-5.592-4.343-10.141-9.682-10.141" fill="#E46F2A" fill-rule="nonzero" mask="url(#d)"/></g><g transform="translate(0 .327)"><mask id="f" fill="#fff"><use xlink:href="#e"/></mask><path d="M16.564 27.992c-1.548 0-2.803 1.316-2.803 2.936 0 2.354-1.83 4.27-4.078 4.27-2.249 0-4.079-1.916-4.079-4.27 0-1.62-1.255-2.936-2.801-2.936-1.55 0-2.803 1.316-2.803 2.936 0 5.587 4.346 10.136 9.683 10.136a9.48 9.48 0 002.236-.28l2.152 4.13c.496.949 1.421 1.497 2.385 1.526a2.7 2.7 0 001.418-.356c1.36-.78 1.86-2.56 1.117-3.981l-2.231-4.28a10.348 10.348 0 002.605-6.895c0-1.62-1.253-2.936-2.801-2.936" fill="#E46F2A" fill-rule="nonzero" mask="url(#f)"/></g><path d="M76.284 28.319c-1.545 0-2.802 1.316-2.802 2.936 0 2.354-1.83 4.27-4.08 4.27-2.247 0-4.078-1.916-4.078-4.27 0-1.62-1.253-2.936-2.802-2.936-1.546 0-2.802 1.316-2.802 2.936 0 5.587 4.344 10.136 9.683 10.136 5.34 0 9.684-4.549 9.684-10.136 0-1.62-1.255-2.936-2.803-2.936m-35.373 0c-1.546 0-2.799 1.316-2.799 2.936 0 2.354-1.832 4.27-4.082 4.27-2.248 0-4.078-1.916-4.078-4.27 0-1.62-1.253-2.936-2.8-2.936-1.548 0-2.804 1.316-2.804 2.936 0 5.587 4.343 10.136 9.682 10.136 5.337 0 9.684-4.549 9.684-10.136 0-1.62-1.255-2.936-2.803-2.936M69.403.382c-5.34 0-9.683 4.55-9.683 10.14 0 1.62 1.256 2.932 2.802 2.932 1.549 0 2.802-1.312 2.802-2.931 0-2.355 1.83-4.274 4.079-4.274 2.248 0 4.08 1.919 4.08 4.274 0 1.62 1.256 2.931 2.8 2.931 1.549 0 2.804-1.312 2.804-2.931 0-5.592-4.345-10.141-9.684-10.141m38.704 14.741c-.163 0-.323-.013-.485-.03l10.017 14.923c.521-1.937 2.216-3.365 4.23-3.365.125 0 .25.012.377.02l-9.939-14.8c-.55 1.882-2.224 3.252-4.2 3.252m-19.71-1.616V3.317c0-1.62-1.255-2.935-2.802-2.935-1.547 0-2.803 1.314-2.803 2.934v18.538l5.605-8.347M62.522 26.65c1.065 0 2.042.403 2.805 1.063V14.06a4.265 4.265 0 01-2.805 1.062 4.26 4.26 0 01-2.8-1.056V27.71a4.263 4.263 0 012.8-1.06m121.895 7.38V3.315c0-1.62-1.252-2.934-2.8-2.934-1.55 0-2.803 1.314-2.803 2.934v18.501l5.603 12.212M132.174 16.86h2.808V7.92h-2.808a4.273 4.273 0 01-2.797-1.053v11.046a4.287 4.287 0 012.797-1.052M155.362.382c-1.55 0-2.804 1.314-2.804 2.934v35.136c0 1.62 1.254 2.933 2.804 2.933 1.55 0 2.8-1.312 2.8-2.933V3.316c0-1.62-1.25-2.934-2.8-2.934M85.594 30.284c-.91 0-1.782-.29-2.527-.836-.094-.07-.183-.15-.275-.226v9.23c0 1.62 1.256 2.933 2.803 2.933s2.802-1.312 2.802-2.933v-9.23a4.295 4.295 0 01-2.803 1.062M51.711.382c-1.545 0-2.801 1.314-2.801 2.934v35.136c0 1.62 1.256 2.933 2.801 2.933 1.549 0 2.804-1.312 2.804-2.933V3.316c0-1.62-1.255-2.934-2.804-2.934m43.444 19.063l-3.701 5.51 6.696 14.75c.481 1.059 1.486 1.675 2.535 1.675.401 0 .811-.092 1.201-.283 1.397-.697 1.99-2.447 1.325-3.912l-8.056-17.74m67.493-11.61v30.617c0 1.62 1.254 2.933 2.802 2.933 1.547 0 2.8-1.312 2.8-2.933V20.047l-5.602-12.212m-30.474 18.231a4.299 4.299 0 01-2.797-1.05v13.436c0 1.62 1.256 2.933 2.803 2.933 1.546 0 2.802-1.312 2.802-2.933V26.066h-2.808m-105.022.584c1.064 0 2.04.403 2.803 1.063V3.316c0-1.62-1.256-2.934-2.803-2.934-1.548 0-2.804 1.314-2.804 2.934V27.71a4.276 4.276 0 012.804-1.06" fill="#E46F2A" fill-rule="nonzero"/><g transform="translate(0 .327)"><mask id="h" fill="#fff"><use xlink:href="#g"/></mask><path d="M40.911 26.324c1.064 0 2.04.4 2.8 1.06V2.988c0-1.62-1.252-2.934-2.8-2.934-1.548 0-2.799 1.314-2.799 2.934v24.397a4.25 4.25 0 012.8-1.062" fill="#E46F2A" fill-rule="nonzero" mask="url(#h)"/></g><g transform="translate(0 .327)"><mask id="j" fill="#fff"><use xlink:href="#i"/></mask><path d="M2.803 26.324c1.062 0 2.044.402 2.803 1.062V13.734a4.26 4.26 0 01-2.803 1.062 4.258 4.258 0 01-2.8-1.056v13.643a4.26 4.26 0 012.8-1.06" fill="#E46F2A" fill-rule="nonzero" mask="url(#j)"/></g><path d="M16.564 15.123c-1.066 0-2.042-.4-2.803-1.062v13.652a4.25 4.25 0 012.803-1.062c1.063 0 2.038.4 2.8 1.06V14.066a4.276 4.276 0 01-2.8 1.056" fill="#E46F2A" fill-rule="nonzero"/></g></svg>
