<svg width="291" height="47" xmlns="http://www.w3.org/2000/svg" xmlns:xlink="http://www.w3.org/1999/xlink"><defs><path id="a" d="M0 .048h23.203v38.565H0z"/><path id="c" d="M.1.15h32.91v40.71H.1z"/><path id="e" d="M0 .16h30.796v44.61H0z"/><path id="g" d="M.087.124h38.73v46.371H.087z"/></defs><g fill="none" fill-rule="evenodd"><path d="M178.797 43.768c-2.055-.337-4.148-.528-6.156-1.042-5.687-1.455-9.026-6.47-7.776-12.09.535-2.409 1.764-4.72 2.977-6.918.855-1.55 3.276-1.917 4.5-1.039 1.36.974 1.468 2.782.42 4.505-.698 1.147-1.384 2.353-1.768 3.621-.93 3.076.612 5.68 3.754 6.482 2.537.647 5.048.443 7.421-.677 3.835-1.81 4.367-6.455 1.01-9.006-1.081-.822-2.265-1.57-3.51-2.117-2.207-.969-4.359-1.79-5.6-4.155-.423-.803-2.065-.962-3.11-1.49-.68-.343-1.553-.677-1.884-1.262-2.056-3.637-2.592-7.398.1-10.947 2.901-3.824 7.05-4.891 11.626-4.084 1.834.324 3.595 1.317 5.257 2.236 1.618.896 2.112 3.005 1.288 4.373-.824 1.366-2.846 1.734-4.54.71-2.007-1.215-4.054-1.879-6.414-1.098-1.552.513-2.488 1.508-2.846 3.063-.348 1.51.442 2.614 1.592 3.288 3.065 1.799 6.11 3.709 9.378 5.083 8.91 3.747 9.047 14.296 3.097 19.157-2.517 2.057-5.407 3.303-8.816 3.407" fill="#FF93BE"/><path d="M176.21 26.889c1.869 1.108 3.626 1.99 5.193 3.125 1.513 1.096 1.337 2.718-.288 3.673-2.07 1.217-4.289 1.198-6.487.395-1.42-.518-1.18-1.771-.787-2.739.581-1.427 1.44-2.744 2.37-4.454" fill="#FF93BE"/><g transform="translate(2.98 5.038)"><mask id="b" fill="#fff"><use xlink:href="#a"/></mask><path d="M8.39 5.87c1.534 2.773 2.811 5.078 4.26 7.693-2.14.405-4.044.812-5.967 1.08-.308.044-.825-.468-1.043-.838C3.987 11.002 2.342 8.192.78 5.34-.513 2.98.584.817 3.247.474c4.79-.618 9.555-.811 14.135 1.176 3.664 1.59 5.439 4.484 5.78 8.231.335 3.672-1.41 6.452-4.421 8.506-3.105 2.117-6.666 3.018-10.341 3.558-2.328.342-2.334.315-2.336 2.552-.002 3.511.012 7.022-.007 10.533-.012 2.21-1.13 3.55-2.934 3.582-1.665.03-3.086-1.533-3.098-3.55C-.006 29.932-.01 24.8.023 19.669c.013-2.17 1.16-3.126 3.394-3.304 3.012-.24 6.041-.474 9.007-1.01 3.187-.575 4.464-2.011 4.733-4.607.174-1.682-.471-2.97-2.088-3.434-2.024-.582-4.125-.905-6.68-1.442" fill="#FF93BE" mask="url(#b)"/></g><path d="M14.09 28.035c1.73-.51 3.444-1.06 5.188-1.494.333-.083.98.177 1.15.467 2.386 4.066 4.765 8.14 7.033 12.27.82 1.494.066 3.453-1.361 4.223-1.312.709-3.125.275-4.011-1.228-2.725-4.618-5.341-9.297-7.993-13.956-.045-.08-.006-.206-.006-.282m36.362-17.442c3.073 2.852 6.117 5.736 9.236 8.54 1.31 1.178 2.297 2.496 1.695 4.225-.638 1.832-2.358 2.01-4.107 1.99-3.302-.041-6.605-.012-10.074-.012-.048.69-.119 1.264-.124 1.84-.025 2.861.068 5.729-.086 8.583-.086 1.594.556 1.9 1.988 1.872a294.43 294.43 0 0111.08.005c.836.016 1.804.201 2.464.654 1.06.726 1.752 1.822 1.324 3.213-.43 1.401-1.516 2.094-2.928 2.27-.814.1-1.65.04-2.477.04-4.466.002-8.931.011-13.397-.004-2.945-.01-4.37-1.397-4.37-4.243.002-5.508.014-11.017.034-16.525.011-2.93 1.058-3.933 4.098-3.953 1.642-.011 3.284-.002 5.244-.002-.394-.516-.565-.813-.804-1.04-2.959-2.822-5.921-5.64-8.897-8.444-1.082-1.02-1.957-2.098-1.303-3.68.65-1.575 1.943-2.03 3.585-2.019 5.347.037 10.697-.055 16.04.078 1.079.027 2.251.664 3.174 1.304 1.061.736 1.267 2.072.524 3.038-.62.804-1.738 1.65-2.692 1.72-2.995.219-6.016.08-9.028.08l-.2.47" fill="#FF93BE"/><g transform="translate(255.228 3.092)"><mask id="d" fill="#fff"><use xlink:href="#c"/></mask><path d="M20.69.225c3.734-.199 7.217.63 10.394 2.577 1.674 1.025 2.213 2.447 1.597 3.981-.692 1.72-2.581 2.315-4.402 1.34-5.398-2.895-10.746-2.458-15.817.59-7.284 4.379-8.161 15.433-2.107 21.708 3.997 4.141 12.403 5.527 17.533 2.329 1.691-1.054 3.729-.614 4.629.85.986 1.601.487 3.51-1.452 4.523-6.736 3.52-13.47 3.8-20.24-.076-4.193-2.399-7.444-5.537-9.203-10.023-4.42-11.273.784-24.919 15.605-27.77 1.113-.216 2.306-.03 3.462-.03" fill="#FF93BE" mask="url(#d)"/></g><path d="M93.685 31.537c1.217.723 2.354 1.786 3.67 2.08 1.471.327 3.134.116 4.66-.156 1.375-.245 2 .058 2.345 1.4.4 1.56 1.016 3.068 1.547 4.596.48 1.38.487 2.74-.764 3.684-1.34 1.011-2.837 1.013-4.306.099-4.46-2.776-8.945-5.51-13.382-8.318-2.115-1.34-4.135-2.823-6.214-4.218-1.238-.83-1.773-1.96-1.336-3.353.428-1.367 1.45-2.103 2.973-2.117 6.828-.066 13.656-.167 20.484-.208 1.815-.01 3.306 1.504 3.31 3.177.002 1.577-1.4 2.892-3.326 2.937-2.808.066-5.618.02-8.428.028-.375.001-.75.032-1.124.05l-.109.319m6.855-7.543c-1.994 0-3.898.07-5.789-.06-.38-.026-.845-.764-1.03-1.26-.754-2.016-1.414-4.065-2.273-6.584-.991 2.488-1.888 4.528-2.61 6.626-.434 1.258-.975 1.825-2.468 1.599-1.483-.224-3.03-.05-4.816-.05 1.255-3.287 2.4-6.304 3.56-9.317 1.086-2.824 2.2-5.639 3.278-8.466.557-1.46 1.352-2.675 3.156-2.57 1.71.1 2.723 1.03 3.26 2.688 1.765 5.433 3.64 10.83 5.463 16.245.132.391.19.805.269 1.149m-21.454 6.505c1.64.946 3.171 1.77 4.621 2.711.321.209.607.92.487 1.256a131.416 131.416 0 01-2.82 7.25c-.616 1.446-2.32 2.175-3.692 1.759-1.31-.397-2.572-2.32-2.112-3.66 1.085-3.158 2.349-6.257 3.516-9.316m131.875-19.708c1.477 1.535 2.586 2.77 3.787 3.914 1.268 1.209 1.78 2.605 1.765 4.344-.059 6.695-.025 13.39-.025 20.086 0 .324.003.648-.007.972-.063 2.073-1.32 3.608-2.994 3.661-1.719.054-3.252-1.694-3.258-3.792-.015-6.21-.057-12.42.03-18.628.024-1.627-.37-2.841-1.596-3.992-2.305-2.165-4.45-4.494-6.66-6.755-1.148-1.173-1.774-2.545-1.11-4.116.685-1.619 2.144-1.943 3.823-1.928 5.677.049 11.355-.007 17.032.046.9.008 1.901.188 2.67.612 1.215.67 1.965 1.828 1.557 3.257-.402 1.411-1.403 2.303-3.01 2.307-3.307.01-6.614.01-9.921.012h-2.083m-87.476 10.167c-.002 4.643.049 9.288-.033 13.93-.025 1.387.321 1.929 1.824 1.85 2.198-.116 4.41-.077 6.611.002 1.65.06 3.087 1.183 3.422 2.617.305 1.305-.275 2.38-1.377 3.044-.619.373-1.447.559-2.185.57-3.636.05-7.275.075-10.91-.01-2.46-.057-3.63-1.383-3.63-3.836-.004-10.69-.006-21.38-.003-32.071.001-2.43 1.105-3.762 3.084-3.75 1.912.01 3.194 1.491 3.197 3.725.007 4.643.002 9.286 0 13.93m120.508 2.51c-.002 5.4-.001 10.801-.003 16.202 0 .486.033.978-.035 1.456-.225 1.6-1.548 2.71-3.18 2.717-1.449.005-2.806-1.17-3.035-2.675-.073-.477-.045-.97-.045-1.456-.002-10.801-.002-21.603-.001-32.405 0-.378-.02-.759.021-1.133.192-1.747 1.512-2.93 3.176-2.866 1.702.065 3.09 1.427 3.096 3.147.022 5.67.009 11.342.006 17.013m-91.033.169c0 5.56.008 11.119-.003 16.679-.005 2.22-1.208 3.547-3.151 3.536-1.672-.01-3.118-1.55-3.122-3.517a9588.554 9588.554 0 010-33.52c.002-1.595.676-2.887 2.289-3.397 1.494-.473 2.747.124 3.524 1.41.335.554.46 1.305.464 1.967.035 5.614.02 11.228.02 16.842h-.02z" fill="#FF93BE"/><path d="M176.278 26.912c-.928 1.71-1.788 3.028-2.368 4.454-.395.968-.634 2.221.786 2.74 2.199.803 4.417.821 6.487-.396 1.625-.955 1.802-2.576.288-3.673-1.567-1.135-3.324-2.017-5.193-3.125m2.587 16.88c3.409-.105 6.3-1.35 8.816-3.407 5.95-4.862 5.813-15.41-3.097-19.158-3.268-1.374-6.313-3.284-9.378-5.082-1.15-.675-1.94-1.779-1.592-3.289.358-1.555 1.294-2.55 2.847-3.063 2.359-.78 4.406-.116 6.414 1.098 1.694 1.025 3.715.657 4.54-.71.823-1.368.329-3.477-1.29-4.372-1.66-.92-3.422-1.913-5.256-2.236-4.576-.808-8.724.26-11.626 4.084-2.691 3.549-2.156 7.31-.1 10.946.33.586 1.204.92 1.884 1.263 1.045.528 2.688.687 3.11 1.49 1.241 2.366 3.393 3.186 5.6 4.155 1.244.547 2.429 1.294 3.51 2.117 3.357 2.55 2.825 7.196-1.01 9.005-2.373 1.12-4.884 1.325-7.42.678-3.143-.802-4.684-3.407-3.755-6.482.384-1.269 1.07-2.475 1.768-3.622 1.048-1.723.94-3.53-.42-4.504-1.224-.878-3.645-.51-4.5 1.038-1.213 2.198-2.442 4.51-2.977 6.919-1.25 5.619 2.089 10.634 7.776 12.09 2.008.513 4.101.704 6.156 1.042m-2.577-30.612c1.458.912 2.606 1.698 3.818 2.374 2.534 1.414 5.214 2.601 7.63 4.18 5.901 3.855 8.092 9.438 6.385 15.646-1.606 5.841-7.185 10.464-13.582 10.892-2.707.18-5.562.157-8.167-.486-9.106-2.248-13.104-10.583-9.45-19.437.772-1.869 2.124-3.502 3.113-5.294.248-.451.378-1.243.14-1.63-4.555-7.44-.226-18.054 11.127-19.02 3.979-.338 7.503.82 10.75 2.947 2.88 1.887 3.663 5.272 1.927 8.085-1.71 2.772-5.185 3.62-8.23 1.947-1.608-.885-3.162-1.785-5.46-.204" fill="#F8057A"/><g transform="translate(0 1.821)"><mask id="f" fill="#fff"><use xlink:href="#e"/></mask><path d="M14.159 26.237c0 .076-.04.202.005.282 2.652 4.659 5.269 9.338 7.993 13.956.886 1.503 2.7 1.937 4.01 1.228 1.428-.77 2.182-2.73 1.362-4.222-2.268-4.131-4.646-8.205-7.033-12.271-.17-.29-.817-.55-1.15-.467-1.744.435-3.459.984-5.187 1.494M11.436 9.11c2.556.537 4.657.86 6.681 1.442 1.616.464 2.262 1.752 2.087 3.434-.269 2.596-1.546 4.032-4.733 4.608-2.966.535-5.995.77-9.007 1.01-2.233.177-3.38 1.133-3.394 3.303a1253.85 1253.85 0 00.002 15.394c.012 2.017 1.433 3.58 3.098 3.55 1.804-.033 2.923-1.371 2.934-3.582.019-3.511.006-7.022.008-10.533.001-2.237.007-2.21 2.335-2.552 3.675-.54 7.236-1.44 10.34-3.558 3.013-2.054 4.758-4.834 4.423-8.506-.342-3.747-2.117-6.64-5.781-8.23-4.58-1.988-9.344-1.796-14.135-1.177-2.663.344-3.76 2.507-2.467 4.867 1.563 2.852 3.207 5.66 4.86 8.464.219.37.736.882 1.044.839 1.923-.269 3.826-.676 5.966-1.082l-4.26-7.691m.549 20.488c0 .622.005 1.243 0 1.864-.024 2.755.076 5.518-.11 8.262-.194 2.83-2.961 5.058-5.931 5.045-2.955-.012-5.79-2.32-5.846-5.134-.122-5.994-.15-11.996.024-17.988.08-2.758 2.169-4.21 4.926-5.131-1.05-1.868-2.155-3.641-3.057-5.508-.67-1.383-1.394-2.86-1.53-4.346C.211 3.947 2.105 1.476 4.82.925c5.478-1.111 10.961-1.176 16.257.92 9.07 3.59 10.964 14.99 3.508 21.212-.997.832-1.15 1.398-.478 2.503 1.943 3.2 3.756 6.477 5.625 9.721 1.97 3.417 1.148 6.99-2.006 8.697-3.137 1.697-6.555.57-8.497-2.802-2.241-3.89-4.485-7.779-6.727-11.668l-.516.091" fill="#F8057A" mask="url(#f)"/></g><path d="M50.52 10.616l.2-.47c3.01 0 6.032.14 9.027-.08.955-.07 2.072-.915 2.692-1.72.743-.965.537-2.302-.524-3.037-.922-.64-2.095-1.278-3.173-1.305-5.344-.132-10.694-.04-16.04-.077-1.643-.012-2.935.444-3.586 2.018-.654 1.582.22 2.66 1.303 3.68 2.976 2.804 5.938 5.622 8.897 8.444.239.228.41.524.804 1.04-1.96 0-3.602-.009-5.244.002-3.04.02-4.087 1.023-4.098 3.954-.02 5.508-.031 11.016-.033 16.525-.001 2.846 1.424 4.233 4.37 4.243 4.465.015 8.93.005 13.396.003.826 0 1.663.061 2.478-.04 1.411-.175 2.496-.868 2.927-2.269.428-1.391-.264-2.488-1.324-3.214-.66-.452-1.628-.638-2.464-.653a293.487 293.487 0 00-11.08-.006c-1.432.028-2.073-.277-1.988-1.871.154-2.855.061-5.722.086-8.584.005-.575.076-1.15.124-1.84 3.47 0 6.772-.028 10.074.012 1.75.02 3.47-.158 4.107-1.99.603-1.728-.386-3.047-1.695-4.224-3.119-2.804-6.162-5.689-9.236-8.54M43.11 16.2c-1.713-1.594-3.227-2.992-4.73-4.402-2.258-2.118-2.95-4.61-1.895-7.014 1.192-2.717 3.397-3.765 6.338-3.737 5.624.053 11.25-.018 16.874.035 2.965.028 5.463 2.273 5.793 5.03.372 3.099-1.364 5.85-4.3 6.625-.987.26-2.052.236-3.35.369.34.435.54.775.819 1.035 1.315 1.232 2.678 2.416 3.973 3.666 1.924 1.858 2.498 4.412 1.456 6.693-1.097 2.402-3.061 3.619-5.743 3.65-2.697.031-5.394.006-8.373.006 0 2.03-.054 3.952.063 5.864.016.263.88.67 1.358.68 3.032.063 6.065.016 9.098.039 3.693.027 6.315 2.47 6.322 5.853.008 3.357-2.619 5.949-6.261 5.992-5.459.065-10.92.063-16.378.006-3.847-.04-6.349-2.613-6.342-6.417.01-5.24.136-10.48.069-15.718-.05-3.799.63-7.055 5.21-8.255" fill="#F8057A"/><g transform="translate(252.248 .2)"><mask id="h" fill="#fff"><use xlink:href="#g"/></mask><path d="M23.737 3.141c-1.156 0-2.35-.186-3.463.028C5.454 6.021.25 19.667 4.67 30.939c1.76 4.487 5.01 7.625 9.203 10.024 6.771 3.876 13.504 3.595 20.24.075 1.94-1.013 2.438-2.921 1.452-4.523-.9-1.463-2.938-1.903-4.628-.85-5.13 3.198-13.537 1.813-17.534-2.329-6.054-6.274-5.177-17.329 2.107-21.707 5.072-3.048 10.42-3.485 15.818-.591 1.82.976 3.71.38 4.401-1.339.617-1.535.077-2.956-1.597-3.982-3.177-1.946-6.66-2.775-10.394-2.576m.207-3.015c4.237-.042 8.204.887 11.788 3.149 3.042 1.92 3.912 5.46 2.1 8.328-1.778 2.812-5.28 3.565-8.405 1.807-4.078-2.292-9.742-1.78-13.475 1.22-3.387 2.722-4.72 7.912-3.198 12.454 1.479 4.41 5.416 7.26 10.349 7.493 2.305.109 4.464-.263 6.485-1.481 2.925-1.764 6.493-.93 8.266 1.813 1.804 2.79 1.017 6.372-1.878 8.265-2.805 1.835-5.95 2.804-9.275 3.174-9.975 1.111-20.898-4.136-24.778-13.844C-3.457 19.045 3.045 3.14 20.642.297c1.08-.174 2.2-.12 3.302-.171" fill="#F8057A" mask="url(#h)"/></g><path d="M79.154 30.522c-1.167 3.06-2.431 6.158-3.516 9.317-.46 1.34.803 3.263 2.112 3.66 1.373.416 3.076-.313 3.693-1.76a131.416 131.416 0 002.82-7.25c.119-.335-.167-1.047-.488-1.255-1.45-.942-2.98-1.765-4.62-2.712m21.453-6.505c-.079-.343-.137-.757-.269-1.148-1.823-5.415-3.698-10.813-5.462-16.246-.538-1.658-1.55-2.587-3.261-2.687-1.804-.105-2.599 1.109-3.156 2.57-1.079 2.827-2.191 5.642-3.278 8.466-1.16 3.012-2.305 6.03-3.56 9.317 1.786 0 3.333-.175 4.816.05 1.493.225 2.034-.341 2.468-1.6.722-2.098 1.619-4.138 2.61-6.626.86 2.52 1.52 4.569 2.273 6.584.186.496.65 1.235 1.03 1.261 1.89.13 3.796.06 5.789.06m-6.854 7.542l.108-.319c.375-.017.75-.049 1.125-.05 2.809-.007 5.619.039 8.427-.027 1.925-.046 3.328-1.36 3.325-2.937-.003-1.674-1.494-3.188-3.309-3.177-6.828.04-13.656.141-20.484.207-1.522.015-2.544.75-2.973 2.117-.437 1.393.098 2.523 1.336 3.353 2.079 1.396 4.099 2.879 6.214 4.218 4.437 2.809 8.923 5.543 13.382 8.318 1.469.915 2.966.913 4.306-.099 1.251-.944 1.244-2.304.765-3.683-.532-1.528-1.149-3.036-1.549-4.597-.343-1.341-.969-1.645-2.345-1.4-1.525.272-3.187.484-4.659.156-1.316-.293-2.454-1.356-3.67-2.08m-7.582 5.765c-.672 1.756-1.248 3.323-1.87 4.872-1.423 3.545-4.742 5.133-8.065 3.882-3.298-1.24-4.743-4.585-3.39-8.136 2.686-7.055 5.44-14.085 8.17-21.124C82.496 13 83.987 9.181 85.47 5.361 86.66 2.302 88.758.698 91.523.743c2.82.046 4.984 1.801 6.03 4.896 1.67 4.944 3.363 9.88 4.987 14.838.303.925.7 1.375 1.752 1.509 2.579.328 4.402 1.784 5.103 4.231.686 2.396.117 4.569-1.826 6.352-.346.316-.476 1.117-.357 1.614.376 1.565.938 3.087 1.392 4.635.835 2.841.036 5.304-2.207 6.902-2.213 1.577-4.657 1.582-7.224-.068-3.915-2.516-7.802-5.074-11.705-7.607-.361-.234-.755-.421-1.297-.72m124.859-26.51h2.082c3.307-.003 6.614-.003 9.922-.012 1.606-.004 2.607-.896 3.01-2.308.407-1.429-.343-2.586-1.558-3.256-.768-.424-1.77-.604-2.67-.613-5.677-.053-11.355.003-17.032-.046-1.679-.014-3.138.31-3.822 1.928-.665 1.572-.038 2.943 1.109 4.116 2.21 2.261 4.355 4.59 6.66 6.755 1.226 1.151 1.62 2.365 1.597 3.992-.088 6.209-.046 12.42-.03 18.628.005 2.098 1.538 3.847 3.257 3.793 1.674-.053 2.931-1.588 2.994-3.662.01-.324.007-.648.007-.972 0-6.695-.033-13.39.025-20.086.015-1.738-.496-3.135-1.765-4.343-1.2-1.144-2.31-2.38-3.787-3.914m7.789 2.827c.198 2.823.503 5.412.536 8.004.077 6.156.053 12.314.018 18.47-.025 4.411-3.478 7.211-7.59 6.23-2.63-.629-4.463-2.916-4.474-5.705-.024-6.373.033-12.746-.06-19.118-.014-.907-.471-1.99-1.088-2.675-2.077-2.306-4.302-4.485-6.502-6.683-1.98-1.979-2.563-4.288-1.488-6.824 1.065-2.51 3.201-3.61 5.928-3.616 6.175-.013 12.35-.033 18.525.006 3.612.023 6.447 2.778 6.38 6.08-.07 3.402-2.656 5.77-6.383 5.828-1.372.02-2.745.003-3.802.003m-95.262 7.34c0-4.643.005-9.286-.002-13.93-.004-2.233-1.286-3.714-3.198-3.725-1.979-.011-3.083 1.32-3.083 3.75-.003 10.69-.002 21.38.001 32.071.001 2.454 1.171 3.78 3.63 3.837 3.635.084 7.274.06 10.911.009.738-.01 1.567-.197 2.185-.57 1.102-.664 1.682-1.738 1.377-3.044-.336-1.433-1.772-2.557-3.422-2.616-2.202-.08-4.413-.118-6.611-.003-1.503.08-1.849-.462-1.824-1.85.082-4.642.031-9.286.036-13.93zm2.842 12.882c2.044 0 3.856-.052 5.664.011 3.07.108 5.23 1.756 5.977 4.463.686 2.487-.284 5.153-2.56 6.455-.908.52-2.05.87-3.096.897-4.025.103-8.054.087-12.08.031-3.548-.048-5.998-2.497-6.005-5.978-.023-11.025-.017-22.05-.007-33.075.004-3.75 2.471-6.295 6.043-6.288 3.53.008 6.039 2.58 6.056 6.318.03 6.755.008 13.51.008 20.266v6.9zm117.666-10.372c0-5.67.013-11.342-.009-17.013-.006-1.72-1.394-3.081-3.096-3.147-1.664-.064-2.984 1.12-3.175 2.866-.041.375-.022.756-.022 1.134-.001 10.801-.001 21.603.001 32.404 0 .486-.028.98.045 1.456.23 1.505 1.586 2.68 3.035 2.675 1.632-.006 2.955-1.117 3.18-2.716.068-.478.035-.97.035-1.457.002-5.4.001-10.801.006-16.202zm-9.262.04c0-5.563-.008-11.127.002-16.69.008-3.858 2.46-6.464 6.053-6.462 3.647.002 6.042 2.543 6.043 6.454.005 11.18.006 22.362-.014 33.544-.004 2.508-.99 4.55-3.364 5.696-2.143 1.035-4.288.88-6.247-.495-1.679-1.18-2.48-2.845-2.481-4.87-.002-5.725-.001-11.45-.001-17.176h.009zm-81.773.129h.02c0-5.614.015-11.227-.02-16.841-.004-.663-.129-1.413-.464-1.968-.777-1.286-2.03-1.883-3.524-1.41-1.613.51-2.287 1.803-2.29 3.397a9588.063 9588.063 0 000 33.52c.005 1.967 1.451 3.508 3.123 3.517 1.943.012 3.146-1.316 3.151-3.536.011-5.56.004-11.12.004-16.679zm2.853-.058c0 5.563.011 11.126-.003 16.689-.01 3.817-2.385 6.361-5.923 6.39-3.619.03-6.16-2.536-6.165-6.366-.014-11.126.048-22.252.02-33.377-.015-5.93 5.577-7.794 9.003-5.856 2.035 1.151 3.076 2.881 3.08 5.183.008 5.779.002 11.558.002 17.337h-.014z" fill="#F8057A"/></g></svg>
