<svg width="93" height="47" xmlns="http://www.w3.org/2000/svg" xmlns:xlink="http://www.w3.org/1999/xlink"><defs><path id="a" d="M.01.103h30.062v46.685H.009z"/></defs><g fill="none" fill-rule="evenodd"><g transform="translate(4.752 .13)"><mask id="b" fill="#fff"><use xlink:href="#a"/></mask><path d="M.01 10V.103h27.438v1.293c0 8.488-.013 16.978.03 25.466.003.594.32 1.252.666 1.769 4.575 6.837.627 16.425-7.828 18.157 2.679-1.264 4.455-2.986 5.769-5.208 2.558-4.326 1.961-9.987-1.41-13.762-2.133-2.387-4.917-3.852-7.606-5.477-2.417-1.46-4.858-2.903-7.135-4.557-1.577-1.144-2.062-2.877-1.49-4.792.556-1.866 2.47-2.812 4.303-2.031 1.112.473 2.142 1.13 3.468 1.844 0-1.035.095-1.91-.023-2.756-.156-1.117.326-1.32 1.325-1.245 2.309.175 4.553.526 6.558 1.765.153.094.341.132.663.252 0-2.074.029-4.03-.035-5.983-.008-.257-.444-.636-.753-.727-5.13-1.514-10.296-2.001-15.518-.396-2.635.81-4.653 2.374-6.225 4.583-.516.724-1.262 1.29-1.902 1.93L.009 10" fill="#FF4F00" mask="url(#b)"/></g><path d="M5.838 19.144c2.34 5.436 7.561 7.396 12.102 10.19 1.886 1.161 3.823 2.405 5.306 3.997 2.472 2.653 1.187 6.649-2.382 7.79v-3.884c-.667.367-1.142.601-1.589.88-4.697 2.927-9.824 1.271-12.492-3.157-2.513-4.174-2.996-11.06-.945-15.816" fill="#FF4F00"/><path d="M8.022 44.11c3.212.667 6.417.954 9.666.546 2.22-.278 4.35-.872 6.196-2.14 3.789-2.603 4.265-7.774 1.104-11.216-1.97-2.145-4.523-3.474-7-4.924-2.169-1.27-4.424-2.446-6.407-3.958-5.062-3.862-5.287-10.742-.558-14.611C13.596 5.7 16.718 5.184 19.94 5.44c1.772.142 3.512.667 5.205 1.282-1.586-.163-3.169-.426-4.757-.467-3.462-.09-6.294 1.31-8.538 3.842-2.078 2.344-2.193 6.204-.026 8.566 1.326 1.445 2.976 2.657 4.641 3.736 2.501 1.62 5.183 2.972 7.714 4.551 2.67 1.666 4.742 3.812 5.374 7.033.902 4.598-1.648 9.261-6.192 10.752-4.672 1.534-9.414 1.388-14.11-.047-.43-.131-.821-.383-1.23-.579" fill="#54C982"/><path d="M18.095 40.55c-2.783 2.168-7.34 2.24-10.719.308-3.652-2.089-5.661-5.283-6.628-9.212-1.325-5.385-.962-10.614 1.674-15.572.661-1.244 1.634-2.329 2.614-3.414-.169 1.64-.029 3.192-.722 4.8-2.866 6.645-2.676 13.23 1.362 19.421 2.702 4.143 7.364 5.452 12.06 3.647.062-.024.146.007.359.022" fill="#656BB5"/><path d="M37.52 26.04c1.083 0 1.922-.28 2.515-.839.593-.559.89-1.33.89-2.313 0-.58-.115-1.084-.343-1.508a4.7 4.7 0 00-.855-1.14 8.559 8.559 0 00-1.104-.913 24.127 24.127 0 01-1.103-.813 4.686 4.686 0 01-.856-.855 1.677 1.677 0 01-.342-1.039c0-.447.148-.818.445-1.114.297-.297.753-.445 1.369-.445.502 0 .944.05 1.326.151.382.1.676.213.88.335l.411-1.106c-.273-.156-.633-.285-1.077-.385a6.94 6.94 0 00-1.523-.151c-.924 0-1.674.226-2.25.679-.576.452-.864 1.148-.864 2.086 0 .581.114 1.079.342 1.492.228.413.513.78.856 1.098.342.318.71.609 1.103.871.394.263.762.531 1.104.805.342.273.627.572.855.896.228.324.342.704.342 1.14 0 .66-.2 1.142-.598 1.45-.4.307-.919.46-1.557.46a4.32 4.32 0 01-1.343-.192c-.394-.129-.699-.265-.916-.41l-.445 1.156c.263.156.613.296 1.053.419.439.123 1 .184 1.685.184zm6.655-.202V14.106h-1.283v11.732h1.283zm4.893.15c.901 0 1.651-.167 2.25-.502a4.074 4.074 0 001.446-1.34 5.616 5.616 0 00.778-1.945 11.29 11.29 0 00.231-2.313c0-.894-.08-1.704-.24-2.43-.159-.726-.421-1.35-.786-1.869a3.62 3.62 0 00-1.42-1.198c-.582-.28-1.29-.419-2.122-.419-.194 0-.402.003-.624.008l-.676.017a13.34 13.34 0 00-.676.034 5.785 5.785 0 00-.607.075v11.749c.114.022.276.039.487.05.211.011.44.025.685.042a22.203 22.203 0 001.274.042zm.103-1.156c-.057 0-.145-.002-.265-.008l-.377-.017-.129-.005a89.074 89.074 0 01-.247-.012 1.516 1.516 0 01-.248-.025v-9.553a4.7 4.7 0 01.265-.033c.108-.011.225-.023.35-.034.126-.01.255-.017.386-.017h.368c.638 0 1.16.137 1.565.411.405.274.724.631.958 1.073.234.441.397.947.488 1.516.091.57.137 1.151.137 1.743 0 .67-.052 1.305-.154 1.903a5.097 5.097 0 01-.522 1.575 2.885 2.885 0 01-1.001 1.081c-.422.268-.947.402-1.574.402zm11.84 1.006v-1.156h-4.124V20.39H60.6v-1.156h-3.713v-3.972h4.038v-1.157h-5.321v11.732h5.406zm9.375.201c.48 0 .935-.05 1.369-.15.433-.101.792-.269 1.078-.504l-.308-1.039a3.39 3.39 0 01-.787.377 3.17 3.17 0 01-1.044.16c-.947 0-1.705-.411-2.275-1.232-.57-.821-.856-2.048-.856-3.679 0-.905.08-1.67.24-2.296.16-.626.376-1.131.65-1.517.273-.385.587-.665.94-.838.354-.173.73-.26 1.13-.26a5 5 0 011.06.101c.309.067.577.162.805.285l.308-1.14a5.237 5.237 0 00-.933-.285c-.359-.078-.812-.117-1.36-.117a4.02 4.02 0 00-1.565.318c-.508.213-.956.56-1.343 1.04-.388.48-.699 1.106-.933 1.877-.234.77-.35 1.715-.35 2.832 0 1.084.102 2.011.307 2.782.206.771.494 1.4.864 1.886.371.486.813.84 1.326 1.064a4.155 4.155 0 001.677.335zm5.56-.201V14.106h-1.283v11.732h1.283zm5.817 0V15.263h2.943v-1.157h-7.168v1.157h2.942v10.575h1.283zm7.734 0v-4.676l3.148-7.056h-1.386l-2.087 5.078-.223 1.056h-.034l-.222-1.022-2.156-5.112H85.03l3.183 7.073v4.659h1.283zm-38.512 8.475c.512 0 .908-.132 1.188-.396.28-.264.42-.628.42-1.092a1.48 1.48 0 00-.162-.712c-.108-.2-.242-.38-.404-.539a4.041 4.041 0 00-.52-.43c-.187-.13-.36-.258-.522-.385a2.213 2.213 0 01-.404-.403.792.792 0 01-.162-.491c0-.211.07-.387.21-.526.14-.14.356-.21.647-.21.237 0 .446.024.626.071.18.048.32.1.416.158l.194-.522a1.865 1.865 0 00-.509-.182 3.277 3.277 0 00-.719-.071c-.436 0-.79.107-1.062.32-.272.214-.408.542-.408.986 0 .274.053.509.161.704.108.195.243.368.404.518.162.15.335.288.521.412s.36.25.521.38c.162.13.297.27.404.423a.91.91 0 01.162.538c0 .312-.094.54-.283.685-.188.145-.434.218-.735.218a2.04 2.04 0 01-1.067-.285l-.21.546c.124.074.29.14.497.198.208.058.473.087.796.087zm4.007-.095v-4.994h1.39v-.546h-3.385v.546h1.39v4.994h.605zm3.66.071c.49 0 .869-.149 1.135-.447.267-.298.4-.782.4-1.452v-3.712h-.581v3.53c0 .538-.07.928-.206 1.17-.138.244-.384.365-.74.365-.188 0-.347-.026-.476-.08a.73.73 0 01-.324-.26 1.21 1.21 0 01-.185-.475 3.877 3.877 0 01-.057-.72v-3.53h-.606v3.838c0 .602.13 1.048.392 1.338.261.29.677.435 1.248.435zm3.725 0c.425 0 .78-.08 1.062-.237.283-.159.51-.37.683-.634a2.64 2.64 0 00.367-.918c.073-.348.11-.712.11-1.092 0-.422-.038-.804-.114-1.147a2.422 2.422 0 00-.371-.883 1.71 1.71 0 00-.67-.566c-.276-.132-.61-.198-1.003-.198-.091 0-.19.002-.295.004l-.319.008a6.3 6.3 0 00-.319.016c-.105.008-.2.02-.287.036v5.548c.054.01.131.018.23.023l.324.02a7.68 7.68 0 00.602.02zm.048-.546a44 44 0 00-.48-.02.716.716 0 01-.118-.012v-4.51a2.049 2.049 0 01.473-.04h.174c.301 0 .548.064.739.193.191.13.342.299.452.507.11.208.188.447.23.716a5.369 5.369 0 01-.007 1.722c-.049.282-.131.53-.247.744a1.362 1.362 0 01-.473.51c-.199.127-.447.19-.743.19zm3.765.475v-5.54h-.606v5.54h.606zm2.852.095c.63 0 1.1-.243 1.41-.728.31-.486.464-1.198.464-2.137a6.13 6.13 0 00-.105-1.187 2.818 2.818 0 00-.327-.903 1.57 1.57 0 00-.577-.573c-.237-.135-.526-.202-.865-.202-.63 0-1.099.243-1.406.728-.307.485-.46 1.198-.46 2.137 0 .438.033.833.1 1.187.068.353.177.654.328.902.15.248.345.44.582.574.237.135.522.202.856.202zm0-.546a.87.87 0 01-.565-.19 1.379 1.379 0 01-.38-.507 2.874 2.874 0 01-.214-.736 5.485 5.485 0 01-.069-.886c0-.786.105-1.37.315-1.75.21-.38.514-.57.913-.57.226 0 .417.064.574.19.156.127.282.298.38.511.096.214.168.46.214.74.045.28.068.573.068.879 0 .786-.105 1.369-.315 1.749-.21.38-.517.57-.92.57zm3.781.546c.512 0 .908-.132 1.188-.396.28-.264.42-.628.42-1.092a1.48 1.48 0 00-.162-.712c-.107-.2-.242-.38-.404-.539a4.041 4.041 0 00-.52-.43c-.187-.13-.36-.258-.522-.385a2.213 2.213 0 01-.404-.403.792.792 0 01-.161-.491c0-.211.07-.387.21-.526.14-.14.355-.21.646-.21.237 0 .446.024.626.071.18.048.32.1.416.158l.194-.522a1.865 1.865 0 00-.509-.182 3.277 3.277 0 00-.719-.071c-.436 0-.79.107-1.062.32-.272.214-.408.542-.408.986 0 .274.054.509.161.704.108.195.243.368.404.518.162.15.335.288.521.412s.36.25.521.38c.162.13.297.27.404.423a.91.91 0 01.162.538c0 .312-.094.54-.283.685-.188.145-.433.218-.735.218a2.04 2.04 0 01-1.066-.285l-.21.546c.123.074.289.14.496.198.208.058.473.087.796.087z" fill="#FFF" fill-rule="nonzero"/></g></svg>
