<svg width="125" height="48" viewBox="0 0 125 48" xmlns="http://www.w3.org/2000/svg" xmlns:xlink="http://www.w3.org/1999/xlink"><defs><path id="a" d="M0 .03h45.704v47.845H0z"/><path id="c" d="M.045.035h10.188v16.331H.044z"/><path id="e" d="M0 47.97h122.108V.124H0z"/></defs><g fill="none" fill-rule="evenodd"><g transform="translate(0 .094)"><mask id="b" fill="#fff"><use xlink:href="#a"/></mask><path d="M0 31.918c1.492-2.579 2.968-5.114 4.424-7.66.196-.342.391-.506.816-.502 2.375.026 4.75.02 7.124.004.375-.003.607.108.818.42 1.273 1.877 2.565 3.742 3.851 5.611.173.252.348.502.619.694l-1.7-2.937c-2.143-3.712-4.28-7.427-6.437-11.132-.213-.366-.237-.632-.014-1.015 2.888-4.964 5.759-9.937 8.62-14.916.19-.33.391-.455.776-.454 5.749.013 11.498.012 17.247 0 .377 0 .592.106.785.443 2.894 5.057 5.806 10.103 8.692 15.163.113.198.109.572-.004.772a435.172 435.172 0 01-4.008 6.984c-.106.18-.398.357-.605.359-2.458.024-4.916.003-7.374.026-.434.004-.672-.152-.903-.495-1.266-1.882-2.553-3.75-3.835-5.622-.116-.17-.24-.333-.442-.456.087.174.165.353.261.521 2.61 4.523 5.219 9.048 7.843 13.563.19.326.202.55.006.886a3378.07 3378.07 0 00-8.759 15.196c-.213.372-.445.504-.873.503-5.708-.015-11.415-.015-17.122 0-.453.002-.696-.13-.924-.53C5.936 42.2 2.969 37.066 0 31.918" fill="#E2451B" mask="url(#b)"/></g><path d="M72.097 36.801h-2.083s-.63-1.455-.888-2.146c-1.088-2.924-2.158-5.854-3.233-8.782-.07-.191-.13-.386-.224-.668.927 0 1.92-.061 2.783-.01.149.008.211.358.28.565.698 2.091 1.374 4.19 2.058 6.285.083.254.174.506.321.93.148-.383.247-.613.327-.85.713-2.129 1.431-4.257 2.125-6.392.126-.39.126-.55.223-.55.71 0 2.695.042 2.695.05 0 .01.425 1.33.645 1.995.613 1.854 1.21 3.714 1.853 5.689.11-.208.188-.312.225-.429.712-2.26 1.427-4.52 2.12-6.787.116-.375.116-.517.414-.517.809 0 1.89.01 2.784.01-.2.56-.36 1.028-.531 1.492-1.155 3.142-2.666 6.756-3.907 10.115h-2.177s-.527-1.292-.734-1.877c-.623-1.765-1.235-3.534-1.854-5.3-.052-.148-.125-.289-.253-.578-.92 2.635-2.104 5.28-2.97 7.755zM54.265 34.31l2.014-1.837c.8.912 1.816 1.653 3.101 1.81.717.087 1.495.008 2.195-.18.7-.189 1.122-.772 1.17-1.541.049-.763-.35-1.302-.996-1.589-.87-.386-1.786-.67-2.681-1.002-.662-.245-1.337-.463-1.979-.753-3.476-1.572-2.886-5.98-.66-7.606 2.546-1.86 6.569-1.381 8.644 1.168l-1.737 1.905c-.814-.896-1.798-1.46-2.987-1.521a4.732 4.732 0 00-1.647.223c-.67.215-1.118.71-1.202 1.456-.086.757.191 1.378.834 1.754.55.322 1.155.566 1.758.782.84.302 1.715.51 2.55.824 1.626.612 2.802 1.621 2.91 3.512.123 2.13-.709 3.732-2.628 4.698-2.787 1.402-6.656.484-8.66-2.103M91.183 25.234h2.5v1.54c.171-.15.25-.2.306-.267 1.217-1.449 2.796-1.819 4.564-1.435 1.708.37 2.867 1.663 2.94 3.51.104 2.658.026 5.323.026 8.083-.797 0-1.581.022-2.36-.025-.11-.007-.28-.354-.283-.545-.02-1.936-.013-3.872-.013-5.807 0-.187.004-.375-.003-.562-.045-1.214-.536-1.974-1.478-2.293-1.024-.348-2.3-.027-2.89.908-.371.586-.64 1.331-.674 2.018-.09 1.869-.01 5.618-.01 5.618v.632h-2.625V25.234zM112.296 35.788c-1.37.853-2.79 1.264-4.363.851-1.664-.437-2.695-1.753-2.729-3.52a147.27 147.27 0 01-.002-4.935c.007-.47.007-.575-.02-.575h-2.143c-.242 0-1.042-2.375-1.042-2.375h3.186v-4.625h2.625v4.585h2.572c.159 0 .159.09.274.48.182.614.414 1.213.658 1.935h-3.38v2.722c-.017.666-.019 1.333-.017 1.999.005 1.581 1.087 2.393 2.622 1.953.335-.096.65-.257 1.053-.42l.706 1.925z" fill="#FFA900"/><g transform="translate(111.875 20.47)"><mask id="d" fill="#fff"><use xlink:href="#c"/></mask><path d="M5.933 7.14v1.876c0 .917-.004 1.834 0 2.75.008 1.806 1.322 2.664 3.002 1.96.208-.087.408-.196.676-.327.217.585.45 1.312.621 1.881.034.112-.11.18-.234.25-1.374.795-2.831 1.111-4.368.557-1.404-.506-2.252-1.54-2.337-3.026-.097-1.682-.042-3.372-.057-5.059-.002-.265-.023-.53-.039-.853-.635 0-1.216-.019-1.794.007-.365.017-.708.013-.718-.016C.421 6.372.29 5.448.045 4.75h3.152c.059 0 .059-.15.049-.606-.026-1.187.003-2.374-.014-3.562C3.226.187 3.197 0 3.293 0c.683 0 1.84.044 2.64.044v1.643c0 .833.02 1.667-.008 2.5-.014.425-.014.563.008.572H8.75c.186.031.026.031.542 2.38H5.933z" fill="#FFA900" mask="url(#d)"/></g><mask id="f" fill="#fff"><use xlink:href="#e"/></mask><path fill="#FFA900" mask="url(#f)" d="M86.183 36.609h2.625V25.234h-2.625zM85.685 21.69c-.01-1.026.758-1.789 1.813-1.8 1.06-.01 1.83.73 1.836 1.768.006 1.017-.79 1.786-1.838 1.773-1.036-.012-1.801-.748-1.811-1.74"/><path d="M122.828 27.076v-.48l.157.021.323.46h.18l-.293-.427-.081-.054a.425.425 0 00.106-.042.319.319 0 00.141-.16.329.329 0 00.02-.119.278.278 0 00-.033-.141.273.273 0 00-.089-.094.379.379 0 00-.127-.051.712.712 0 00-.15-.016 1.989 1.989 0 00-.31.025v1.078h.156zm.127-.583h-.127v-.377a3.44 3.44 0 01.114-.01v.001h.044c.075 0 .132.016.171.048.04.032.06.077.06.133a.204.204 0 01-.02.094.17.17 0 01-.056.063.248.248 0 01-.082.036.433.433 0 01-.104.012z" fill="#FFA900" fill-rule="nonzero"/><circle stroke="#FFA900" stroke-width=".2" cx="123" cy="26.496" r="1"/></g></svg>
