<svg width="153" height="48" xmlns="http://www.w3.org/2000/svg" xmlns:xlink="http://www.w3.org/1999/xlink"><defs><linearGradient x1="75.739%" y1="34.044%" x2="26.541%" y2="64.625%" id="b"><stop stop-color="#C7E3F8" offset="0%"/><stop stop-color="#26B1E7" offset="28%"/><stop stop-color="#223B86" offset="100%"/></linearGradient><linearGradient x1="25.551%" y1="65.221%" x2="73.503%" y2="35.325%" id="e"><stop stop-color="#C7E3F8" offset="0%"/><stop stop-color="#26B1E7" offset="28%"/><stop stop-color="#223B86" offset="100%"/></linearGradient><path d="M7.041 6.927c-9.343 9.28-9.395 24.378-.114 33.722a4.453 4.453 0 016.316-6.279c-5.812-5.854-5.779-15.31.074-21.124 5.853-5.814 15.31-5.782 21.125.07l.003.002a4.453 4.453 0 006.318-6.276A23.77 23.77 0 0023.845 0 23.771 23.771 0 007.04 6.927" id="a"/><path d="M35.373 6.392a4.453 4.453 0 01-6.294-.02c5.812 5.855 5.778 15.312-.074 21.125-5.854 5.814-15.31 5.783-21.125-.069l-.003-.003-.045-.041a4.681 4.681 0 00-.295-.268l-.009-.007a4.404 4.404 0 00-.35-.258c-.007-.006-.016-.009-.023-.014a4.424 4.424 0 00-.355-.212l-.03-.013a4.463 4.463 0 00-4.11 0c-.044.023-.085.051-.128.076a4.43 4.43 0 00-.613.411 4.453 4.453 0 00-.36 6.602c9.28 9.344 24.377 9.395 33.721.115 9.344-9.281 9.395-24.378.115-33.722a4.453 4.453 0 01-.022 6.298" id="d"/></defs><g fill="none" fill-rule="evenodd"><path d="M59.561 27.065c0 1.438 1.13 2.567 2.533 2.567.308 0 .616-.068 1.369-.342l1.061 2.635c-1.027.411-1.711.548-2.43.548a5.397 5.397 0 01-5.408-5.408V9.575h2.875v4.381h4.963v2.841h-4.963v10.268zm6.856 0v-8.762a5.397 5.397 0 015.408-5.407 5.397 5.397 0 015.407 5.407v8.762a5.397 5.397 0 01-5.407 5.408 5.398 5.398 0 01-5.408-5.408m5.408-11.329c-1.37 0-2.533 1.164-2.533 2.567v8.762c0 1.403 1.164 2.567 2.533 2.567 1.403 0 2.532-1.13 2.532-2.567v-8.762c0-1.437-1.129-2.567-2.532-2.567M93.5 17.721c0-1.06-.89-1.985-1.985-1.985-1.06 0-1.985.924-1.985 1.985v14.375h-2.84V17.721c0-1.06-.89-1.985-1.985-1.985-1.061 0-1.986.924-1.986 1.985v14.375h-2.84V17.721a4.82 4.82 0 014.826-4.825 4.78 4.78 0 013.422 1.403c.856-.89 2.054-1.403 3.388-1.403 2.704 0 4.86 2.156 4.86 4.825v14.375h-2.874V17.721zm18.175.582a2.527 2.527 0 00-2.532-2.533c-1.37 0-2.533 1.13-2.533 2.533v13.793h-2.875V6.016h2.875v7.53a5.258 5.258 0 012.533-.65 5.397 5.397 0 015.407 5.407v13.793h-2.875V18.303zm5.425 8.762v-8.762a5.397 5.397 0 015.408-5.407 5.397 5.397 0 015.407 5.407v8.762a5.397 5.397 0 01-5.407 5.408 5.398 5.398 0 01-5.408-5.408m5.408-11.329c-1.37 0-2.533 1.164-2.533 2.567v8.762c0 1.403 1.164 2.567 2.533 2.567 1.403 0 2.533-1.13 2.533-2.567v-8.762c0-1.437-1.13-2.567-2.533-2.567m13.359 0c-1.37 0-2.533 1.164-2.533 2.567v13.793h-2.84V18.303c0-3.012 2.395-5.407 5.373-5.407 1.882 0 3.662.992 4.825 2.977l-2.43 1.438c-.684-1.096-1.471-1.575-2.395-1.575m13.468 2.567c0-1.403-1.164-2.567-2.533-2.567-1.403 0-2.533 1.13-2.533 2.567v13.793h-2.875V18.303a5.397 5.397 0 015.408-5.407c2.978 0 5.374 2.395 5.374 5.407v13.793h-2.84V18.303z" fill="#FFF" fill-rule="nonzero"/><path d="M80.625 45.73v-4.989c0-1.166.938-2.104 2.104-2.104.842 0 1.6.505 1.996 1.407l-.926.397c-.228-.541-.637-.794-1.07-.794a1.1 1.1 0 00-1.106 1.094v4.99c0 .6.505 1.106 1.106 1.106.6 0 1.106-.506 1.106-1.107v-1.08h-1.599v-1.01h2.597v2.091a2.098 2.098 0 01-2.104 2.104 2.098 2.098 0 01-2.104-2.104m11.89-.83h-2.2v2.813h-.997v-6.949c0-1.166.937-2.104 2.103-2.104 1.166 0 2.104.938 2.104 2.104v6.95h-1.01V44.9zm-1.094-5.242a1.11 1.11 0 00-1.106 1.106v3.138h2.2v-3.138a1.1 1.1 0 00-1.094-1.106m11.097 2.141l-1.395 4.015h-.553l-1.383-4.016v5.915h-.997v-8.969h1.01l1.646 4.81 1.66-4.81h1.01v8.969h-.998zm6.395-3.054h1v8.968h-1zm7.321 2.945v6.023h-1.01v-8.968h.986l2.224 6.047v-6.047h.998v8.968h-.986zm7.814 4.039v-4.989c0-1.166.938-2.104 2.104-2.104.841 0 1.6.505 1.995 1.407l-.926.397c-.228-.541-.636-.794-1.07-.794a1.1 1.1 0 00-1.105 1.094v4.99c0 .6.504 1.106 1.106 1.106.6 0 1.106-.506 1.106-1.107v-1.08h-1.6v-1.01h2.598v2.091a2.098 2.098 0 01-2.104 2.104 2.098 2.098 0 01-2.104-2.104" fill="#21B3E8" fill-rule="nonzero"/><path d="M0 0h152.176v47.834H0z"/><mask id="c" fill="#fff"><use xlink:href="#a"/></mask><path fill="url(#b)" fill-rule="nonzero" mask="url(#c)" d="M29.902-20.156l-50.523 31.57 30.862 49.39 50.523-31.57z"/><g transform="translate(5.368 6.947)"><mask id="f" fill="#fff"><use xlink:href="#d"/></mask><path fill="url(#e)" fill-rule="nonzero" mask="url(#f)" d="M12.42 63.252L64 31.02 32.08-20.061-19.5 12.17z"/></g></g></svg>
