<svg width="422" height="48" xmlns="http://www.w3.org/2000/svg"><path d="M43.363 46.861L1.464 5.044C-.163 3.417.976.732 3.254.732h41.899a2.535 2.535 0 012.522 2.522v41.817c0 2.197-2.685 3.336-4.312 1.79m9.437-1.79V3.254A2.535 2.535 0 0155.322.732H97.22c2.278 0 3.417 2.685 1.79 4.312L57.112 46.861c-1.627 1.546-4.312.407-4.312-1.79m51.336 0V3.254a2.535 2.535 0 012.522-2.522h41.898c2.278 0 3.417 2.685 1.79 4.312l-41.899 41.817c-1.627 1.546-4.311.407-4.311-1.79M208.597.65v28.882l-10.089-20.42h-5.776l-10.25 20.664V.651h-9.113v46.942h9.031l13.098-25.546 13.18 25.546h8.95V.651zm34.332 13.506l5.288 16.515h-10.658l5.37-16.515zM238.373.65L222.02 47.51h10.17l2.847-8.867h15.702l2.847 8.868h10.17L247.403.65h-9.03zm27.254 0v8.136h19.119L265.627 41.33v6.264h31.729V39.54h-19.607l18.956-32.624V.651zm63.133 26.523V21.07c0-8.054-2.197-12.285-8.543-12.285h-7.16V39.54h7.16c6.346 0 8.542-4.23 8.542-12.366zm-25.221 20.42V.733h16.678c10.658 0 18.061 5.45 18.061 20.42v6.101c0 14.888-7.403 20.42-18.061 20.42h-16.678v-.08zm57.193-33.437l5.288 16.515h-10.657l5.37-16.515zM356.176.65l-16.352 46.86h10.17l2.847-8.867h15.701l2.848 8.868h10.17L365.287.65h-9.112zm56.217 0v29.452L394.007.65h-7.892v46.942h9.03V18.55l18.306 29.044h7.973V.651z" fill="#FFF"/></svg>
