<svg width="332" height="48" xmlns="http://www.w3.org/2000/svg"><g fill="none"><path d="M138.754 47.189l16.794-44.102h-7.489l.956-2.503h17.72l-.957 2.503h-7.616L141.367 47.19zm36.744-15.599l-5.896 15.438h-2.613l5.896-15.438c1.497-3.884.318-5.778-3.665-5.778h-5.1l-8.094 21.216h-2.613L171.163.423h8.478c5.099 0 6.596 2.632 4.748 7.543l-3.505 9.18c-1.69 4.397-4.303 6.42-7.426 7.414 2.677.77 3.665 2.76 2.04 7.03zm3.187-28.631h-5.864l-7.808 20.478h5.1c3.855 0 6.564-1.894 8.062-5.778L181.87 8c1.307-3.403.287-5.04-3.186-5.04zm15.806 44.23h-2.486l2.04-9.918h-10.963l-5.417 9.918h-2.486L201.343.455h2.613l-9.465 46.734zm-9.975-12.454h10.103l6.15-29.53-16.253 29.53zm30.307 12.454l2.613-40.186-11.855 31.776-3.155 8.281h-2.485L217.659.455h2.614l-2.71 40.186 11.92-31.905 3.154-8.28h2.486l-17.75 46.604h-2.486zm31.39-14.348l-2.772 7.286c-1.88 4.911-5.45 7.415-10.421 7.415h-1.498c-5.003 0-6.66-2.504-4.844-7.286l3.601-9.437h2.613l-3.633 9.533c-1.21 3.146-.063 4.783 3.283 4.783h1.243c3.505 0 5.736-1.637 6.947-4.783l2.772-7.286c1.116-2.889.765-4.269-.733-5.906l-5.003-5.52c-2.04-2.151-2.199-4.398-.797-8.025l2.263-5.906c1.88-4.91 5.322-7.414 10.42-7.414h1.244c5.003 0 6.66 2.503 4.844 7.286l-3.06 8.024h-2.613l3.123-8.153c1.211-3.145.192-4.782-3.282-4.782h-1.115c-3.379 0-5.737 1.637-6.948 4.782l-2.294 6.035c-1.052 2.76-.701 4.14.733 5.906l5.035 5.392c2.04 2.15 2.326 4.301.892 8.056zM277.986.584l-.956 2.503h-10.485l-7.33 19.226h10.103l-.956 2.504h-10.103l-8.572 22.468h-2.613L264.824.712h13.098zm18.834 0l-.956 2.503h-10.74l-7.33 19.226h10.358l-.956 2.504h-10.358l-7.616 19.965h10.835l-.956 2.503h-13.48L283.37.68h13.353zm10.74 31.006l-5.896 15.438h-2.613l5.895-15.438c1.498-3.884.319-5.778-3.665-5.778h-5.099l-8.094 21.216h-2.613L303.225.423h8.477c5.1 0 6.597 2.632 4.749 7.543l-3.506 9.18c-1.689 4.397-4.302 6.42-7.425 7.414 2.677.77 3.665 2.76 2.04 7.03zm3.186-28.631h-5.864l-7.807 20.478h5.099c3.856 0 6.564-1.894 8.062-5.778L313.933 8c1.307-3.403.287-5.04-3.187-5.04zm-172.757-.963c-.765-1.06-1.976-1.67-3.505-1.67h-12.78l-17.08 47.216h13.32c3.06 0 6.405-2.375 7.457-5.328L138.34 5.976c.541-1.477.414-2.92-.351-3.98zm-18.993 40.282h-5.992l13.194-36.623h5.927l-2.995 8.281-10.134 28.342zM34.45 5.976c.541-1.477.477-2.985-.287-4.044C33.43.905 32.219.295 30.689.295h-12.62L0 47.542h6.437l7.107-18.584h3.25L13.29 47.542h6.597l3.314-19.29c2.103-.963 3.856-2.729 4.557-4.655L34.45 5.976zm-6.247-.257L21.32 23.886h-5.864L22.371 5.72h5.832zm76.07-5.392L87.096 47.542H93.5L110.646.327zM63.29 1.932C62.557.872 61.346.295 59.816.295h-7.584c-3.028 0-6.374 2.375-7.49 5.328L29 47.542h6.437l6.98-18.584h6.214L41.62 47.51h6.533L63.609 5.944c.542-1.477.446-2.921-.319-4.012zm-5.99 3.69l-6.724 18.04h-6.183l6.756-18.04h6.15zm34.608-3.69C91.175.872 89.964.295 88.434.295h-12.27L58.67 47.51h6.406l5.417-14.733h6.342c3.06 0 6.406-2.375 7.49-5.328l7.902-21.537c.542-1.445.415-2.889-.318-3.98zm-5.992 3.755L77.95 27.321h-5.48l7.998-21.634h5.45z" fill="#FFF"/><path fill="#66C08E" d="M331.429 47.542V.327l-17.815 47.215z"/></g></svg>
